<mxfile host="app.diagrams.net" agent="Mozilla/5.0 (Windows NT 10.0; Win64; x64) AppleWebKit/537.36 (KHTML, like Gecko) Chrome/128.0.0.0 YaBrowser/24.10.0.0 Safari/537.36" version="25.0.1">
  <diagram id="prtHgNgQTEPvFCAcTncT" name="Page-1">
    <mxGraphModel dx="2087" dy="719" grid="1" gridSize="10" guides="1" tooltips="1" connect="1" arrows="1" fold="1" page="1" pageScale="1" pageWidth="827" pageHeight="1169" math="0" shadow="0">
      <root>
        <mxCell id="0" />
        <mxCell id="1" parent="0" />
        <mxCell id="4uhgzGvUtN5T5S1G_zmg-6" value="" style="group" vertex="1" connectable="0" parent="1">
          <mxGeometry x="-190" y="459.99999999999994" width="1000" height="540" as="geometry" />
        </mxCell>
        <mxCell id="4uhgzGvUtN5T5S1G_zmg-1" value="" style="shape=process;whiteSpace=wrap;html=1;backgroundOutline=1;rotation=90;" vertex="1" parent="4uhgzGvUtN5T5S1G_zmg-6">
          <mxGeometry x="230" y="-229.99999999999994" width="540" height="1000" as="geometry" />
        </mxCell>
        <mxCell id="4uhgzGvUtN5T5S1G_zmg-2" value="" style="rounded=0;whiteSpace=wrap;html=1;" vertex="1" parent="4uhgzGvUtN5T5S1G_zmg-6">
          <mxGeometry y="5.684341886080802e-14" width="120" height="54" as="geometry" />
        </mxCell>
        <mxCell id="4uhgzGvUtN5T5S1G_zmg-3" value="ЛАА001" style="rounded=0;whiteSpace=wrap;html=1;" vertex="1" parent="4uhgzGvUtN5T5S1G_zmg-6">
          <mxGeometry x="880" y="486.00000000000006" width="120" height="54" as="geometry" />
        </mxCell>
        <mxCell id="4uhgzGvUtN5T5S1G_zmg-4" value="" style="rounded=0;whiteSpace=wrap;html=1;" vertex="1" parent="4uhgzGvUtN5T5S1G_zmg-6">
          <mxGeometry x="880" y="5.684341886080802e-14" width="120" height="54" as="geometry" />
        </mxCell>
        <mxCell id="4uhgzGvUtN5T5S1G_zmg-5" value="A-0" style="rounded=0;whiteSpace=wrap;html=1;" vertex="1" parent="4uhgzGvUtN5T5S1G_zmg-6">
          <mxGeometry y="486.00000000000006" width="120" height="54" as="geometry" />
        </mxCell>
        <mxCell id="4uhgzGvUtN5T5S1G_zmg-7" value="" style="rounded=0;whiteSpace=wrap;html=1;fillColor=#000000;" vertex="1" parent="4uhgzGvUtN5T5S1G_zmg-6">
          <mxGeometry x="910" y="12" width="60" height="30" as="geometry" />
        </mxCell>
        <mxCell id="4uhgzGvUtN5T5S1G_zmg-8" value="Делопроизводство" style="text;html=1;align=center;verticalAlign=middle;whiteSpace=wrap;rounded=0;" vertex="1" parent="4uhgzGvUtN5T5S1G_zmg-6">
          <mxGeometry x="120" y="486" width="760" height="54" as="geometry" />
        </mxCell>
        <mxCell id="4uhgzGvUtN5T5S1G_zmg-9" value="Делопроизводство" style="rounded=0;whiteSpace=wrap;html=1;" vertex="1" parent="4uhgzGvUtN5T5S1G_zmg-6">
          <mxGeometry x="370" y="195" width="260" height="150" as="geometry" />
        </mxCell>
        <mxCell id="4uhgzGvUtN5T5S1G_zmg-12" value="" style="endArrow=classic;html=1;rounded=0;exitX=0.461;exitY=0.999;exitDx=0;exitDy=0;exitPerimeter=0;entryX=0.004;entryY=0.36;entryDx=0;entryDy=0;entryPerimeter=0;" edge="1" parent="4uhgzGvUtN5T5S1G_zmg-6">
          <mxGeometry width="50" height="50" relative="1" as="geometry">
            <mxPoint y="310.00000000000006" as="sourcePoint" />
            <mxPoint x="370" y="310.00000000000006" as="targetPoint" />
          </mxGeometry>
        </mxCell>
        <mxCell id="4uhgzGvUtN5T5S1G_zmg-15" value="I1 - Необходимость в создании документа" style="edgeLabel;html=1;align=center;verticalAlign=middle;resizable=0;points=[];" vertex="1" connectable="0" parent="4uhgzGvUtN5T5S1G_zmg-12">
          <mxGeometry x="0.0108" relative="1" as="geometry">
            <mxPoint as="offset" />
          </mxGeometry>
        </mxCell>
        <mxCell id="4uhgzGvUtN5T5S1G_zmg-16" value="" style="endArrow=classic;html=1;rounded=0;exitX=0.461;exitY=0.999;exitDx=0;exitDy=0;exitPerimeter=0;entryX=0.004;entryY=0.36;entryDx=0;entryDy=0;entryPerimeter=0;" edge="1" parent="4uhgzGvUtN5T5S1G_zmg-6">
          <mxGeometry width="50" height="50" relative="1" as="geometry">
            <mxPoint y="230.00000000000006" as="sourcePoint" />
            <mxPoint x="370" y="230.00000000000006" as="targetPoint" />
          </mxGeometry>
        </mxCell>
        <mxCell id="4uhgzGvUtN5T5S1G_zmg-18" value="I2 - Исходные данные" style="edgeLabel;html=1;align=center;verticalAlign=middle;resizable=0;points=[];" vertex="1" connectable="0" parent="4uhgzGvUtN5T5S1G_zmg-16">
          <mxGeometry x="-0.0216" y="3" relative="1" as="geometry">
            <mxPoint as="offset" />
          </mxGeometry>
        </mxCell>
        <mxCell id="4uhgzGvUtN5T5S1G_zmg-19" value="" style="endArrow=classic;html=1;rounded=0;entryX=0.054;entryY=0.013;entryDx=0;entryDy=0;entryPerimeter=0;" edge="1" parent="4uhgzGvUtN5T5S1G_zmg-6">
          <mxGeometry width="50" height="50" relative="1" as="geometry">
            <mxPoint x="400.96" y="54.00000000000006" as="sourcePoint" />
            <mxPoint x="399.99999999999994" y="197.9500000000001" as="targetPoint" />
          </mxGeometry>
        </mxCell>
        <mxCell id="4uhgzGvUtN5T5S1G_zmg-25" value="C1 - Стандарты&amp;nbsp;&lt;div&gt;оформления документов&lt;/div&gt;" style="edgeLabel;html=1;align=center;verticalAlign=middle;resizable=0;points=[];rotation=-90;" vertex="1" connectable="0" parent="4uhgzGvUtN5T5S1G_zmg-19">
          <mxGeometry x="-0.083" y="-1" relative="1" as="geometry">
            <mxPoint x="-20" y="5" as="offset" />
          </mxGeometry>
        </mxCell>
        <mxCell id="4uhgzGvUtN5T5S1G_zmg-24" value="" style="endArrow=classic;html=1;rounded=0;entryX=0.054;entryY=0.013;entryDx=0;entryDy=0;entryPerimeter=0;" edge="1" parent="4uhgzGvUtN5T5S1G_zmg-6">
          <mxGeometry width="50" height="50" relative="1" as="geometry">
            <mxPoint x="601" y="54.00000000000006" as="sourcePoint" />
            <mxPoint x="600" y="198.00000000000006" as="targetPoint" />
          </mxGeometry>
        </mxCell>
        <mxCell id="4uhgzGvUtN5T5S1G_zmg-30" value="C6 - Контроль&lt;div&gt;за исполнением&lt;/div&gt;" style="edgeLabel;html=1;align=center;verticalAlign=middle;resizable=0;points=[];rotation=-90;" vertex="1" connectable="0" parent="4uhgzGvUtN5T5S1G_zmg-24">
          <mxGeometry x="0.1529" y="-1" relative="1" as="geometry">
            <mxPoint y="-12" as="offset" />
          </mxGeometry>
        </mxCell>
        <mxCell id="4uhgzGvUtN5T5S1G_zmg-23" value="" style="endArrow=classic;html=1;rounded=0;entryX=0.054;entryY=0.013;entryDx=0;entryDy=0;entryPerimeter=0;" edge="1" parent="4uhgzGvUtN5T5S1G_zmg-6">
          <mxGeometry width="50" height="50" relative="1" as="geometry">
            <mxPoint x="561" y="54.00000000000006" as="sourcePoint" />
            <mxPoint x="560" y="198.00000000000006" as="targetPoint" />
          </mxGeometry>
        </mxCell>
        <mxCell id="4uhgzGvUtN5T5S1G_zmg-29" value="C5 - Электронная&lt;div&gt;подпись&lt;/div&gt;" style="edgeLabel;html=1;align=center;verticalAlign=middle;resizable=0;points=[];rotation=-90;" vertex="1" connectable="0" parent="4uhgzGvUtN5T5S1G_zmg-23">
          <mxGeometry x="0.1113" y="-1" relative="1" as="geometry">
            <mxPoint y="-9" as="offset" />
          </mxGeometry>
        </mxCell>
        <mxCell id="4uhgzGvUtN5T5S1G_zmg-22" value="" style="endArrow=classic;html=1;rounded=0;entryX=0.054;entryY=0.013;entryDx=0;entryDy=0;entryPerimeter=0;" edge="1" parent="4uhgzGvUtN5T5S1G_zmg-6">
          <mxGeometry width="50" height="50" relative="1" as="geometry">
            <mxPoint x="521" y="54.00000000000006" as="sourcePoint" />
            <mxPoint x="520" y="198.00000000000006" as="targetPoint" />
          </mxGeometry>
        </mxCell>
        <mxCell id="4uhgzGvUtN5T5S1G_zmg-28" value="C4 - Политики&amp;nbsp;&lt;div&gt;регистрации документов&lt;/div&gt;" style="edgeLabel;html=1;align=center;verticalAlign=middle;resizable=0;points=[];rotation=-90;" vertex="1" connectable="0" parent="4uhgzGvUtN5T5S1G_zmg-22">
          <mxGeometry x="0.0698" y="-3" relative="1" as="geometry">
            <mxPoint x="3" y="-6" as="offset" />
          </mxGeometry>
        </mxCell>
        <mxCell id="4uhgzGvUtN5T5S1G_zmg-21" value="" style="endArrow=classic;html=1;rounded=0;entryX=0.054;entryY=0.013;entryDx=0;entryDy=0;entryPerimeter=0;" edge="1" parent="4uhgzGvUtN5T5S1G_zmg-6">
          <mxGeometry width="50" height="50" relative="1" as="geometry">
            <mxPoint x="481" y="54.00000000000006" as="sourcePoint" />
            <mxPoint x="480" y="198.00000000000006" as="targetPoint" />
          </mxGeometry>
        </mxCell>
        <mxCell id="4uhgzGvUtN5T5S1G_zmg-27" value="C3 - Лист&amp;nbsp;&lt;div&gt;согласования&lt;/div&gt;" style="edgeLabel;html=1;align=center;verticalAlign=middle;resizable=0;points=[];rotation=-90;" vertex="1" connectable="0" parent="4uhgzGvUtN5T5S1G_zmg-21">
          <mxGeometry x="0.0975" y="-2" relative="1" as="geometry">
            <mxPoint y="-8" as="offset" />
          </mxGeometry>
        </mxCell>
        <mxCell id="4uhgzGvUtN5T5S1G_zmg-20" value="" style="endArrow=classic;html=1;rounded=0;entryX=0.054;entryY=0.013;entryDx=0;entryDy=0;entryPerimeter=0;" edge="1" parent="4uhgzGvUtN5T5S1G_zmg-6">
          <mxGeometry width="50" height="50" relative="1" as="geometry">
            <mxPoint x="441" y="53.00000000000006" as="sourcePoint" />
            <mxPoint x="440" y="197.00000000000006" as="targetPoint" />
          </mxGeometry>
        </mxCell>
        <mxCell id="4uhgzGvUtN5T5S1G_zmg-26" value="C2 - Контроль&amp;nbsp;&lt;div&gt;за согласованием&lt;/div&gt;" style="edgeLabel;html=1;align=center;verticalAlign=middle;resizable=0;points=[];rotation=-90;" vertex="1" connectable="0" parent="4uhgzGvUtN5T5S1G_zmg-20">
          <mxGeometry x="0.139" y="-1" relative="1" as="geometry">
            <mxPoint y="-10" as="offset" />
          </mxGeometry>
        </mxCell>
        <mxCell id="4uhgzGvUtN5T5S1G_zmg-31" value="" style="endArrow=classic;html=1;rounded=0;" edge="1" parent="4uhgzGvUtN5T5S1G_zmg-6" target="4uhgzGvUtN5T5S1G_zmg-1">
          <mxGeometry width="50" height="50" relative="1" as="geometry">
            <mxPoint x="630" y="270.00000000000006" as="sourcePoint" />
            <mxPoint x="680" y="220.00000000000006" as="targetPoint" />
          </mxGeometry>
        </mxCell>
        <mxCell id="4uhgzGvUtN5T5S1G_zmg-32" value="O1 - Зарегистрированный, утверждённый документ" style="edgeLabel;html=1;align=center;verticalAlign=middle;resizable=0;points=[];" vertex="1" connectable="0" parent="4uhgzGvUtN5T5S1G_zmg-31">
          <mxGeometry x="0.0054" y="-2" relative="1" as="geometry">
            <mxPoint as="offset" />
          </mxGeometry>
        </mxCell>
        <mxCell id="4uhgzGvUtN5T5S1G_zmg-33" value="" style="endArrow=classic;html=1;rounded=0;exitX=0.347;exitY=0.019;exitDx=0;exitDy=0;exitPerimeter=0;entryX=0.054;entryY=1.02;entryDx=0;entryDy=0;entryPerimeter=0;" edge="1" parent="4uhgzGvUtN5T5S1G_zmg-6" source="4uhgzGvUtN5T5S1G_zmg-8" target="4uhgzGvUtN5T5S1G_zmg-9">
          <mxGeometry width="50" height="50" relative="1" as="geometry">
            <mxPoint x="590" y="330.00000000000006" as="sourcePoint" />
            <mxPoint x="640" y="280.00000000000006" as="targetPoint" />
          </mxGeometry>
        </mxCell>
        <mxCell id="4uhgzGvUtN5T5S1G_zmg-41" value="M1- Инициатор" style="edgeLabel;html=1;align=center;verticalAlign=middle;resizable=0;points=[];rotation=-90;" vertex="1" connectable="0" parent="4uhgzGvUtN5T5S1G_zmg-33">
          <mxGeometry x="-0.0646" y="3" relative="1" as="geometry">
            <mxPoint x="-11" y="-2" as="offset" />
          </mxGeometry>
        </mxCell>
        <mxCell id="4uhgzGvUtN5T5S1G_zmg-39" value="" style="endArrow=classic;html=1;rounded=0;exitX=0.347;exitY=0.019;exitDx=0;exitDy=0;exitPerimeter=0;entryX=0.054;entryY=1.02;entryDx=0;entryDy=0;entryPerimeter=0;" edge="1" parent="4uhgzGvUtN5T5S1G_zmg-6">
          <mxGeometry width="50" height="50" relative="1" as="geometry">
            <mxPoint x="580" y="484.00000000000006" as="sourcePoint" />
            <mxPoint x="580" y="345.00000000000006" as="targetPoint" />
          </mxGeometry>
        </mxCell>
        <mxCell id="4uhgzGvUtN5T5S1G_zmg-46" value="M6 - Контрагент" style="edgeLabel;html=1;align=center;verticalAlign=middle;resizable=0;points=[];rotation=-90;" vertex="1" connectable="0" parent="4uhgzGvUtN5T5S1G_zmg-39">
          <mxGeometry x="-0.2934" relative="1" as="geometry">
            <mxPoint x="-10" y="-15" as="offset" />
          </mxGeometry>
        </mxCell>
        <mxCell id="4uhgzGvUtN5T5S1G_zmg-38" value="" style="endArrow=classic;html=1;rounded=0;exitX=0.347;exitY=0.019;exitDx=0;exitDy=0;exitPerimeter=0;entryX=0.054;entryY=1.02;entryDx=0;entryDy=0;entryPerimeter=0;" edge="1" parent="4uhgzGvUtN5T5S1G_zmg-6">
          <mxGeometry width="50" height="50" relative="1" as="geometry">
            <mxPoint x="460" y="486" as="sourcePoint" />
            <mxPoint x="460" y="347.00000000000006" as="targetPoint" />
          </mxGeometry>
        </mxCell>
        <mxCell id="4uhgzGvUtN5T5S1G_zmg-43" value="M3 - Руководитель" style="edgeLabel;html=1;align=center;verticalAlign=middle;resizable=0;points=[];rotation=-90;" vertex="1" connectable="0" parent="4uhgzGvUtN5T5S1G_zmg-38">
          <mxGeometry x="-0.0408" y="2" relative="1" as="geometry">
            <mxPoint x="-8" as="offset" />
          </mxGeometry>
        </mxCell>
        <mxCell id="4uhgzGvUtN5T5S1G_zmg-37" value="" style="endArrow=classic;html=1;rounded=0;exitX=0.347;exitY=0.019;exitDx=0;exitDy=0;exitPerimeter=0;entryX=0.054;entryY=1.02;entryDx=0;entryDy=0;entryPerimeter=0;" edge="1" parent="4uhgzGvUtN5T5S1G_zmg-6">
          <mxGeometry width="50" height="50" relative="1" as="geometry">
            <mxPoint x="499.5" y="484.00000000000006" as="sourcePoint" />
            <mxPoint x="499.5" y="345.00000000000006" as="targetPoint" />
          </mxGeometry>
        </mxCell>
        <mxCell id="4uhgzGvUtN5T5S1G_zmg-44" value="M4 - согласующие" style="edgeLabel;html=1;align=center;verticalAlign=middle;resizable=0;points=[];rotation=-90;" vertex="1" connectable="0" parent="4uhgzGvUtN5T5S1G_zmg-37">
          <mxGeometry x="0.0104" relative="1" as="geometry">
            <mxPoint x="-9" y="6" as="offset" />
          </mxGeometry>
        </mxCell>
        <mxCell id="4uhgzGvUtN5T5S1G_zmg-36" value="" style="endArrow=classic;html=1;rounded=0;exitX=0.347;exitY=0.019;exitDx=0;exitDy=0;exitPerimeter=0;entryX=0.054;entryY=1.02;entryDx=0;entryDy=0;entryPerimeter=0;" edge="1" parent="4uhgzGvUtN5T5S1G_zmg-6">
          <mxGeometry width="50" height="50" relative="1" as="geometry">
            <mxPoint x="540" y="484.00000000000006" as="sourcePoint" />
            <mxPoint x="540" y="345.00000000000006" as="targetPoint" />
          </mxGeometry>
        </mxCell>
        <mxCell id="4uhgzGvUtN5T5S1G_zmg-45" value="M5 - Служба&lt;div&gt;&amp;nbsp;безопасности&lt;/div&gt;" style="edgeLabel;html=1;align=center;verticalAlign=middle;resizable=0;points=[];rotation=-90;" vertex="1" connectable="0" parent="4uhgzGvUtN5T5S1G_zmg-36">
          <mxGeometry x="-0.1575" y="1" relative="1" as="geometry">
            <mxPoint y="-6" as="offset" />
          </mxGeometry>
        </mxCell>
        <mxCell id="4uhgzGvUtN5T5S1G_zmg-35" value="" style="endArrow=classic;html=1;rounded=0;exitX=0.347;exitY=0.019;exitDx=0;exitDy=0;exitPerimeter=0;entryX=0.054;entryY=1.02;entryDx=0;entryDy=0;entryPerimeter=0;" edge="1" parent="4uhgzGvUtN5T5S1G_zmg-6">
          <mxGeometry width="50" height="50" relative="1" as="geometry">
            <mxPoint x="620" y="486.00000000000006" as="sourcePoint" />
            <mxPoint x="620" y="347.00000000000006" as="targetPoint" />
          </mxGeometry>
        </mxCell>
        <mxCell id="4uhgzGvUtN5T5S1G_zmg-47" value="M7 - Секретарь" style="edgeLabel;html=1;align=center;verticalAlign=middle;resizable=0;points=[];rotation=-90;" vertex="1" connectable="0" parent="4uhgzGvUtN5T5S1G_zmg-35">
          <mxGeometry x="-0.0008" y="-1" relative="1" as="geometry">
            <mxPoint x="-11" as="offset" />
          </mxGeometry>
        </mxCell>
        <mxCell id="4uhgzGvUtN5T5S1G_zmg-34" value="" style="endArrow=classic;html=1;rounded=0;exitX=0.347;exitY=0.019;exitDx=0;exitDy=0;exitPerimeter=0;entryX=0.054;entryY=1.02;entryDx=0;entryDy=0;entryPerimeter=0;" edge="1" parent="4uhgzGvUtN5T5S1G_zmg-6">
          <mxGeometry width="50" height="50" relative="1" as="geometry">
            <mxPoint x="420" y="486.00000000000006" as="sourcePoint" />
            <mxPoint x="420" y="347.00000000000006" as="targetPoint" />
          </mxGeometry>
        </mxCell>
        <mxCell id="4uhgzGvUtN5T5S1G_zmg-42" value="&amp;nbsp;M2 -&amp;nbsp;&lt;div&gt;1C:Документооборот 8&lt;/div&gt;" style="edgeLabel;html=1;align=center;verticalAlign=middle;resizable=0;points=[];rotation=-90;" vertex="1" connectable="0" parent="4uhgzGvUtN5T5S1G_zmg-34">
          <mxGeometry x="-0.0504" relative="1" as="geometry">
            <mxPoint x="-10" as="offset" />
          </mxGeometry>
        </mxCell>
        <mxCell id="4uhgzGvUtN5T5S1G_zmg-131" value="" style="endArrow=classic;html=1;rounded=0;entryX=0.25;entryY=1;entryDx=0;entryDy=0;" edge="1" parent="1">
          <mxGeometry width="50" height="50" relative="1" as="geometry">
            <mxPoint x="124" y="1537" as="sourcePoint" />
            <mxPoint x="125" y="1290" as="targetPoint" />
          </mxGeometry>
        </mxCell>
        <mxCell id="4uhgzGvUtN5T5S1G_zmg-134" value="M4" style="edgeLabel;html=1;align=center;verticalAlign=middle;resizable=0;points=[];" vertex="1" connectable="0" parent="4uhgzGvUtN5T5S1G_zmg-131">
          <mxGeometry x="-0.8974" relative="1" as="geometry">
            <mxPoint as="offset" />
          </mxGeometry>
        </mxCell>
        <mxCell id="4uhgzGvUtN5T5S1G_zmg-136" value="" style="endArrow=classic;html=1;rounded=0;entryX=0.393;entryY=0.975;entryDx=0;entryDy=0;entryPerimeter=0;" edge="1" parent="1" target="4uhgzGvUtN5T5S1G_zmg-110">
          <mxGeometry width="50" height="50" relative="1" as="geometry">
            <mxPoint x="267" y="1536" as="sourcePoint" />
            <mxPoint x="317" y="1486" as="targetPoint" />
          </mxGeometry>
        </mxCell>
        <mxCell id="4uhgzGvUtN5T5S1G_zmg-137" value="M6" style="edgeLabel;html=1;align=center;verticalAlign=middle;resizable=0;points=[];" vertex="1" connectable="0" parent="4uhgzGvUtN5T5S1G_zmg-136">
          <mxGeometry x="-0.8667" y="1" relative="1" as="geometry">
            <mxPoint as="offset" />
          </mxGeometry>
        </mxCell>
        <mxCell id="4uhgzGvUtN5T5S1G_zmg-169" value="" style="group" vertex="1" connectable="0" parent="1">
          <mxGeometry x="-190" y="1050" width="1000" height="540" as="geometry" />
        </mxCell>
        <mxCell id="4uhgzGvUtN5T5S1G_zmg-49" value="" style="group" vertex="1" connectable="0" parent="4uhgzGvUtN5T5S1G_zmg-169">
          <mxGeometry width="1000" height="540" as="geometry" />
        </mxCell>
        <mxCell id="4uhgzGvUtN5T5S1G_zmg-50" value="" style="shape=process;whiteSpace=wrap;html=1;backgroundOutline=1;rotation=90;" vertex="1" parent="4uhgzGvUtN5T5S1G_zmg-49">
          <mxGeometry x="230" y="-229.99999999999994" width="540" height="1000" as="geometry" />
        </mxCell>
        <mxCell id="4uhgzGvUtN5T5S1G_zmg-51" value="" style="rounded=0;whiteSpace=wrap;html=1;" vertex="1" parent="4uhgzGvUtN5T5S1G_zmg-49">
          <mxGeometry y="5.684341886080802e-14" width="120" height="54" as="geometry" />
        </mxCell>
        <mxCell id="4uhgzGvUtN5T5S1G_zmg-52" value="ЛАА002" style="rounded=0;whiteSpace=wrap;html=1;" vertex="1" parent="4uhgzGvUtN5T5S1G_zmg-49">
          <mxGeometry x="880" y="486.00000000000006" width="120" height="54" as="geometry" />
        </mxCell>
        <mxCell id="4uhgzGvUtN5T5S1G_zmg-53" value="" style="rounded=0;whiteSpace=wrap;html=1;" vertex="1" parent="4uhgzGvUtN5T5S1G_zmg-49">
          <mxGeometry x="880" y="5.684341886080802e-14" width="120" height="54" as="geometry" />
        </mxCell>
        <mxCell id="4uhgzGvUtN5T5S1G_zmg-54" value="A0" style="rounded=0;whiteSpace=wrap;html=1;" vertex="1" parent="4uhgzGvUtN5T5S1G_zmg-49">
          <mxGeometry y="486.00000000000006" width="120" height="54" as="geometry" />
        </mxCell>
        <mxCell id="4uhgzGvUtN5T5S1G_zmg-56" value="Делопроизводство" style="text;html=1;align=center;verticalAlign=middle;whiteSpace=wrap;rounded=0;" vertex="1" parent="4uhgzGvUtN5T5S1G_zmg-49">
          <mxGeometry x="120" y="486" width="760" height="54" as="geometry" />
        </mxCell>
        <mxCell id="4uhgzGvUtN5T5S1G_zmg-155" style="edgeStyle=orthogonalEdgeStyle;rounded=0;orthogonalLoop=1;jettySize=auto;html=1;exitX=1;exitY=0.5;exitDx=0;exitDy=0;" edge="1" parent="4uhgzGvUtN5T5S1G_zmg-49" source="4uhgzGvUtN5T5S1G_zmg-90" target="4uhgzGvUtN5T5S1G_zmg-109">
          <mxGeometry relative="1" as="geometry" />
        </mxCell>
        <mxCell id="4uhgzGvUtN5T5S1G_zmg-160" value="I3" style="edgeLabel;html=1;align=center;verticalAlign=middle;resizable=0;points=[];" vertex="1" connectable="0" parent="4uhgzGvUtN5T5S1G_zmg-155">
          <mxGeometry x="-0.8067" y="-1" relative="1" as="geometry">
            <mxPoint as="offset" />
          </mxGeometry>
        </mxCell>
        <mxCell id="4uhgzGvUtN5T5S1G_zmg-90" value="Инициация создания документа" style="rounded=0;whiteSpace=wrap;html=1;" vertex="1" parent="4uhgzGvUtN5T5S1G_zmg-49">
          <mxGeometry x="90" y="119" width="120" height="60" as="geometry" />
        </mxCell>
        <mxCell id="4uhgzGvUtN5T5S1G_zmg-91" value="" style="rounded=0;whiteSpace=wrap;html=1;" vertex="1" parent="4uhgzGvUtN5T5S1G_zmg-49">
          <mxGeometry x="884" y="4" width="16" height="6" as="geometry" />
        </mxCell>
        <mxCell id="4uhgzGvUtN5T5S1G_zmg-92" value="" style="rounded=0;whiteSpace=wrap;html=1;" vertex="1" parent="4uhgzGvUtN5T5S1G_zmg-49">
          <mxGeometry x="905" y="13" width="16" height="6" as="geometry" />
        </mxCell>
        <mxCell id="4uhgzGvUtN5T5S1G_zmg-112" value="Исполнение" style="rounded=0;whiteSpace=wrap;html=1;" vertex="1" parent="4uhgzGvUtN5T5S1G_zmg-49">
          <mxGeometry x="730" y="360" width="120" height="60" as="geometry" />
        </mxCell>
        <mxCell id="4uhgzGvUtN5T5S1G_zmg-158" style="edgeStyle=orthogonalEdgeStyle;rounded=0;orthogonalLoop=1;jettySize=auto;html=1;exitX=1;exitY=0.5;exitDx=0;exitDy=0;entryX=0;entryY=0.25;entryDx=0;entryDy=0;" edge="1" parent="4uhgzGvUtN5T5S1G_zmg-49" source="4uhgzGvUtN5T5S1G_zmg-111" target="4uhgzGvUtN5T5S1G_zmg-112">
          <mxGeometry relative="1" as="geometry" />
        </mxCell>
        <mxCell id="4uhgzGvUtN5T5S1G_zmg-164" value="I7" style="edgeLabel;html=1;align=center;verticalAlign=middle;resizable=0;points=[];" vertex="1" connectable="0" parent="4uhgzGvUtN5T5S1G_zmg-158">
          <mxGeometry x="-0.5633" relative="1" as="geometry">
            <mxPoint as="offset" />
          </mxGeometry>
        </mxCell>
        <mxCell id="4uhgzGvUtN5T5S1G_zmg-165" style="edgeStyle=orthogonalEdgeStyle;rounded=0;orthogonalLoop=1;jettySize=auto;html=1;exitX=1;exitY=0.75;exitDx=0;exitDy=0;entryX=0;entryY=0.75;entryDx=0;entryDy=0;" edge="1" parent="4uhgzGvUtN5T5S1G_zmg-49" source="4uhgzGvUtN5T5S1G_zmg-111" target="4uhgzGvUtN5T5S1G_zmg-112">
          <mxGeometry relative="1" as="geometry">
            <Array as="points">
              <mxPoint x="700" y="345" />
              <mxPoint x="700" y="405" />
            </Array>
          </mxGeometry>
        </mxCell>
        <mxCell id="4uhgzGvUtN5T5S1G_zmg-166" value="I8" style="edgeLabel;html=1;align=center;verticalAlign=middle;resizable=0;points=[];" vertex="1" connectable="0" parent="4uhgzGvUtN5T5S1G_zmg-165">
          <mxGeometry x="-0.73" relative="1" as="geometry">
            <mxPoint as="offset" />
          </mxGeometry>
        </mxCell>
        <mxCell id="4uhgzGvUtN5T5S1G_zmg-111" value="Регистрация" style="rounded=0;whiteSpace=wrap;html=1;" vertex="1" parent="4uhgzGvUtN5T5S1G_zmg-49">
          <mxGeometry x="570" y="300" width="120" height="60" as="geometry" />
        </mxCell>
        <mxCell id="4uhgzGvUtN5T5S1G_zmg-157" style="edgeStyle=orthogonalEdgeStyle;rounded=0;orthogonalLoop=1;jettySize=auto;html=1;exitX=1;exitY=0.5;exitDx=0;exitDy=0;" edge="1" parent="4uhgzGvUtN5T5S1G_zmg-49" source="4uhgzGvUtN5T5S1G_zmg-110" target="4uhgzGvUtN5T5S1G_zmg-111">
          <mxGeometry relative="1" as="geometry" />
        </mxCell>
        <mxCell id="4uhgzGvUtN5T5S1G_zmg-163" value="I6" style="edgeLabel;html=1;align=center;verticalAlign=middle;resizable=0;points=[];" vertex="1" connectable="0" parent="4uhgzGvUtN5T5S1G_zmg-157">
          <mxGeometry x="-0.7067" y="2" relative="1" as="geometry">
            <mxPoint as="offset" />
          </mxGeometry>
        </mxCell>
        <mxCell id="4uhgzGvUtN5T5S1G_zmg-110" value="Подписание" style="rounded=0;whiteSpace=wrap;html=1;" vertex="1" parent="4uhgzGvUtN5T5S1G_zmg-49">
          <mxGeometry x="410" y="240" width="120" height="60" as="geometry" />
        </mxCell>
        <mxCell id="4uhgzGvUtN5T5S1G_zmg-156" style="edgeStyle=orthogonalEdgeStyle;rounded=0;orthogonalLoop=1;jettySize=auto;html=1;exitX=1;exitY=0.5;exitDx=0;exitDy=0;entryX=0;entryY=0.5;entryDx=0;entryDy=0;" edge="1" parent="4uhgzGvUtN5T5S1G_zmg-49" source="4uhgzGvUtN5T5S1G_zmg-109" target="4uhgzGvUtN5T5S1G_zmg-110">
          <mxGeometry relative="1" as="geometry" />
        </mxCell>
        <mxCell id="4uhgzGvUtN5T5S1G_zmg-162" value="I5" style="edgeLabel;html=1;align=center;verticalAlign=middle;resizable=0;points=[];" vertex="1" connectable="0" parent="4uhgzGvUtN5T5S1G_zmg-156">
          <mxGeometry x="-0.7426" relative="1" as="geometry">
            <mxPoint as="offset" />
          </mxGeometry>
        </mxCell>
        <mxCell id="4uhgzGvUtN5T5S1G_zmg-159" style="edgeStyle=orthogonalEdgeStyle;rounded=0;orthogonalLoop=1;jettySize=auto;html=1;exitX=1;exitY=0.75;exitDx=0;exitDy=0;entryX=0;entryY=0.5;entryDx=0;entryDy=0;" edge="1" parent="4uhgzGvUtN5T5S1G_zmg-49" source="4uhgzGvUtN5T5S1G_zmg-109" target="4uhgzGvUtN5T5S1G_zmg-90">
          <mxGeometry relative="1" as="geometry">
            <Array as="points">
              <mxPoint x="380" y="224" />
              <mxPoint x="380" y="320" />
              <mxPoint x="70" y="320" />
              <mxPoint x="70" y="149" />
            </Array>
          </mxGeometry>
        </mxCell>
        <mxCell id="4uhgzGvUtN5T5S1G_zmg-161" value="I4" style="edgeLabel;html=1;align=center;verticalAlign=middle;resizable=0;points=[];" vertex="1" connectable="0" parent="4uhgzGvUtN5T5S1G_zmg-159">
          <mxGeometry x="-0.9605" y="-2" relative="1" as="geometry">
            <mxPoint as="offset" />
          </mxGeometry>
        </mxCell>
        <mxCell id="4uhgzGvUtN5T5S1G_zmg-109" value="Согласование" style="rounded=0;whiteSpace=wrap;html=1;" vertex="1" parent="4uhgzGvUtN5T5S1G_zmg-49">
          <mxGeometry x="250" y="179" width="120" height="60" as="geometry" />
        </mxCell>
        <mxCell id="4uhgzGvUtN5T5S1G_zmg-113" value="" style="endArrow=classic;html=1;rounded=0;exitX=0.25;exitY=1;exitDx=0;exitDy=0;" edge="1" parent="4uhgzGvUtN5T5S1G_zmg-49" source="4uhgzGvUtN5T5S1G_zmg-50">
          <mxGeometry width="50" height="50" relative="1" as="geometry">
            <mxPoint x="480" y="260" as="sourcePoint" />
            <mxPoint x="91" y="135" as="targetPoint" />
          </mxGeometry>
        </mxCell>
        <mxCell id="4uhgzGvUtN5T5S1G_zmg-115" value="I1" style="edgeLabel;html=1;align=center;verticalAlign=middle;resizable=0;points=[];" vertex="1" connectable="0" parent="4uhgzGvUtN5T5S1G_zmg-113">
          <mxGeometry x="0.0183" relative="1" as="geometry">
            <mxPoint as="offset" />
          </mxGeometry>
        </mxCell>
        <mxCell id="4uhgzGvUtN5T5S1G_zmg-114" value="" style="endArrow=classic;html=1;rounded=0;exitX=0.25;exitY=1;exitDx=0;exitDy=0;" edge="1" parent="4uhgzGvUtN5T5S1G_zmg-49">
          <mxGeometry width="50" height="50" relative="1" as="geometry">
            <mxPoint y="166" as="sourcePoint" />
            <mxPoint x="91" y="166" as="targetPoint" />
          </mxGeometry>
        </mxCell>
        <mxCell id="4uhgzGvUtN5T5S1G_zmg-116" value="I2" style="edgeLabel;html=1;align=center;verticalAlign=middle;resizable=0;points=[];" vertex="1" connectable="0" parent="4uhgzGvUtN5T5S1G_zmg-114">
          <mxGeometry x="0.1648" y="-3" relative="1" as="geometry">
            <mxPoint x="-6" as="offset" />
          </mxGeometry>
        </mxCell>
        <mxCell id="4uhgzGvUtN5T5S1G_zmg-117" value="" style="endArrow=classic;html=1;rounded=0;entryX=0;entryY=1;entryDx=0;entryDy=0;" edge="1" parent="4uhgzGvUtN5T5S1G_zmg-49">
          <mxGeometry width="50" height="50" relative="1" as="geometry">
            <mxPoint x="100" y="486" as="sourcePoint" />
            <mxPoint x="100.00000000000023" y="179" as="targetPoint" />
          </mxGeometry>
        </mxCell>
        <mxCell id="4uhgzGvUtN5T5S1G_zmg-118" value="" style="endArrow=classic;html=1;rounded=0;entryX=0.157;entryY=0.975;entryDx=0;entryDy=0;entryPerimeter=0;" edge="1" parent="4uhgzGvUtN5T5S1G_zmg-49" target="4uhgzGvUtN5T5S1G_zmg-112">
          <mxGeometry width="50" height="50" relative="1" as="geometry">
            <mxPoint x="100" y="486" as="sourcePoint" />
            <mxPoint x="150" y="436" as="targetPoint" />
            <Array as="points">
              <mxPoint x="100" y="460" />
              <mxPoint x="749" y="460" />
            </Array>
          </mxGeometry>
        </mxCell>
        <mxCell id="4uhgzGvUtN5T5S1G_zmg-119" value="M1" style="edgeLabel;html=1;align=center;verticalAlign=middle;resizable=0;points=[];" vertex="1" connectable="0" parent="4uhgzGvUtN5T5S1G_zmg-118">
          <mxGeometry x="-0.9791" y="1" relative="1" as="geometry">
            <mxPoint as="offset" />
          </mxGeometry>
        </mxCell>
        <mxCell id="4uhgzGvUtN5T5S1G_zmg-121" value="" style="endArrow=classic;html=1;rounded=0;entryX=0;entryY=1;entryDx=0;entryDy=0;" edge="1" parent="4uhgzGvUtN5T5S1G_zmg-49">
          <mxGeometry width="50" height="50" relative="1" as="geometry">
            <mxPoint x="119.17" y="486" as="sourcePoint" />
            <mxPoint x="119.17000000000023" y="179" as="targetPoint" />
          </mxGeometry>
        </mxCell>
        <mxCell id="4uhgzGvUtN5T5S1G_zmg-122" value="" style="endArrow=classic;html=1;rounded=0;entryX=0.157;entryY=0.975;entryDx=0;entryDy=0;entryPerimeter=0;" edge="1" parent="4uhgzGvUtN5T5S1G_zmg-49">
          <mxGeometry width="50" height="50" relative="1" as="geometry">
            <mxPoint x="119" y="486" as="sourcePoint" />
            <mxPoint x="768" y="418" as="targetPoint" />
            <Array as="points">
              <mxPoint x="119" y="450" />
              <mxPoint x="770" y="450" />
            </Array>
          </mxGeometry>
        </mxCell>
        <mxCell id="4uhgzGvUtN5T5S1G_zmg-123" value="M2" style="edgeLabel;html=1;align=center;verticalAlign=middle;resizable=0;points=[];" vertex="1" connectable="0" parent="4uhgzGvUtN5T5S1G_zmg-122">
          <mxGeometry x="-0.9791" y="1" relative="1" as="geometry">
            <mxPoint as="offset" />
          </mxGeometry>
        </mxCell>
        <mxCell id="4uhgzGvUtN5T5S1G_zmg-127" value="" style="endArrow=classic;html=1;rounded=0;" edge="1" parent="4uhgzGvUtN5T5S1G_zmg-49">
          <mxGeometry width="50" height="50" relative="1" as="geometry">
            <mxPoint x="119" y="480" as="sourcePoint" />
            <mxPoint x="269" y="239" as="targetPoint" />
            <Array as="points">
              <mxPoint x="119" y="450" />
              <mxPoint x="269" y="450" />
            </Array>
          </mxGeometry>
        </mxCell>
        <mxCell id="4uhgzGvUtN5T5S1G_zmg-128" value="" style="endArrow=classic;html=1;rounded=0;entryX=0.157;entryY=1.017;entryDx=0;entryDy=0;entryPerimeter=0;" edge="1" parent="4uhgzGvUtN5T5S1G_zmg-49">
          <mxGeometry width="50" height="50" relative="1" as="geometry">
            <mxPoint x="119" y="470" as="sourcePoint" />
            <mxPoint x="427.84000000000015" y="301.02" as="targetPoint" />
            <Array as="points">
              <mxPoint x="119" y="450" />
              <mxPoint x="428" y="450" />
            </Array>
          </mxGeometry>
        </mxCell>
        <mxCell id="4uhgzGvUtN5T5S1G_zmg-129" value="" style="endArrow=classic;html=1;rounded=0;entryX=0.164;entryY=1.031;entryDx=0;entryDy=0;entryPerimeter=0;" edge="1" parent="4uhgzGvUtN5T5S1G_zmg-49">
          <mxGeometry width="50" height="50" relative="1" as="geometry">
            <mxPoint x="119" y="470" as="sourcePoint" />
            <mxPoint x="588.6800000000003" y="361.8599999999997" as="targetPoint" />
            <Array as="points">
              <mxPoint x="119" y="450" />
              <mxPoint x="589" y="450" />
            </Array>
          </mxGeometry>
        </mxCell>
        <mxCell id="4uhgzGvUtN5T5S1G_zmg-130" value="" style="endArrow=classic;html=1;rounded=0;entryX=0.25;entryY=1;entryDx=0;entryDy=0;" edge="1" parent="4uhgzGvUtN5T5S1G_zmg-49">
          <mxGeometry width="50" height="50" relative="1" as="geometry">
            <mxPoint x="290" y="487" as="sourcePoint" />
            <mxPoint x="291" y="240" as="targetPoint" />
          </mxGeometry>
        </mxCell>
        <mxCell id="4uhgzGvUtN5T5S1G_zmg-133" value="M3" style="edgeLabel;html=1;align=center;verticalAlign=middle;resizable=0;points=[];" vertex="1" connectable="0" parent="4uhgzGvUtN5T5S1G_zmg-130">
          <mxGeometry x="-0.8975" y="2" relative="1" as="geometry">
            <mxPoint as="offset" />
          </mxGeometry>
        </mxCell>
        <mxCell id="4uhgzGvUtN5T5S1G_zmg-132" value="" style="endArrow=classic;html=1;rounded=0;entryX=0.25;entryY=1;entryDx=0;entryDy=0;" edge="1" parent="4uhgzGvUtN5T5S1G_zmg-49">
          <mxGeometry width="50" height="50" relative="1" as="geometry">
            <mxPoint x="340" y="487" as="sourcePoint" />
            <mxPoint x="341" y="240" as="targetPoint" />
          </mxGeometry>
        </mxCell>
        <mxCell id="4uhgzGvUtN5T5S1G_zmg-135" value="M5" style="edgeLabel;html=1;align=center;verticalAlign=middle;resizable=0;points=[];" vertex="1" connectable="0" parent="4uhgzGvUtN5T5S1G_zmg-132">
          <mxGeometry x="-0.8974" relative="1" as="geometry">
            <mxPoint as="offset" />
          </mxGeometry>
        </mxCell>
        <mxCell id="4uhgzGvUtN5T5S1G_zmg-138" value="" style="endArrow=classic;html=1;rounded=0;" edge="1" parent="4uhgzGvUtN5T5S1G_zmg-49">
          <mxGeometry width="50" height="50" relative="1" as="geometry">
            <mxPoint x="620" y="486" as="sourcePoint" />
            <mxPoint x="620" y="360" as="targetPoint" />
          </mxGeometry>
        </mxCell>
        <mxCell id="4uhgzGvUtN5T5S1G_zmg-139" value="M7" style="edgeLabel;html=1;align=center;verticalAlign=middle;resizable=0;points=[];" vertex="1" connectable="0" parent="4uhgzGvUtN5T5S1G_zmg-138">
          <mxGeometry x="-0.8667" y="1" relative="1" as="geometry">
            <mxPoint as="offset" />
          </mxGeometry>
        </mxCell>
        <mxCell id="4uhgzGvUtN5T5S1G_zmg-140" value="" style="endArrow=classic;html=1;rounded=0;" edge="1" parent="4uhgzGvUtN5T5S1G_zmg-49">
          <mxGeometry width="50" height="50" relative="1" as="geometry">
            <mxPoint x="125" y="54" as="sourcePoint" />
            <mxPoint x="125" y="120" as="targetPoint" />
          </mxGeometry>
        </mxCell>
        <mxCell id="4uhgzGvUtN5T5S1G_zmg-141" value="C1" style="edgeLabel;html=1;align=center;verticalAlign=middle;resizable=0;points=[];" vertex="1" connectable="0" parent="4uhgzGvUtN5T5S1G_zmg-140">
          <mxGeometry x="-0.6111" y="1" relative="1" as="geometry">
            <mxPoint as="offset" />
          </mxGeometry>
        </mxCell>
        <mxCell id="4uhgzGvUtN5T5S1G_zmg-142" value="" style="endArrow=classic;html=1;rounded=0;entryX=0.25;entryY=0;entryDx=0;entryDy=0;" edge="1" parent="4uhgzGvUtN5T5S1G_zmg-49" target="4uhgzGvUtN5T5S1G_zmg-109">
          <mxGeometry width="50" height="50" relative="1" as="geometry">
            <mxPoint x="280" y="54" as="sourcePoint" />
            <mxPoint x="280" y="120" as="targetPoint" />
          </mxGeometry>
        </mxCell>
        <mxCell id="4uhgzGvUtN5T5S1G_zmg-143" value="C2" style="edgeLabel;html=1;align=center;verticalAlign=middle;resizable=0;points=[];" vertex="1" connectable="0" parent="4uhgzGvUtN5T5S1G_zmg-142">
          <mxGeometry x="-0.6111" y="1" relative="1" as="geometry">
            <mxPoint as="offset" />
          </mxGeometry>
        </mxCell>
        <mxCell id="4uhgzGvUtN5T5S1G_zmg-144" value="" style="endArrow=classic;html=1;rounded=0;entryX=0.25;entryY=0;entryDx=0;entryDy=0;" edge="1" parent="4uhgzGvUtN5T5S1G_zmg-49">
          <mxGeometry width="50" height="50" relative="1" as="geometry">
            <mxPoint x="340" y="54" as="sourcePoint" />
            <mxPoint x="340" y="179" as="targetPoint" />
          </mxGeometry>
        </mxCell>
        <mxCell id="4uhgzGvUtN5T5S1G_zmg-145" value="C3" style="edgeLabel;html=1;align=center;verticalAlign=middle;resizable=0;points=[];" vertex="1" connectable="0" parent="4uhgzGvUtN5T5S1G_zmg-144">
          <mxGeometry x="-0.6111" y="1" relative="1" as="geometry">
            <mxPoint as="offset" />
          </mxGeometry>
        </mxCell>
        <mxCell id="4uhgzGvUtN5T5S1G_zmg-146" value="" style="endArrow=classic;html=1;rounded=0;entryX=0.414;entryY=-0.011;entryDx=0;entryDy=0;entryPerimeter=0;" edge="1" parent="4uhgzGvUtN5T5S1G_zmg-49" target="4uhgzGvUtN5T5S1G_zmg-110">
          <mxGeometry width="50" height="50" relative="1" as="geometry">
            <mxPoint x="460" y="54" as="sourcePoint" />
            <mxPoint x="460" y="179" as="targetPoint" />
          </mxGeometry>
        </mxCell>
        <mxCell id="4uhgzGvUtN5T5S1G_zmg-147" value="C5" style="edgeLabel;html=1;align=center;verticalAlign=middle;resizable=0;points=[];" vertex="1" connectable="0" parent="4uhgzGvUtN5T5S1G_zmg-146">
          <mxGeometry x="-0.6111" y="1" relative="1" as="geometry">
            <mxPoint as="offset" />
          </mxGeometry>
        </mxCell>
        <mxCell id="4uhgzGvUtN5T5S1G_zmg-148" value="" style="endArrow=classic;html=1;rounded=0;entryX=0.5;entryY=0;entryDx=0;entryDy=0;" edge="1" parent="4uhgzGvUtN5T5S1G_zmg-49" target="4uhgzGvUtN5T5S1G_zmg-111">
          <mxGeometry width="50" height="50" relative="1" as="geometry">
            <mxPoint x="629.58" y="56.5" as="sourcePoint" />
            <mxPoint x="629.58" y="241.5" as="targetPoint" />
          </mxGeometry>
        </mxCell>
        <mxCell id="4uhgzGvUtN5T5S1G_zmg-149" value="C4" style="edgeLabel;html=1;align=center;verticalAlign=middle;resizable=0;points=[];" vertex="1" connectable="0" parent="4uhgzGvUtN5T5S1G_zmg-148">
          <mxGeometry x="-0.6111" y="1" relative="1" as="geometry">
            <mxPoint as="offset" />
          </mxGeometry>
        </mxCell>
        <mxCell id="4uhgzGvUtN5T5S1G_zmg-150" value="" style="endArrow=classic;html=1;rounded=0;entryX=0.5;entryY=0;entryDx=0;entryDy=0;" edge="1" parent="4uhgzGvUtN5T5S1G_zmg-49" target="4uhgzGvUtN5T5S1G_zmg-112">
          <mxGeometry width="50" height="50" relative="1" as="geometry">
            <mxPoint x="789.58" y="54" as="sourcePoint" />
            <mxPoint x="790" y="297.5" as="targetPoint" />
          </mxGeometry>
        </mxCell>
        <mxCell id="4uhgzGvUtN5T5S1G_zmg-151" value="C6" style="edgeLabel;html=1;align=center;verticalAlign=middle;resizable=0;points=[];" vertex="1" connectable="0" parent="4uhgzGvUtN5T5S1G_zmg-150">
          <mxGeometry x="-0.6111" y="1" relative="1" as="geometry">
            <mxPoint as="offset" />
          </mxGeometry>
        </mxCell>
        <mxCell id="4uhgzGvUtN5T5S1G_zmg-152" value="" style="endArrow=classic;html=1;rounded=0;entryX=0.723;entryY=0.002;entryDx=0;entryDy=0;entryPerimeter=0;" edge="1" parent="4uhgzGvUtN5T5S1G_zmg-49" target="4uhgzGvUtN5T5S1G_zmg-50">
          <mxGeometry width="50" height="50" relative="1" as="geometry">
            <mxPoint x="850" y="390" as="sourcePoint" />
            <mxPoint x="900" y="340" as="targetPoint" />
          </mxGeometry>
        </mxCell>
        <mxCell id="4uhgzGvUtN5T5S1G_zmg-153" value="O1" style="edgeLabel;html=1;align=center;verticalAlign=middle;resizable=0;points=[];" vertex="1" connectable="0" parent="4uhgzGvUtN5T5S1G_zmg-152">
          <mxGeometry x="-0.7792" y="-1" relative="1" as="geometry">
            <mxPoint as="offset" />
          </mxGeometry>
        </mxCell>
        <mxCell id="4uhgzGvUtN5T5S1G_zmg-167" value="I3 - черновой вариант на согласование&lt;div&gt;I4 - черновой вариант на доработку&lt;/div&gt;&lt;div&gt;I5 - согласованный документ&lt;/div&gt;&lt;div&gt;I6 - подписанный документ&lt;/div&gt;&lt;div&gt;I7 - регистрационный номер&lt;/div&gt;&lt;div&gt;I8 - зарегистрированный документ&lt;/div&gt;" style="text;html=1;align=right;verticalAlign=middle;whiteSpace=wrap;rounded=0;" vertex="1" parent="4uhgzGvUtN5T5S1G_zmg-49">
          <mxGeometry x="800" y="54" width="200" height="131" as="geometry" />
        </mxCell>
        <mxCell id="4uhgzGvUtN5T5S1G_zmg-405" value="1" style="text;html=1;align=center;verticalAlign=middle;whiteSpace=wrap;rounded=0;" vertex="1" parent="4uhgzGvUtN5T5S1G_zmg-49">
          <mxGeometry x="190" y="159" width="20" height="20" as="geometry" />
        </mxCell>
        <mxCell id="4uhgzGvUtN5T5S1G_zmg-409" value="2" style="text;html=1;align=center;verticalAlign=middle;whiteSpace=wrap;rounded=0;" vertex="1" parent="4uhgzGvUtN5T5S1G_zmg-49">
          <mxGeometry x="350" y="219" width="20" height="20" as="geometry" />
        </mxCell>
        <mxCell id="4uhgzGvUtN5T5S1G_zmg-408" value="3" style="text;html=1;align=center;verticalAlign=middle;whiteSpace=wrap;rounded=0;" vertex="1" parent="4uhgzGvUtN5T5S1G_zmg-49">
          <mxGeometry x="510" y="280" width="20" height="20" as="geometry" />
        </mxCell>
        <mxCell id="4uhgzGvUtN5T5S1G_zmg-407" value="4" style="text;html=1;align=center;verticalAlign=middle;whiteSpace=wrap;rounded=0;" vertex="1" parent="4uhgzGvUtN5T5S1G_zmg-49">
          <mxGeometry x="670" y="340" width="20" height="20" as="geometry" />
        </mxCell>
        <mxCell id="4uhgzGvUtN5T5S1G_zmg-406" value="5" style="text;html=1;align=center;verticalAlign=middle;whiteSpace=wrap;rounded=0;" vertex="1" parent="4uhgzGvUtN5T5S1G_zmg-49">
          <mxGeometry x="830" y="400" width="20" height="20" as="geometry" />
        </mxCell>
        <mxCell id="4uhgzGvUtN5T5S1G_zmg-236" value="" style="group" vertex="1" connectable="0" parent="4uhgzGvUtN5T5S1G_zmg-169">
          <mxGeometry x="926" y="23" width="58" height="27" as="geometry" />
        </mxCell>
        <mxCell id="4uhgzGvUtN5T5S1G_zmg-106" value="" style="rounded=0;whiteSpace=wrap;html=1;" vertex="1" parent="4uhgzGvUtN5T5S1G_zmg-236">
          <mxGeometry width="16" height="6" as="geometry" />
        </mxCell>
        <mxCell id="4uhgzGvUtN5T5S1G_zmg-107" value="" style="rounded=0;whiteSpace=wrap;html=1;" vertex="1" parent="4uhgzGvUtN5T5S1G_zmg-236">
          <mxGeometry x="21" y="11" width="16" height="6" as="geometry" />
        </mxCell>
        <mxCell id="4uhgzGvUtN5T5S1G_zmg-108" value="" style="rounded=0;whiteSpace=wrap;html=1;" vertex="1" parent="4uhgzGvUtN5T5S1G_zmg-236">
          <mxGeometry x="42" y="21" width="16" height="6" as="geometry" />
        </mxCell>
        <mxCell id="4uhgzGvUtN5T5S1G_zmg-170" value="" style="group" vertex="1" connectable="0" parent="1">
          <mxGeometry x="-190" y="1640" width="1000" height="540" as="geometry" />
        </mxCell>
        <mxCell id="4uhgzGvUtN5T5S1G_zmg-171" value="" style="shape=process;whiteSpace=wrap;html=1;backgroundOutline=1;rotation=90;" vertex="1" parent="4uhgzGvUtN5T5S1G_zmg-170">
          <mxGeometry x="230" y="-229.99999999999994" width="540" height="1000" as="geometry" />
        </mxCell>
        <mxCell id="4uhgzGvUtN5T5S1G_zmg-172" value="" style="rounded=0;whiteSpace=wrap;html=1;" vertex="1" parent="4uhgzGvUtN5T5S1G_zmg-170">
          <mxGeometry y="5.684341886080802e-14" width="120" height="54" as="geometry" />
        </mxCell>
        <mxCell id="4uhgzGvUtN5T5S1G_zmg-173" value="ЛАА003" style="rounded=0;whiteSpace=wrap;html=1;" vertex="1" parent="4uhgzGvUtN5T5S1G_zmg-170">
          <mxGeometry x="880" y="486.00000000000006" width="120" height="54" as="geometry" />
        </mxCell>
        <mxCell id="4uhgzGvUtN5T5S1G_zmg-174" value="" style="rounded=0;whiteSpace=wrap;html=1;" vertex="1" parent="4uhgzGvUtN5T5S1G_zmg-170">
          <mxGeometry x="880" y="5.684341886080802e-14" width="120" height="54" as="geometry" />
        </mxCell>
        <mxCell id="4uhgzGvUtN5T5S1G_zmg-175" value="A2" style="rounded=0;whiteSpace=wrap;html=1;" vertex="1" parent="4uhgzGvUtN5T5S1G_zmg-170">
          <mxGeometry y="486.00000000000006" width="120" height="54" as="geometry" />
        </mxCell>
        <mxCell id="4uhgzGvUtN5T5S1G_zmg-176" value="Согласование" style="text;html=1;align=center;verticalAlign=middle;whiteSpace=wrap;rounded=0;" vertex="1" parent="4uhgzGvUtN5T5S1G_zmg-170">
          <mxGeometry x="120" y="486" width="760" height="54" as="geometry" />
        </mxCell>
        <mxCell id="4uhgzGvUtN5T5S1G_zmg-180" value="" style="rounded=0;whiteSpace=wrap;html=1;" vertex="1" parent="4uhgzGvUtN5T5S1G_zmg-170">
          <mxGeometry x="884" y="4" width="16" height="6" as="geometry" />
        </mxCell>
        <mxCell id="4uhgzGvUtN5T5S1G_zmg-181" value="" style="rounded=0;whiteSpace=wrap;html=1;fillColor=#000000;" vertex="1" parent="4uhgzGvUtN5T5S1G_zmg-170">
          <mxGeometry x="905" y="13" width="16" height="6" as="geometry" />
        </mxCell>
        <mxCell id="4uhgzGvUtN5T5S1G_zmg-272" style="edgeStyle=orthogonalEdgeStyle;rounded=0;orthogonalLoop=1;jettySize=auto;html=1;exitX=1;exitY=0.75;exitDx=0;exitDy=0;entryX=0;entryY=0.75;entryDx=0;entryDy=0;" edge="1" parent="4uhgzGvUtN5T5S1G_zmg-170" source="4uhgzGvUtN5T5S1G_zmg-241" target="4uhgzGvUtN5T5S1G_zmg-243">
          <mxGeometry relative="1" as="geometry" />
        </mxCell>
        <mxCell id="4uhgzGvUtN5T5S1G_zmg-273" value="I9" style="edgeLabel;html=1;align=center;verticalAlign=middle;resizable=0;points=[];" vertex="1" connectable="0" parent="4uhgzGvUtN5T5S1G_zmg-272">
          <mxGeometry x="-0.8791" relative="1" as="geometry">
            <mxPoint as="offset" />
          </mxGeometry>
        </mxCell>
        <mxCell id="4uhgzGvUtN5T5S1G_zmg-241" value="Согласование с руководителем" style="rounded=0;whiteSpace=wrap;html=1;" vertex="1" parent="4uhgzGvUtN5T5S1G_zmg-170">
          <mxGeometry x="120" y="170" width="120" height="60" as="geometry" />
        </mxCell>
        <mxCell id="4uhgzGvUtN5T5S1G_zmg-274" style="edgeStyle=orthogonalEdgeStyle;rounded=0;orthogonalLoop=1;jettySize=auto;html=1;exitX=1;exitY=0.75;exitDx=0;exitDy=0;entryX=0;entryY=0.75;entryDx=0;entryDy=0;" edge="1" parent="4uhgzGvUtN5T5S1G_zmg-170" source="4uhgzGvUtN5T5S1G_zmg-243" target="4uhgzGvUtN5T5S1G_zmg-242">
          <mxGeometry relative="1" as="geometry" />
        </mxCell>
        <mxCell id="4uhgzGvUtN5T5S1G_zmg-275" value="I10" style="edgeLabel;html=1;align=center;verticalAlign=middle;resizable=0;points=[];" vertex="1" connectable="0" parent="4uhgzGvUtN5T5S1G_zmg-274">
          <mxGeometry x="-0.851" relative="1" as="geometry">
            <mxPoint as="offset" />
          </mxGeometry>
        </mxCell>
        <mxCell id="4uhgzGvUtN5T5S1G_zmg-243" value="Согласование с согласующими" style="rounded=0;whiteSpace=wrap;html=1;" vertex="1" parent="4uhgzGvUtN5T5S1G_zmg-170">
          <mxGeometry x="400" y="240" width="120" height="60" as="geometry" />
        </mxCell>
        <mxCell id="4uhgzGvUtN5T5S1G_zmg-242" value="Согласование со службой безопасности" style="rounded=0;whiteSpace=wrap;html=1;" vertex="1" parent="4uhgzGvUtN5T5S1G_zmg-170">
          <mxGeometry x="690" y="330" width="120" height="60" as="geometry" />
        </mxCell>
        <mxCell id="4uhgzGvUtN5T5S1G_zmg-244" value="" style="endArrow=classic;html=1;rounded=0;entryX=0;entryY=0.5;entryDx=0;entryDy=0;" edge="1" parent="4uhgzGvUtN5T5S1G_zmg-170" target="4uhgzGvUtN5T5S1G_zmg-241">
          <mxGeometry width="50" height="50" relative="1" as="geometry">
            <mxPoint y="200" as="sourcePoint" />
            <mxPoint x="50" y="150" as="targetPoint" />
          </mxGeometry>
        </mxCell>
        <mxCell id="4uhgzGvUtN5T5S1G_zmg-245" value="I3" style="edgeLabel;html=1;align=center;verticalAlign=middle;resizable=0;points=[];" vertex="1" connectable="0" parent="4uhgzGvUtN5T5S1G_zmg-244">
          <mxGeometry x="-0.753" y="1" relative="1" as="geometry">
            <mxPoint as="offset" />
          </mxGeometry>
        </mxCell>
        <mxCell id="4uhgzGvUtN5T5S1G_zmg-246" value="" style="endArrow=classic;html=1;rounded=0;entryX=0.358;entryY=-0.044;entryDx=0;entryDy=0;entryPerimeter=0;" edge="1" parent="4uhgzGvUtN5T5S1G_zmg-170" target="4uhgzGvUtN5T5S1G_zmg-241">
          <mxGeometry width="50" height="50" relative="1" as="geometry">
            <mxPoint x="162" y="55" as="sourcePoint" />
            <mxPoint x="160" y="170" as="targetPoint" />
          </mxGeometry>
        </mxCell>
        <mxCell id="4uhgzGvUtN5T5S1G_zmg-249" value="" style="endArrow=classic;html=1;rounded=0;entryX=0.358;entryY=-0.044;entryDx=0;entryDy=0;entryPerimeter=0;" edge="1" parent="4uhgzGvUtN5T5S1G_zmg-170">
          <mxGeometry width="50" height="50" relative="1" as="geometry">
            <mxPoint x="200" y="55" as="sourcePoint" />
            <mxPoint x="201" y="167" as="targetPoint" />
          </mxGeometry>
        </mxCell>
        <mxCell id="4uhgzGvUtN5T5S1G_zmg-250" value="" style="endArrow=classic;html=1;rounded=0;entryX=0.25;entryY=0;entryDx=0;entryDy=0;" edge="1" parent="4uhgzGvUtN5T5S1G_zmg-170">
          <mxGeometry width="50" height="50" relative="1" as="geometry">
            <mxPoint x="200" y="55" as="sourcePoint" />
            <mxPoint x="468" y="240" as="targetPoint" />
            <Array as="points">
              <mxPoint x="200" y="70" />
              <mxPoint x="468" y="70" />
            </Array>
          </mxGeometry>
        </mxCell>
        <mxCell id="4uhgzGvUtN5T5S1G_zmg-251" value="" style="endArrow=classic;html=1;rounded=0;" edge="1" parent="4uhgzGvUtN5T5S1G_zmg-170">
          <mxGeometry width="50" height="50" relative="1" as="geometry">
            <mxPoint x="200" y="54" as="sourcePoint" />
            <mxPoint x="740" y="330" as="targetPoint" />
            <Array as="points">
              <mxPoint x="200" y="70" />
              <mxPoint x="740" y="70" />
            </Array>
          </mxGeometry>
        </mxCell>
        <mxCell id="4uhgzGvUtN5T5S1G_zmg-253" value="C3" style="edgeLabel;html=1;align=center;verticalAlign=middle;resizable=0;points=[];" vertex="1" connectable="0" parent="4uhgzGvUtN5T5S1G_zmg-251">
          <mxGeometry x="-0.9828" y="-2" relative="1" as="geometry">
            <mxPoint as="offset" />
          </mxGeometry>
        </mxCell>
        <mxCell id="4uhgzGvUtN5T5S1G_zmg-254" value="" style="endArrow=classic;html=1;rounded=0;" edge="1" parent="4uhgzGvUtN5T5S1G_zmg-170">
          <mxGeometry width="50" height="50" relative="1" as="geometry">
            <mxPoint x="240" y="180" as="sourcePoint" />
            <mxPoint x="1000" y="187" as="targetPoint" />
          </mxGeometry>
        </mxCell>
        <mxCell id="4uhgzGvUtN5T5S1G_zmg-258" value="I4" style="edgeLabel;html=1;align=center;verticalAlign=middle;resizable=0;points=[];" vertex="1" connectable="0" parent="4uhgzGvUtN5T5S1G_zmg-254">
          <mxGeometry x="-0.9657" y="-4" relative="1" as="geometry">
            <mxPoint as="offset" />
          </mxGeometry>
        </mxCell>
        <mxCell id="4uhgzGvUtN5T5S1G_zmg-255" value="" style="endArrow=classic;html=1;rounded=0;" edge="1" parent="4uhgzGvUtN5T5S1G_zmg-170">
          <mxGeometry width="50" height="50" relative="1" as="geometry">
            <mxPoint x="520" y="260" as="sourcePoint" />
            <mxPoint x="1001" y="187" as="targetPoint" />
            <Array as="points">
              <mxPoint x="606" y="260" />
              <mxPoint x="606" y="184" />
            </Array>
          </mxGeometry>
        </mxCell>
        <mxCell id="4uhgzGvUtN5T5S1G_zmg-259" value="I4" style="edgeLabel;html=1;align=center;verticalAlign=middle;resizable=0;points=[];" vertex="1" connectable="0" parent="4uhgzGvUtN5T5S1G_zmg-255">
          <mxGeometry x="-0.9435" y="-1" relative="1" as="geometry">
            <mxPoint as="offset" />
          </mxGeometry>
        </mxCell>
        <mxCell id="4uhgzGvUtN5T5S1G_zmg-256" value="" style="endArrow=classic;html=1;rounded=0;" edge="1" parent="4uhgzGvUtN5T5S1G_zmg-170">
          <mxGeometry width="50" height="50" relative="1" as="geometry">
            <mxPoint x="810" y="350" as="sourcePoint" />
            <mxPoint x="998" y="187" as="targetPoint" />
            <Array as="points">
              <mxPoint x="890" y="350" />
              <mxPoint x="890" y="187" />
            </Array>
          </mxGeometry>
        </mxCell>
        <mxCell id="4uhgzGvUtN5T5S1G_zmg-260" value="I4" style="edgeLabel;html=1;align=center;verticalAlign=middle;resizable=0;points=[];" vertex="1" connectable="0" parent="4uhgzGvUtN5T5S1G_zmg-256">
          <mxGeometry x="-0.9466" relative="1" as="geometry">
            <mxPoint as="offset" />
          </mxGeometry>
        </mxCell>
        <mxCell id="4uhgzGvUtN5T5S1G_zmg-261" value="" style="endArrow=classic;html=1;rounded=0;entryX=0.75;entryY=1;entryDx=0;entryDy=0;" edge="1" parent="4uhgzGvUtN5T5S1G_zmg-170" target="4uhgzGvUtN5T5S1G_zmg-241">
          <mxGeometry width="50" height="50" relative="1" as="geometry">
            <mxPoint x="210" y="486" as="sourcePoint" />
            <mxPoint x="260" y="436" as="targetPoint" />
          </mxGeometry>
        </mxCell>
        <mxCell id="4uhgzGvUtN5T5S1G_zmg-262" value="" style="endArrow=classic;html=1;rounded=0;" edge="1" parent="4uhgzGvUtN5T5S1G_zmg-170">
          <mxGeometry width="50" height="50" relative="1" as="geometry">
            <mxPoint x="210" y="486" as="sourcePoint" />
            <mxPoint x="430" y="300" as="targetPoint" />
            <Array as="points">
              <mxPoint x="210" y="430" />
              <mxPoint x="430" y="430" />
            </Array>
          </mxGeometry>
        </mxCell>
        <mxCell id="4uhgzGvUtN5T5S1G_zmg-265" value="" style="endArrow=classic;html=1;rounded=0;entryX=0.75;entryY=1;entryDx=0;entryDy=0;" edge="1" parent="4uhgzGvUtN5T5S1G_zmg-170">
          <mxGeometry width="50" height="50" relative="1" as="geometry">
            <mxPoint x="150" y="486" as="sourcePoint" />
            <mxPoint x="150" y="230" as="targetPoint" />
          </mxGeometry>
        </mxCell>
        <mxCell id="4uhgzGvUtN5T5S1G_zmg-266" value="M3" style="edgeLabel;html=1;align=center;verticalAlign=middle;resizable=0;points=[];" vertex="1" connectable="0" parent="4uhgzGvUtN5T5S1G_zmg-265">
          <mxGeometry x="-0.9112" y="2" relative="1" as="geometry">
            <mxPoint as="offset" />
          </mxGeometry>
        </mxCell>
        <mxCell id="4uhgzGvUtN5T5S1G_zmg-267" value="" style="endArrow=classic;html=1;rounded=0;entryX=0.661;entryY=1.017;entryDx=0;entryDy=0;entryPerimeter=0;" edge="1" parent="4uhgzGvUtN5T5S1G_zmg-170" target="4uhgzGvUtN5T5S1G_zmg-243">
          <mxGeometry width="50" height="50" relative="1" as="geometry">
            <mxPoint x="480" y="486" as="sourcePoint" />
            <mxPoint x="480" y="310" as="targetPoint" />
          </mxGeometry>
        </mxCell>
        <mxCell id="4uhgzGvUtN5T5S1G_zmg-268" value="M4" style="edgeLabel;html=1;align=center;verticalAlign=middle;resizable=0;points=[];" vertex="1" connectable="0" parent="4uhgzGvUtN5T5S1G_zmg-267">
          <mxGeometry x="-0.8279" y="1" relative="1" as="geometry">
            <mxPoint as="offset" />
          </mxGeometry>
        </mxCell>
        <mxCell id="4uhgzGvUtN5T5S1G_zmg-269" value="" style="endArrow=classic;html=1;rounded=0;entryX=0.5;entryY=1;entryDx=0;entryDy=0;entryPerimeter=0;" edge="1" parent="4uhgzGvUtN5T5S1G_zmg-170" target="4uhgzGvUtN5T5S1G_zmg-242">
          <mxGeometry width="50" height="50" relative="1" as="geometry">
            <mxPoint x="750.5" y="486" as="sourcePoint" />
            <mxPoint x="750" y="400" as="targetPoint" />
          </mxGeometry>
        </mxCell>
        <mxCell id="4uhgzGvUtN5T5S1G_zmg-270" value="M5" style="edgeLabel;html=1;align=center;verticalAlign=middle;resizable=0;points=[];" vertex="1" connectable="0" parent="4uhgzGvUtN5T5S1G_zmg-269">
          <mxGeometry x="-0.8279" y="1" relative="1" as="geometry">
            <mxPoint as="offset" />
          </mxGeometry>
        </mxCell>
        <mxCell id="4uhgzGvUtN5T5S1G_zmg-276" style="edgeStyle=orthogonalEdgeStyle;rounded=0;orthogonalLoop=1;jettySize=auto;html=1;exitX=1;exitY=0.75;exitDx=0;exitDy=0;entryX=0.717;entryY=0;entryDx=0;entryDy=0;entryPerimeter=0;" edge="1" parent="4uhgzGvUtN5T5S1G_zmg-170">
          <mxGeometry relative="1" as="geometry">
            <mxPoint x="810" y="360" as="sourcePoint" />
            <mxPoint x="1000" y="372.17999999999984" as="targetPoint" />
            <Array as="points">
              <mxPoint x="810" y="372" />
            </Array>
          </mxGeometry>
        </mxCell>
        <mxCell id="4uhgzGvUtN5T5S1G_zmg-277" value="I5" style="edgeLabel;html=1;align=center;verticalAlign=middle;resizable=0;points=[];" vertex="1" connectable="0" parent="4uhgzGvUtN5T5S1G_zmg-276">
          <mxGeometry x="-0.7509" y="1" relative="1" as="geometry">
            <mxPoint as="offset" />
          </mxGeometry>
        </mxCell>
        <mxCell id="4uhgzGvUtN5T5S1G_zmg-278" value="I9 - документ, согласованный руководителем&lt;div&gt;I10 - документ, согласованный согласующими&lt;/div&gt;" style="text;html=1;align=right;verticalAlign=middle;whiteSpace=wrap;rounded=0;" vertex="1" parent="4uhgzGvUtN5T5S1G_zmg-170">
          <mxGeometry x="810" y="40" width="180" height="100" as="geometry" />
        </mxCell>
        <mxCell id="4uhgzGvUtN5T5S1G_zmg-400" value="2.1" style="text;html=1;align=center;verticalAlign=middle;whiteSpace=wrap;rounded=0;" vertex="1" parent="4uhgzGvUtN5T5S1G_zmg-170">
          <mxGeometry x="220" y="220" width="20" height="10" as="geometry" />
        </mxCell>
        <mxCell id="4uhgzGvUtN5T5S1G_zmg-402" value="2.2" style="text;html=1;align=center;verticalAlign=middle;whiteSpace=wrap;rounded=0;" vertex="1" parent="4uhgzGvUtN5T5S1G_zmg-170">
          <mxGeometry x="500" y="290" width="20" height="10" as="geometry" />
        </mxCell>
        <mxCell id="4uhgzGvUtN5T5S1G_zmg-401" value="2.3" style="text;html=1;align=center;verticalAlign=middle;whiteSpace=wrap;rounded=0;" vertex="1" parent="4uhgzGvUtN5T5S1G_zmg-170">
          <mxGeometry x="790" y="380" width="20" height="10" as="geometry" />
        </mxCell>
        <mxCell id="4uhgzGvUtN5T5S1G_zmg-237" value="" style="group" vertex="1" connectable="0" parent="1">
          <mxGeometry x="736" y="1662" width="58" height="27" as="geometry" />
        </mxCell>
        <mxCell id="4uhgzGvUtN5T5S1G_zmg-320" value="" style="group" vertex="1" connectable="0" parent="4uhgzGvUtN5T5S1G_zmg-237">
          <mxGeometry width="58" height="27" as="geometry" />
        </mxCell>
        <mxCell id="4uhgzGvUtN5T5S1G_zmg-238" value="" style="rounded=0;whiteSpace=wrap;html=1;" vertex="1" parent="4uhgzGvUtN5T5S1G_zmg-320">
          <mxGeometry width="16" height="6" as="geometry" />
        </mxCell>
        <mxCell id="4uhgzGvUtN5T5S1G_zmg-239" value="" style="rounded=0;whiteSpace=wrap;html=1;" vertex="1" parent="4uhgzGvUtN5T5S1G_zmg-320">
          <mxGeometry x="21" y="11" width="16" height="6" as="geometry" />
        </mxCell>
        <mxCell id="4uhgzGvUtN5T5S1G_zmg-240" value="" style="rounded=0;whiteSpace=wrap;html=1;" vertex="1" parent="4uhgzGvUtN5T5S1G_zmg-320">
          <mxGeometry x="42" y="21" width="16" height="6" as="geometry" />
        </mxCell>
        <mxCell id="4uhgzGvUtN5T5S1G_zmg-247" value="" style="endArrow=classic;html=1;rounded=0;entryX=0.25;entryY=0;entryDx=0;entryDy=0;" edge="1" parent="1" target="4uhgzGvUtN5T5S1G_zmg-243">
          <mxGeometry width="50" height="50" relative="1" as="geometry">
            <mxPoint x="-28" y="1695" as="sourcePoint" />
            <mxPoint x="22" y="1645" as="targetPoint" />
            <Array as="points">
              <mxPoint x="-28" y="1730" />
              <mxPoint x="240" y="1730" />
            </Array>
          </mxGeometry>
        </mxCell>
        <mxCell id="4uhgzGvUtN5T5S1G_zmg-248" value="" style="endArrow=classic;html=1;rounded=0;entryX=0.154;entryY=0.017;entryDx=0;entryDy=0;entryPerimeter=0;" edge="1" parent="1">
          <mxGeometry width="50" height="50" relative="1" as="geometry">
            <mxPoint x="-28" y="1694" as="sourcePoint" />
            <mxPoint x="517.48" y="1971.0199999999995" as="targetPoint" />
            <Array as="points">
              <mxPoint x="-28" y="1730" />
              <mxPoint x="517" y="1730" />
            </Array>
          </mxGeometry>
        </mxCell>
        <mxCell id="4uhgzGvUtN5T5S1G_zmg-252" value="C2" style="edgeLabel;html=1;align=center;verticalAlign=middle;resizable=0;points=[];" vertex="1" connectable="0" parent="4uhgzGvUtN5T5S1G_zmg-248">
          <mxGeometry x="-0.9785" y="-1" relative="1" as="geometry">
            <mxPoint as="offset" />
          </mxGeometry>
        </mxCell>
        <mxCell id="4uhgzGvUtN5T5S1G_zmg-263" value="" style="endArrow=classic;html=1;rounded=0;" edge="1" parent="1">
          <mxGeometry width="50" height="50" relative="1" as="geometry">
            <mxPoint x="20" y="2126" as="sourcePoint" />
            <mxPoint x="520" y="2030" as="targetPoint" />
            <Array as="points">
              <mxPoint x="20" y="2070" />
              <mxPoint x="520" y="2070" />
            </Array>
          </mxGeometry>
        </mxCell>
        <mxCell id="4uhgzGvUtN5T5S1G_zmg-264" value="M2" style="edgeLabel;html=1;align=center;verticalAlign=middle;resizable=0;points=[];" vertex="1" connectable="0" parent="4uhgzGvUtN5T5S1G_zmg-263">
          <mxGeometry x="-0.9558" y="2" relative="1" as="geometry">
            <mxPoint as="offset" />
          </mxGeometry>
        </mxCell>
        <mxCell id="4uhgzGvUtN5T5S1G_zmg-279" value="" style="group" vertex="1" connectable="0" parent="1">
          <mxGeometry x="-190" y="2230" width="1000" height="540" as="geometry" />
        </mxCell>
        <mxCell id="4uhgzGvUtN5T5S1G_zmg-280" value="" style="shape=process;whiteSpace=wrap;html=1;backgroundOutline=1;rotation=90;" vertex="1" parent="4uhgzGvUtN5T5S1G_zmg-279">
          <mxGeometry x="230" y="-229.99999999999994" width="540" height="1000" as="geometry" />
        </mxCell>
        <mxCell id="4uhgzGvUtN5T5S1G_zmg-281" value="" style="rounded=0;whiteSpace=wrap;html=1;" vertex="1" parent="4uhgzGvUtN5T5S1G_zmg-279">
          <mxGeometry y="5.684341886080802e-14" width="120" height="54" as="geometry" />
        </mxCell>
        <mxCell id="4uhgzGvUtN5T5S1G_zmg-282" value="ЛАА004" style="rounded=0;whiteSpace=wrap;html=1;" vertex="1" parent="4uhgzGvUtN5T5S1G_zmg-279">
          <mxGeometry x="880" y="486.00000000000006" width="120" height="54" as="geometry" />
        </mxCell>
        <mxCell id="4uhgzGvUtN5T5S1G_zmg-283" value="" style="rounded=0;whiteSpace=wrap;html=1;" vertex="1" parent="4uhgzGvUtN5T5S1G_zmg-279">
          <mxGeometry x="880" y="5.684341886080802e-14" width="120" height="54" as="geometry" />
        </mxCell>
        <mxCell id="4uhgzGvUtN5T5S1G_zmg-284" value="A1" style="rounded=0;whiteSpace=wrap;html=1;" vertex="1" parent="4uhgzGvUtN5T5S1G_zmg-279">
          <mxGeometry y="486.00000000000006" width="120" height="54" as="geometry" />
        </mxCell>
        <mxCell id="4uhgzGvUtN5T5S1G_zmg-285" value="Инициация создания документа" style="text;html=1;align=center;verticalAlign=middle;whiteSpace=wrap;rounded=0;" vertex="1" parent="4uhgzGvUtN5T5S1G_zmg-279">
          <mxGeometry x="120" y="486" width="760" height="54" as="geometry" />
        </mxCell>
        <mxCell id="4uhgzGvUtN5T5S1G_zmg-286" value="" style="rounded=0;whiteSpace=wrap;html=1;fillColor=#000000;" vertex="1" parent="4uhgzGvUtN5T5S1G_zmg-279">
          <mxGeometry x="884" y="4" width="16" height="6" as="geometry" />
        </mxCell>
        <mxCell id="4uhgzGvUtN5T5S1G_zmg-287" value="" style="rounded=0;whiteSpace=wrap;html=1;fillColor=#FFFFFF;" vertex="1" parent="4uhgzGvUtN5T5S1G_zmg-279">
          <mxGeometry x="905" y="13" width="16" height="6" as="geometry" />
        </mxCell>
        <mxCell id="4uhgzGvUtN5T5S1G_zmg-349" style="edgeStyle=orthogonalEdgeStyle;rounded=0;orthogonalLoop=1;jettySize=auto;html=1;exitX=1;exitY=0.5;exitDx=0;exitDy=0;entryX=0;entryY=0.5;entryDx=0;entryDy=0;" edge="1" parent="4uhgzGvUtN5T5S1G_zmg-279" source="4uhgzGvUtN5T5S1G_zmg-290" target="4uhgzGvUtN5T5S1G_zmg-293">
          <mxGeometry relative="1" as="geometry" />
        </mxCell>
        <mxCell id="4uhgzGvUtN5T5S1G_zmg-351" value="I11" style="edgeLabel;html=1;align=center;verticalAlign=middle;resizable=0;points=[];" vertex="1" connectable="0" parent="4uhgzGvUtN5T5S1G_zmg-349">
          <mxGeometry x="-0.8964" relative="1" as="geometry">
            <mxPoint as="offset" />
          </mxGeometry>
        </mxCell>
        <mxCell id="4uhgzGvUtN5T5S1G_zmg-290" value="Выбор шаблона нужного документа" style="rounded=0;whiteSpace=wrap;html=1;" vertex="1" parent="4uhgzGvUtN5T5S1G_zmg-279">
          <mxGeometry x="120" y="170" width="120" height="60" as="geometry" />
        </mxCell>
        <mxCell id="4uhgzGvUtN5T5S1G_zmg-350" style="edgeStyle=orthogonalEdgeStyle;rounded=0;orthogonalLoop=1;jettySize=auto;html=1;exitX=1;exitY=0.5;exitDx=0;exitDy=0;entryX=0;entryY=0.5;entryDx=0;entryDy=0;" edge="1" parent="4uhgzGvUtN5T5S1G_zmg-279" source="4uhgzGvUtN5T5S1G_zmg-293" target="4uhgzGvUtN5T5S1G_zmg-294">
          <mxGeometry relative="1" as="geometry" />
        </mxCell>
        <mxCell id="4uhgzGvUtN5T5S1G_zmg-352" value="I12" style="edgeLabel;html=1;align=center;verticalAlign=middle;resizable=0;points=[];" vertex="1" connectable="0" parent="4uhgzGvUtN5T5S1G_zmg-350">
          <mxGeometry x="-0.9151" y="-2" relative="1" as="geometry">
            <mxPoint as="offset" />
          </mxGeometry>
        </mxCell>
        <mxCell id="4uhgzGvUtN5T5S1G_zmg-293" value="Создание чернового варианта" style="rounded=0;whiteSpace=wrap;html=1;" vertex="1" parent="4uhgzGvUtN5T5S1G_zmg-279">
          <mxGeometry x="400" y="240" width="120" height="60" as="geometry" />
        </mxCell>
        <mxCell id="4uhgzGvUtN5T5S1G_zmg-294" value="Отправка на согласование" style="rounded=0;whiteSpace=wrap;html=1;" vertex="1" parent="4uhgzGvUtN5T5S1G_zmg-279">
          <mxGeometry x="690" y="330" width="120" height="60" as="geometry" />
        </mxCell>
        <mxCell id="4uhgzGvUtN5T5S1G_zmg-318" value="I11 - шаблон документа&lt;div&gt;I12 - черновой вариант&lt;/div&gt;" style="text;html=1;align=right;verticalAlign=middle;whiteSpace=wrap;rounded=0;" vertex="1" parent="4uhgzGvUtN5T5S1G_zmg-279">
          <mxGeometry x="818" y="24" width="180" height="100" as="geometry" />
        </mxCell>
        <mxCell id="4uhgzGvUtN5T5S1G_zmg-325" value="" style="endArrow=classic;html=1;rounded=0;entryX=-0.017;entryY=0.113;entryDx=0;entryDy=0;entryPerimeter=0;exitX=0.329;exitY=1.003;exitDx=0;exitDy=0;exitPerimeter=0;" edge="1" parent="4uhgzGvUtN5T5S1G_zmg-279">
          <mxGeometry width="50" height="50" relative="1" as="geometry">
            <mxPoint x="-0.96" y="180.8800000000003" as="sourcePoint" />
            <mxPoint x="119.99999999999982" y="180.0000000000002" as="targetPoint" />
          </mxGeometry>
        </mxCell>
        <mxCell id="4uhgzGvUtN5T5S1G_zmg-328" value="I1" style="edgeLabel;html=1;align=center;verticalAlign=middle;resizable=0;points=[];" vertex="1" connectable="0" parent="4uhgzGvUtN5T5S1G_zmg-325">
          <mxGeometry x="-0.8302" y="1" relative="1" as="geometry">
            <mxPoint as="offset" />
          </mxGeometry>
        </mxCell>
        <mxCell id="4uhgzGvUtN5T5S1G_zmg-326" value="" style="endArrow=classic;html=1;rounded=0;entryX=-0.017;entryY=0.113;entryDx=0;entryDy=0;entryPerimeter=0;exitX=0.329;exitY=1.003;exitDx=0;exitDy=0;exitPerimeter=0;" edge="1" parent="4uhgzGvUtN5T5S1G_zmg-279">
          <mxGeometry width="50" height="50" relative="1" as="geometry">
            <mxPoint x="-0.960000000000008" y="220.8800000000001" as="sourcePoint" />
            <mxPoint x="119.9999999999998" y="220" as="targetPoint" />
          </mxGeometry>
        </mxCell>
        <mxCell id="4uhgzGvUtN5T5S1G_zmg-327" value="" style="endArrow=classic;html=1;rounded=0;entryX=-0.017;entryY=0.113;entryDx=0;entryDy=0;entryPerimeter=0;exitX=0.329;exitY=1.003;exitDx=0;exitDy=0;exitPerimeter=0;" edge="1" parent="4uhgzGvUtN5T5S1G_zmg-279">
          <mxGeometry width="50" height="50" relative="1" as="geometry">
            <mxPoint x="-0.960000000000008" y="200.4400000000005" as="sourcePoint" />
            <mxPoint x="119.9999999999998" y="199.5600000000004" as="targetPoint" />
          </mxGeometry>
        </mxCell>
        <mxCell id="4uhgzGvUtN5T5S1G_zmg-329" value="I4" style="edgeLabel;html=1;align=center;verticalAlign=middle;resizable=0;points=[];" vertex="1" connectable="0" parent="4uhgzGvUtN5T5S1G_zmg-327">
          <mxGeometry x="-0.8012" y="3" relative="1" as="geometry">
            <mxPoint as="offset" />
          </mxGeometry>
        </mxCell>
        <mxCell id="4uhgzGvUtN5T5S1G_zmg-332" value="" style="endArrow=classic;html=1;rounded=0;entryX=0.02;entryY=0.859;entryDx=0;entryDy=0;entryPerimeter=0;exitX=0.329;exitY=1.003;exitDx=0;exitDy=0;exitPerimeter=0;" edge="1" parent="4uhgzGvUtN5T5S1G_zmg-279" target="4uhgzGvUtN5T5S1G_zmg-293">
          <mxGeometry width="50" height="50" relative="1" as="geometry">
            <mxPoint x="-0.47999999999998977" y="220.8800000000001" as="sourcePoint" />
            <mxPoint x="120.4799999999998" y="220" as="targetPoint" />
            <Array as="points">
              <mxPoint x="10" y="221" />
              <mxPoint x="60" y="221" />
              <mxPoint x="60" y="292" />
            </Array>
          </mxGeometry>
        </mxCell>
        <mxCell id="4uhgzGvUtN5T5S1G_zmg-334" value="I2" style="edgeLabel;html=1;align=center;verticalAlign=middle;resizable=0;points=[];" vertex="1" connectable="0" parent="4uhgzGvUtN5T5S1G_zmg-332">
          <mxGeometry x="-0.9734" y="1" relative="1" as="geometry">
            <mxPoint as="offset" />
          </mxGeometry>
        </mxCell>
        <mxCell id="4uhgzGvUtN5T5S1G_zmg-335" value="" style="endArrow=classic;html=1;rounded=0;" edge="1" parent="4uhgzGvUtN5T5S1G_zmg-279" target="4uhgzGvUtN5T5S1G_zmg-293">
          <mxGeometry width="50" height="50" relative="1" as="geometry">
            <mxPoint x="460" y="54" as="sourcePoint" />
            <mxPoint x="510" y="4" as="targetPoint" />
          </mxGeometry>
        </mxCell>
        <mxCell id="4uhgzGvUtN5T5S1G_zmg-336" value="" style="endArrow=classic;html=1;rounded=0;entryX=0.433;entryY=0.041;entryDx=0;entryDy=0;entryPerimeter=0;" edge="1" parent="4uhgzGvUtN5T5S1G_zmg-279" target="4uhgzGvUtN5T5S1G_zmg-290">
          <mxGeometry width="50" height="50" relative="1" as="geometry">
            <mxPoint x="459.57" y="54" as="sourcePoint" />
            <mxPoint x="459.57" y="240" as="targetPoint" />
            <Array as="points">
              <mxPoint x="460" y="120" />
              <mxPoint x="172" y="120" />
            </Array>
          </mxGeometry>
        </mxCell>
        <mxCell id="4uhgzGvUtN5T5S1G_zmg-337" value="" style="endArrow=classic;html=1;rounded=0;entryX=0.25;entryY=0;entryDx=0;entryDy=0;" edge="1" parent="4uhgzGvUtN5T5S1G_zmg-279" target="4uhgzGvUtN5T5S1G_zmg-294">
          <mxGeometry width="50" height="50" relative="1" as="geometry">
            <mxPoint x="459.57" y="54" as="sourcePoint" />
            <mxPoint x="459.57" y="240" as="targetPoint" />
            <Array as="points">
              <mxPoint x="460" y="120" />
              <mxPoint x="720" y="120" />
            </Array>
          </mxGeometry>
        </mxCell>
        <mxCell id="4uhgzGvUtN5T5S1G_zmg-338" value="C1" style="edgeLabel;html=1;align=center;verticalAlign=middle;resizable=0;points=[];" vertex="1" connectable="0" parent="4uhgzGvUtN5T5S1G_zmg-337">
          <mxGeometry x="-0.9669" y="-2" relative="1" as="geometry">
            <mxPoint as="offset" />
          </mxGeometry>
        </mxCell>
        <mxCell id="4uhgzGvUtN5T5S1G_zmg-339" value="" style="endArrow=classic;html=1;rounded=0;entryX=0.164;entryY=0.99;entryDx=0;entryDy=0;entryPerimeter=0;" edge="1" parent="4uhgzGvUtN5T5S1G_zmg-279" target="4uhgzGvUtN5T5S1G_zmg-293">
          <mxGeometry width="50" height="50" relative="1" as="geometry">
            <mxPoint x="420" y="486" as="sourcePoint" />
            <mxPoint x="470" y="436" as="targetPoint" />
          </mxGeometry>
        </mxCell>
        <mxCell id="4uhgzGvUtN5T5S1G_zmg-340" value="" style="endArrow=classic;html=1;rounded=0;entryX=0.167;entryY=1;entryDx=0;entryDy=0;entryPerimeter=0;" edge="1" parent="4uhgzGvUtN5T5S1G_zmg-279" target="4uhgzGvUtN5T5S1G_zmg-290">
          <mxGeometry width="50" height="50" relative="1" as="geometry">
            <mxPoint x="420" y="486" as="sourcePoint" />
            <mxPoint x="420" y="299" as="targetPoint" />
            <Array as="points">
              <mxPoint x="420" y="440" />
              <mxPoint x="140" y="440" />
            </Array>
          </mxGeometry>
        </mxCell>
        <mxCell id="4uhgzGvUtN5T5S1G_zmg-341" value="" style="endArrow=classic;html=1;rounded=0;entryX=0.19;entryY=1.041;entryDx=0;entryDy=0;entryPerimeter=0;" edge="1" parent="4uhgzGvUtN5T5S1G_zmg-279" target="4uhgzGvUtN5T5S1G_zmg-294">
          <mxGeometry width="50" height="50" relative="1" as="geometry">
            <mxPoint x="420" y="486" as="sourcePoint" />
            <mxPoint x="420" y="299" as="targetPoint" />
            <Array as="points">
              <mxPoint x="420" y="440" />
              <mxPoint x="713" y="440" />
            </Array>
          </mxGeometry>
        </mxCell>
        <mxCell id="4uhgzGvUtN5T5S1G_zmg-342" value="M2" style="edgeLabel;html=1;align=center;verticalAlign=middle;resizable=0;points=[];" vertex="1" connectable="0" parent="4uhgzGvUtN5T5S1G_zmg-341">
          <mxGeometry x="-0.9433" y="1" relative="1" as="geometry">
            <mxPoint as="offset" />
          </mxGeometry>
        </mxCell>
        <mxCell id="4uhgzGvUtN5T5S1G_zmg-343" value="" style="endArrow=classic;html=1;rounded=0;entryX=0.164;entryY=0.99;entryDx=0;entryDy=0;entryPerimeter=0;" edge="1" parent="4uhgzGvUtN5T5S1G_zmg-279">
          <mxGeometry width="50" height="50" relative="1" as="geometry">
            <mxPoint x="499.57" y="487" as="sourcePoint" />
            <mxPoint x="499.57" y="300" as="targetPoint" />
          </mxGeometry>
        </mxCell>
        <mxCell id="4uhgzGvUtN5T5S1G_zmg-344" value="" style="endArrow=classic;html=1;rounded=0;entryX=0.667;entryY=1;entryDx=0;entryDy=0;entryPerimeter=0;" edge="1" parent="4uhgzGvUtN5T5S1G_zmg-279" target="4uhgzGvUtN5T5S1G_zmg-294">
          <mxGeometry width="50" height="50" relative="1" as="geometry">
            <mxPoint x="499.57" y="486" as="sourcePoint" />
            <mxPoint x="499.57" y="299" as="targetPoint" />
            <Array as="points">
              <mxPoint x="500" y="420" />
              <mxPoint x="770" y="420" />
            </Array>
          </mxGeometry>
        </mxCell>
        <mxCell id="4uhgzGvUtN5T5S1G_zmg-345" value="" style="endArrow=classic;html=1;rounded=0;entryX=0.802;entryY=1.012;entryDx=0;entryDy=0;entryPerimeter=0;" edge="1" parent="4uhgzGvUtN5T5S1G_zmg-279" target="4uhgzGvUtN5T5S1G_zmg-290">
          <mxGeometry width="50" height="50" relative="1" as="geometry">
            <mxPoint x="499.57" y="486" as="sourcePoint" />
            <mxPoint x="499.57" y="299" as="targetPoint" />
            <Array as="points">
              <mxPoint x="500" y="420" />
              <mxPoint x="216" y="420" />
            </Array>
          </mxGeometry>
        </mxCell>
        <mxCell id="4uhgzGvUtN5T5S1G_zmg-346" value="M1" style="edgeLabel;html=1;align=center;verticalAlign=middle;resizable=0;points=[];" vertex="1" connectable="0" parent="4uhgzGvUtN5T5S1G_zmg-345">
          <mxGeometry x="-0.9562" y="1" relative="1" as="geometry">
            <mxPoint as="offset" />
          </mxGeometry>
        </mxCell>
        <mxCell id="4uhgzGvUtN5T5S1G_zmg-347" style="edgeStyle=orthogonalEdgeStyle;rounded=0;orthogonalLoop=1;jettySize=auto;html=1;exitX=1;exitY=0.75;exitDx=0;exitDy=0;entryX=0.682;entryY=0.002;entryDx=0;entryDy=0;entryPerimeter=0;" edge="1" parent="4uhgzGvUtN5T5S1G_zmg-279">
          <mxGeometry relative="1" as="geometry">
            <mxPoint x="810" y="363.37" as="sourcePoint" />
            <mxPoint x="998" y="356.6500000000002" as="targetPoint" />
            <Array as="points">
              <mxPoint x="810" y="356.37" />
            </Array>
          </mxGeometry>
        </mxCell>
        <mxCell id="4uhgzGvUtN5T5S1G_zmg-348" value="I3" style="edgeLabel;html=1;align=center;verticalAlign=middle;resizable=0;points=[];" vertex="1" connectable="0" parent="4uhgzGvUtN5T5S1G_zmg-347">
          <mxGeometry x="-0.8671" y="1" relative="1" as="geometry">
            <mxPoint as="offset" />
          </mxGeometry>
        </mxCell>
        <mxCell id="4uhgzGvUtN5T5S1G_zmg-397" value="1.1" style="text;html=1;align=center;verticalAlign=middle;whiteSpace=wrap;rounded=0;" vertex="1" parent="4uhgzGvUtN5T5S1G_zmg-279">
          <mxGeometry x="220" y="220" width="20" height="10" as="geometry" />
        </mxCell>
        <mxCell id="4uhgzGvUtN5T5S1G_zmg-399" value="1.2" style="text;html=1;align=center;verticalAlign=middle;whiteSpace=wrap;rounded=0;" vertex="1" parent="4uhgzGvUtN5T5S1G_zmg-279">
          <mxGeometry x="500" y="290" width="20" height="10" as="geometry" />
        </mxCell>
        <mxCell id="4uhgzGvUtN5T5S1G_zmg-398" value="1.3" style="text;html=1;align=center;verticalAlign=middle;whiteSpace=wrap;rounded=0;" vertex="1" parent="4uhgzGvUtN5T5S1G_zmg-279">
          <mxGeometry x="790" y="380" width="20" height="10" as="geometry" />
        </mxCell>
        <mxCell id="4uhgzGvUtN5T5S1G_zmg-321" value="" style="group" vertex="1" connectable="0" parent="1">
          <mxGeometry x="737" y="2253" width="58" height="27" as="geometry" />
        </mxCell>
        <mxCell id="4uhgzGvUtN5T5S1G_zmg-322" value="" style="rounded=0;whiteSpace=wrap;html=1;" vertex="1" parent="4uhgzGvUtN5T5S1G_zmg-321">
          <mxGeometry width="16" height="6" as="geometry" />
        </mxCell>
        <mxCell id="4uhgzGvUtN5T5S1G_zmg-323" value="" style="rounded=0;whiteSpace=wrap;html=1;" vertex="1" parent="4uhgzGvUtN5T5S1G_zmg-321">
          <mxGeometry x="21" y="11" width="16" height="6" as="geometry" />
        </mxCell>
        <mxCell id="4uhgzGvUtN5T5S1G_zmg-324" value="" style="rounded=0;whiteSpace=wrap;html=1;" vertex="1" parent="4uhgzGvUtN5T5S1G_zmg-321">
          <mxGeometry x="42" y="21" width="16" height="6" as="geometry" />
        </mxCell>
        <mxCell id="4uhgzGvUtN5T5S1G_zmg-354" value="" style="group" vertex="1" connectable="0" parent="1">
          <mxGeometry x="-190" y="2870" width="1000" height="540" as="geometry" />
        </mxCell>
        <mxCell id="4uhgzGvUtN5T5S1G_zmg-355" value="" style="shape=process;whiteSpace=wrap;html=1;backgroundOutline=1;rotation=90;" vertex="1" parent="4uhgzGvUtN5T5S1G_zmg-354">
          <mxGeometry x="230" y="-229.99999999999994" width="540" height="1000" as="geometry" />
        </mxCell>
        <mxCell id="4uhgzGvUtN5T5S1G_zmg-356" value="" style="rounded=0;whiteSpace=wrap;html=1;" vertex="1" parent="4uhgzGvUtN5T5S1G_zmg-354">
          <mxGeometry y="5.684341886080802e-14" width="120" height="54" as="geometry" />
        </mxCell>
        <mxCell id="4uhgzGvUtN5T5S1G_zmg-357" value="ЛАА001" style="rounded=0;whiteSpace=wrap;html=1;" vertex="1" parent="4uhgzGvUtN5T5S1G_zmg-354">
          <mxGeometry x="880" y="486.00000000000006" width="120" height="54" as="geometry" />
        </mxCell>
        <mxCell id="4uhgzGvUtN5T5S1G_zmg-358" value="" style="rounded=0;whiteSpace=wrap;html=1;" vertex="1" parent="4uhgzGvUtN5T5S1G_zmg-354">
          <mxGeometry x="880" y="5.684341886080802e-14" width="120" height="54" as="geometry" />
        </mxCell>
        <mxCell id="4uhgzGvUtN5T5S1G_zmg-359" value="A-0" style="rounded=0;whiteSpace=wrap;html=1;" vertex="1" parent="4uhgzGvUtN5T5S1G_zmg-354">
          <mxGeometry y="486.00000000000006" width="120" height="54" as="geometry" />
        </mxCell>
        <mxCell id="4uhgzGvUtN5T5S1G_zmg-360" value="" style="rounded=0;whiteSpace=wrap;html=1;fillColor=#000000;" vertex="1" parent="4uhgzGvUtN5T5S1G_zmg-354">
          <mxGeometry x="910" y="12" width="60" height="30" as="geometry" />
        </mxCell>
        <mxCell id="4uhgzGvUtN5T5S1G_zmg-361" value="Делопроизводство" style="text;html=1;align=center;verticalAlign=middle;whiteSpace=wrap;rounded=0;" vertex="1" parent="4uhgzGvUtN5T5S1G_zmg-354">
          <mxGeometry x="120" y="486" width="760" height="54" as="geometry" />
        </mxCell>
        <mxCell id="4uhgzGvUtN5T5S1G_zmg-363" value="" style="endArrow=classic;html=1;rounded=0;exitX=0.461;exitY=0.999;exitDx=0;exitDy=0;exitPerimeter=0;entryX=0.004;entryY=0.36;entryDx=0;entryDy=0;entryPerimeter=0;" edge="1" parent="4uhgzGvUtN5T5S1G_zmg-354">
          <mxGeometry width="50" height="50" relative="1" as="geometry">
            <mxPoint y="310.00000000000006" as="sourcePoint" />
            <mxPoint x="370" y="310.00000000000006" as="targetPoint" />
          </mxGeometry>
        </mxCell>
        <mxCell id="4uhgzGvUtN5T5S1G_zmg-364" value="Необходимость в создании документа" style="edgeLabel;html=1;align=center;verticalAlign=middle;resizable=0;points=[];" vertex="1" connectable="0" parent="4uhgzGvUtN5T5S1G_zmg-363">
          <mxGeometry x="0.0108" relative="1" as="geometry">
            <mxPoint as="offset" />
          </mxGeometry>
        </mxCell>
        <mxCell id="4uhgzGvUtN5T5S1G_zmg-365" value="" style="endArrow=classic;html=1;rounded=0;exitX=0.461;exitY=0.999;exitDx=0;exitDy=0;exitPerimeter=0;entryX=0.004;entryY=0.36;entryDx=0;entryDy=0;entryPerimeter=0;" edge="1" parent="4uhgzGvUtN5T5S1G_zmg-354">
          <mxGeometry width="50" height="50" relative="1" as="geometry">
            <mxPoint y="230.00000000000006" as="sourcePoint" />
            <mxPoint x="370" y="230.00000000000006" as="targetPoint" />
          </mxGeometry>
        </mxCell>
        <mxCell id="4uhgzGvUtN5T5S1G_zmg-366" value="&amp;nbsp;Исходные данные" style="edgeLabel;html=1;align=center;verticalAlign=middle;resizable=0;points=[];" vertex="1" connectable="0" parent="4uhgzGvUtN5T5S1G_zmg-365">
          <mxGeometry x="-0.0216" y="3" relative="1" as="geometry">
            <mxPoint as="offset" />
          </mxGeometry>
        </mxCell>
        <mxCell id="4uhgzGvUtN5T5S1G_zmg-379" value="" style="endArrow=classic;html=1;rounded=0;" edge="1" parent="4uhgzGvUtN5T5S1G_zmg-354" target="4uhgzGvUtN5T5S1G_zmg-355">
          <mxGeometry width="50" height="50" relative="1" as="geometry">
            <mxPoint x="630" y="270.00000000000006" as="sourcePoint" />
            <mxPoint x="680" y="220.00000000000006" as="targetPoint" />
          </mxGeometry>
        </mxCell>
        <mxCell id="4uhgzGvUtN5T5S1G_zmg-380" value="&amp;nbsp;Зарегистрированный, утверждённый документ" style="edgeLabel;html=1;align=center;verticalAlign=middle;resizable=0;points=[];" vertex="1" connectable="0" parent="4uhgzGvUtN5T5S1G_zmg-379">
          <mxGeometry x="0.0054" y="-2" relative="1" as="geometry">
            <mxPoint as="offset" />
          </mxGeometry>
        </mxCell>
        <mxCell id="4uhgzGvUtN5T5S1G_zmg-395" value="Делопроизводство" style="rounded=1;whiteSpace=wrap;html=1;" vertex="1" parent="4uhgzGvUtN5T5S1G_zmg-354">
          <mxGeometry x="370" y="192.5" width="260" height="155" as="geometry" />
        </mxCell>
        <mxCell id="4uhgzGvUtN5T5S1G_zmg-411" value="" style="group" vertex="1" connectable="0" parent="1">
          <mxGeometry x="-190" y="3490" width="1000" height="540" as="geometry" />
        </mxCell>
        <mxCell id="4uhgzGvUtN5T5S1G_zmg-412" value="" style="group;rounded=0;" vertex="1" connectable="0" parent="4uhgzGvUtN5T5S1G_zmg-411">
          <mxGeometry width="1000" height="540" as="geometry" />
        </mxCell>
        <mxCell id="4uhgzGvUtN5T5S1G_zmg-413" value="" style="shape=process;whiteSpace=wrap;html=1;backgroundOutline=1;rotation=90;" vertex="1" parent="4uhgzGvUtN5T5S1G_zmg-412">
          <mxGeometry x="230" y="-229.99999999999994" width="540" height="1000" as="geometry" />
        </mxCell>
        <mxCell id="4uhgzGvUtN5T5S1G_zmg-414" value="" style="rounded=0;whiteSpace=wrap;html=1;" vertex="1" parent="4uhgzGvUtN5T5S1G_zmg-412">
          <mxGeometry y="5.684341886080802e-14" width="120" height="54" as="geometry" />
        </mxCell>
        <mxCell id="4uhgzGvUtN5T5S1G_zmg-415" value="ЛАА002" style="rounded=0;whiteSpace=wrap;html=1;" vertex="1" parent="4uhgzGvUtN5T5S1G_zmg-412">
          <mxGeometry x="880" y="486.00000000000006" width="120" height="54" as="geometry" />
        </mxCell>
        <mxCell id="4uhgzGvUtN5T5S1G_zmg-416" value="" style="rounded=0;whiteSpace=wrap;html=1;" vertex="1" parent="4uhgzGvUtN5T5S1G_zmg-412">
          <mxGeometry x="880" y="5.684341886080802e-14" width="120" height="54" as="geometry" />
        </mxCell>
        <mxCell id="4uhgzGvUtN5T5S1G_zmg-417" value="A0" style="rounded=0;whiteSpace=wrap;html=1;" vertex="1" parent="4uhgzGvUtN5T5S1G_zmg-412">
          <mxGeometry y="486.00000000000006" width="120" height="54" as="geometry" />
        </mxCell>
        <mxCell id="4uhgzGvUtN5T5S1G_zmg-418" value="Делопроизводство" style="text;html=1;align=center;verticalAlign=middle;whiteSpace=wrap;rounded=0;" vertex="1" parent="4uhgzGvUtN5T5S1G_zmg-412">
          <mxGeometry x="120" y="486" width="760" height="54" as="geometry" />
        </mxCell>
        <mxCell id="4uhgzGvUtN5T5S1G_zmg-554" style="edgeStyle=orthogonalEdgeStyle;rounded=0;orthogonalLoop=1;jettySize=auto;html=1;exitX=1;exitY=0.5;exitDx=0;exitDy=0;" edge="1" parent="4uhgzGvUtN5T5S1G_zmg-412" source="4uhgzGvUtN5T5S1G_zmg-421" target="4uhgzGvUtN5T5S1G_zmg-437">
          <mxGeometry relative="1" as="geometry" />
        </mxCell>
        <mxCell id="4uhgzGvUtN5T5S1G_zmg-555" value="Черновой&amp;nbsp;&lt;div&gt;вариант&lt;/div&gt;" style="edgeLabel;html=1;align=center;verticalAlign=middle;resizable=0;points=[];" vertex="1" connectable="0" parent="4uhgzGvUtN5T5S1G_zmg-554">
          <mxGeometry x="-0.38" y="1" relative="1" as="geometry">
            <mxPoint x="9" y="6" as="offset" />
          </mxGeometry>
        </mxCell>
        <mxCell id="4uhgzGvUtN5T5S1G_zmg-421" value="Инициация создания документа" style="rounded=1;whiteSpace=wrap;html=1;" vertex="1" parent="4uhgzGvUtN5T5S1G_zmg-412">
          <mxGeometry x="90" y="119" width="120" height="60" as="geometry" />
        </mxCell>
        <mxCell id="4uhgzGvUtN5T5S1G_zmg-422" value="" style="rounded=0;whiteSpace=wrap;html=1;" vertex="1" parent="4uhgzGvUtN5T5S1G_zmg-412">
          <mxGeometry x="884" y="4" width="16" height="6" as="geometry" />
        </mxCell>
        <mxCell id="4uhgzGvUtN5T5S1G_zmg-423" value="" style="rounded=0;whiteSpace=wrap;html=1;" vertex="1" parent="4uhgzGvUtN5T5S1G_zmg-412">
          <mxGeometry x="905" y="13" width="16" height="6" as="geometry" />
        </mxCell>
        <mxCell id="4uhgzGvUtN5T5S1G_zmg-562" style="edgeStyle=orthogonalEdgeStyle;rounded=0;orthogonalLoop=1;jettySize=auto;html=1;exitX=1;exitY=0.5;exitDx=0;exitDy=0;entryX=0.75;entryY=0;entryDx=0;entryDy=0;" edge="1" parent="4uhgzGvUtN5T5S1G_zmg-412">
          <mxGeometry relative="1" as="geometry">
            <mxPoint x="850" y="380" as="sourcePoint" />
            <mxPoint x="1000" y="395" as="targetPoint" />
            <Array as="points">
              <mxPoint x="850" y="395" />
            </Array>
          </mxGeometry>
        </mxCell>
        <mxCell id="4uhgzGvUtN5T5S1G_zmg-563" value="Зарегистрированный,&amp;nbsp;&lt;div&gt;утверждённый&amp;nbsp;&lt;/div&gt;&lt;div&gt;документ&lt;/div&gt;" style="edgeLabel;html=1;align=center;verticalAlign=middle;resizable=0;points=[];" vertex="1" connectable="0" parent="4uhgzGvUtN5T5S1G_zmg-562">
          <mxGeometry x="-0.2364" relative="1" as="geometry">
            <mxPoint x="23" as="offset" />
          </mxGeometry>
        </mxCell>
        <mxCell id="4uhgzGvUtN5T5S1G_zmg-565" style="edgeStyle=orthogonalEdgeStyle;rounded=0;orthogonalLoop=1;jettySize=auto;html=1;exitX=0.5;exitY=1;exitDx=0;exitDy=0;entryX=0.5;entryY=1;entryDx=0;entryDy=0;" edge="1" parent="4uhgzGvUtN5T5S1G_zmg-412" source="4uhgzGvUtN5T5S1G_zmg-424" target="4uhgzGvUtN5T5S1G_zmg-484">
          <mxGeometry relative="1" as="geometry" />
        </mxCell>
        <mxCell id="4uhgzGvUtN5T5S1G_zmg-566" value="Контроль за исполнением" style="edgeLabel;html=1;align=center;verticalAlign=middle;resizable=0;points=[];" vertex="1" connectable="0" parent="4uhgzGvUtN5T5S1G_zmg-565">
          <mxGeometry x="-0.1172" y="2" relative="1" as="geometry">
            <mxPoint as="offset" />
          </mxGeometry>
        </mxCell>
        <mxCell id="4uhgzGvUtN5T5S1G_zmg-424" value="Исполнение" style="rounded=1;whiteSpace=wrap;html=1;" vertex="1" parent="4uhgzGvUtN5T5S1G_zmg-412">
          <mxGeometry x="730" y="360" width="120" height="60" as="geometry" />
        </mxCell>
        <mxCell id="4uhgzGvUtN5T5S1G_zmg-560" style="edgeStyle=orthogonalEdgeStyle;rounded=0;orthogonalLoop=1;jettySize=auto;html=1;exitX=1;exitY=0.5;exitDx=0;exitDy=0;" edge="1" parent="4uhgzGvUtN5T5S1G_zmg-412" source="4uhgzGvUtN5T5S1G_zmg-429" target="4uhgzGvUtN5T5S1G_zmg-424">
          <mxGeometry relative="1" as="geometry" />
        </mxCell>
        <mxCell id="4uhgzGvUtN5T5S1G_zmg-561" value="Зарегистрированный&amp;nbsp;&lt;div&gt;документ&lt;/div&gt;" style="edgeLabel;html=1;align=center;verticalAlign=middle;resizable=0;points=[];" vertex="1" connectable="0" parent="4uhgzGvUtN5T5S1G_zmg-560">
          <mxGeometry x="-0.5" y="1" relative="1" as="geometry">
            <mxPoint x="39" y="5" as="offset" />
          </mxGeometry>
        </mxCell>
        <mxCell id="4uhgzGvUtN5T5S1G_zmg-623" style="edgeStyle=orthogonalEdgeStyle;rounded=0;orthogonalLoop=1;jettySize=auto;html=1;exitX=0.5;exitY=0;exitDx=0;exitDy=0;entryX=0.5;entryY=1;entryDx=0;entryDy=0;" edge="1" parent="4uhgzGvUtN5T5S1G_zmg-412" source="4uhgzGvUtN5T5S1G_zmg-429" target="4uhgzGvUtN5T5S1G_zmg-622">
          <mxGeometry relative="1" as="geometry" />
        </mxCell>
        <mxCell id="4uhgzGvUtN5T5S1G_zmg-630" value="Регистрационный номер" style="edgeLabel;html=1;align=center;verticalAlign=middle;resizable=0;points=[];" vertex="1" connectable="0" parent="4uhgzGvUtN5T5S1G_zmg-623">
          <mxGeometry x="0.0922" y="2" relative="1" as="geometry">
            <mxPoint as="offset" />
          </mxGeometry>
        </mxCell>
        <mxCell id="4uhgzGvUtN5T5S1G_zmg-429" value="Регистрация" style="rounded=1;whiteSpace=wrap;html=1;" vertex="1" parent="4uhgzGvUtN5T5S1G_zmg-412">
          <mxGeometry x="570" y="300" width="120" height="60" as="geometry" />
        </mxCell>
        <mxCell id="4uhgzGvUtN5T5S1G_zmg-558" style="edgeStyle=orthogonalEdgeStyle;rounded=0;orthogonalLoop=1;jettySize=auto;html=1;exitX=1;exitY=0.5;exitDx=0;exitDy=0;entryX=0;entryY=0.5;entryDx=0;entryDy=0;" edge="1" parent="4uhgzGvUtN5T5S1G_zmg-412" source="4uhgzGvUtN5T5S1G_zmg-432" target="4uhgzGvUtN5T5S1G_zmg-429">
          <mxGeometry relative="1" as="geometry" />
        </mxCell>
        <mxCell id="4uhgzGvUtN5T5S1G_zmg-559" value="Подписанный&amp;nbsp;&lt;div&gt;документ&lt;/div&gt;" style="edgeLabel;html=1;align=center;verticalAlign=middle;resizable=0;points=[];" vertex="1" connectable="0" parent="4uhgzGvUtN5T5S1G_zmg-558">
          <mxGeometry x="-0.44" y="1" relative="1" as="geometry">
            <mxPoint x="29" y="2" as="offset" />
          </mxGeometry>
        </mxCell>
        <mxCell id="4uhgzGvUtN5T5S1G_zmg-432" value="Подписание" style="rounded=1;whiteSpace=wrap;html=1;" vertex="1" parent="4uhgzGvUtN5T5S1G_zmg-412">
          <mxGeometry x="410" y="240" width="120" height="60" as="geometry" />
        </mxCell>
        <mxCell id="4uhgzGvUtN5T5S1G_zmg-556" style="edgeStyle=orthogonalEdgeStyle;rounded=0;orthogonalLoop=1;jettySize=auto;html=1;exitX=1;exitY=0.5;exitDx=0;exitDy=0;entryX=0;entryY=0.5;entryDx=0;entryDy=0;" edge="1" parent="4uhgzGvUtN5T5S1G_zmg-412" source="4uhgzGvUtN5T5S1G_zmg-437" target="4uhgzGvUtN5T5S1G_zmg-432">
          <mxGeometry relative="1" as="geometry" />
        </mxCell>
        <mxCell id="4uhgzGvUtN5T5S1G_zmg-557" value="Согласованный&lt;div&gt;документ&lt;/div&gt;" style="edgeLabel;html=1;align=center;verticalAlign=middle;resizable=0;points=[];" vertex="1" connectable="0" parent="4uhgzGvUtN5T5S1G_zmg-556">
          <mxGeometry x="-0.2079" y="-2" relative="1" as="geometry">
            <mxPoint x="32" y="-10" as="offset" />
          </mxGeometry>
        </mxCell>
        <mxCell id="4uhgzGvUtN5T5S1G_zmg-437" value="Согласование" style="rounded=1;whiteSpace=wrap;html=1;" vertex="1" parent="4uhgzGvUtN5T5S1G_zmg-412">
          <mxGeometry x="250" y="179" width="120" height="60" as="geometry" />
        </mxCell>
        <mxCell id="4uhgzGvUtN5T5S1G_zmg-472" value="1" style="text;html=1;align=center;verticalAlign=middle;whiteSpace=wrap;rounded=0;" vertex="1" parent="4uhgzGvUtN5T5S1G_zmg-412">
          <mxGeometry x="190" y="159" width="20" height="20" as="geometry" />
        </mxCell>
        <mxCell id="4uhgzGvUtN5T5S1G_zmg-473" value="2" style="text;html=1;align=center;verticalAlign=middle;whiteSpace=wrap;rounded=0;" vertex="1" parent="4uhgzGvUtN5T5S1G_zmg-412">
          <mxGeometry x="350" y="219" width="20" height="20" as="geometry" />
        </mxCell>
        <mxCell id="4uhgzGvUtN5T5S1G_zmg-474" value="3" style="text;html=1;align=center;verticalAlign=middle;whiteSpace=wrap;rounded=0;" vertex="1" parent="4uhgzGvUtN5T5S1G_zmg-412">
          <mxGeometry x="510" y="280" width="20" height="20" as="geometry" />
        </mxCell>
        <mxCell id="4uhgzGvUtN5T5S1G_zmg-475" value="4" style="text;html=1;align=center;verticalAlign=middle;whiteSpace=wrap;rounded=0;" vertex="1" parent="4uhgzGvUtN5T5S1G_zmg-412">
          <mxGeometry x="670" y="340" width="20" height="20" as="geometry" />
        </mxCell>
        <mxCell id="4uhgzGvUtN5T5S1G_zmg-476" value="5" style="text;html=1;align=center;verticalAlign=middle;whiteSpace=wrap;rounded=0;" vertex="1" parent="4uhgzGvUtN5T5S1G_zmg-412">
          <mxGeometry x="830" y="400" width="20" height="20" as="geometry" />
        </mxCell>
        <mxCell id="4uhgzGvUtN5T5S1G_zmg-542" style="edgeStyle=orthogonalEdgeStyle;rounded=0;orthogonalLoop=1;jettySize=auto;html=1;exitX=0.5;exitY=0;exitDx=0;exitDy=0;" edge="1" parent="4uhgzGvUtN5T5S1G_zmg-412" source="4uhgzGvUtN5T5S1G_zmg-484" target="4uhgzGvUtN5T5S1G_zmg-421">
          <mxGeometry relative="1" as="geometry" />
        </mxCell>
        <mxCell id="4uhgzGvUtN5T5S1G_zmg-553" value="&lt;font style=&quot;font-size: 9px;&quot;&gt;Необходимость&lt;/font&gt;&lt;div&gt;&lt;font style=&quot;font-size: 9px;&quot;&gt;в создании&amp;nbsp;&lt;/font&gt;&lt;/div&gt;&lt;div&gt;&lt;font style=&quot;font-size: 9px;&quot;&gt;документа&lt;/font&gt;&lt;/div&gt;" style="edgeLabel;html=1;align=center;verticalAlign=middle;resizable=0;points=[];" vertex="1" connectable="0" parent="4uhgzGvUtN5T5S1G_zmg-542">
          <mxGeometry x="-0.3302" y="2" relative="1" as="geometry">
            <mxPoint x="-39" y="2" as="offset" />
          </mxGeometry>
        </mxCell>
        <mxCell id="4uhgzGvUtN5T5S1G_zmg-551" value="" style="endArrow=classic;html=1;rounded=0;entryX=0.008;entryY=0.617;entryDx=0;entryDy=0;entryPerimeter=0;" edge="1" parent="4uhgzGvUtN5T5S1G_zmg-412" target="4uhgzGvUtN5T5S1G_zmg-421">
          <mxGeometry width="50" height="50" relative="1" as="geometry">
            <mxPoint y="155" as="sourcePoint" />
            <mxPoint x="50" y="105" as="targetPoint" />
          </mxGeometry>
        </mxCell>
        <mxCell id="4uhgzGvUtN5T5S1G_zmg-552" value="&lt;div&gt;Входные&lt;/div&gt;&lt;div&gt;данные&lt;/div&gt;" style="edgeLabel;html=1;align=center;verticalAlign=middle;resizable=0;points=[];" vertex="1" connectable="0" parent="4uhgzGvUtN5T5S1G_zmg-551">
          <mxGeometry x="0.2307" y="3" relative="1" as="geometry">
            <mxPoint x="-16" y="-3" as="offset" />
          </mxGeometry>
        </mxCell>
        <mxCell id="4uhgzGvUtN5T5S1G_zmg-620" value="&amp;nbsp; 1&amp;nbsp; &amp;nbsp; &amp;nbsp; &amp;nbsp;Лист согласования" style="html=1;dashed=0;whiteSpace=wrap;shape=mxgraph.dfd.dataStoreID;align=left;spacingLeft=3;points=[[0,0],[0.5,0],[1,0],[0,0.5],[1,0.5],[0,1],[0.5,1],[1,1]];" vertex="1" parent="4uhgzGvUtN5T5S1G_zmg-412">
          <mxGeometry x="290" y="80" width="150" height="30" as="geometry" />
        </mxCell>
        <mxCell id="4uhgzGvUtN5T5S1G_zmg-621" style="edgeStyle=orthogonalEdgeStyle;rounded=0;orthogonalLoop=1;jettySize=auto;html=1;exitX=0.5;exitY=1;exitDx=0;exitDy=0;entryX=0.433;entryY=0.05;entryDx=0;entryDy=0;entryPerimeter=0;" edge="1" parent="4uhgzGvUtN5T5S1G_zmg-412" source="4uhgzGvUtN5T5S1G_zmg-620" target="4uhgzGvUtN5T5S1G_zmg-437">
          <mxGeometry relative="1" as="geometry" />
        </mxCell>
        <mxCell id="4uhgzGvUtN5T5S1G_zmg-632" value="Список согласующих" style="edgeLabel;html=1;align=center;verticalAlign=middle;resizable=0;points=[];" vertex="1" connectable="0" parent="4uhgzGvUtN5T5S1G_zmg-621">
          <mxGeometry x="-0.0889" y="2" relative="1" as="geometry">
            <mxPoint as="offset" />
          </mxGeometry>
        </mxCell>
        <mxCell id="4uhgzGvUtN5T5S1G_zmg-622" value="&amp;nbsp; 2&amp;nbsp; &amp;nbsp; &amp;nbsp; &amp;nbsp;Реестр" style="html=1;dashed=0;whiteSpace=wrap;shape=mxgraph.dfd.dataStoreID;align=left;spacingLeft=3;points=[[0,0],[0.5,0],[1,0],[0,0.5],[1,0.5],[0,1],[0.5,1],[1,1]];" vertex="1" parent="4uhgzGvUtN5T5S1G_zmg-412">
          <mxGeometry x="580" y="129" width="100" height="30" as="geometry" />
        </mxCell>
        <mxCell id="4uhgzGvUtN5T5S1G_zmg-624" value="" style="group" vertex="1" connectable="0" parent="4uhgzGvUtN5T5S1G_zmg-412">
          <mxGeometry x="40" y="235" width="125" height="65" as="geometry" />
        </mxCell>
        <mxCell id="4uhgzGvUtN5T5S1G_zmg-483" value="" style="rounded=0;whiteSpace=wrap;html=1;fillColor=#000000;" vertex="1" parent="4uhgzGvUtN5T5S1G_zmg-624">
          <mxGeometry width="120" height="60" as="geometry" />
        </mxCell>
        <mxCell id="4uhgzGvUtN5T5S1G_zmg-484" value="Инициатор" style="rounded=0;whiteSpace=wrap;html=1;" vertex="1" parent="4uhgzGvUtN5T5S1G_zmg-624">
          <mxGeometry x="5" y="5" width="120" height="60" as="geometry" />
        </mxCell>
        <mxCell id="4uhgzGvUtN5T5S1G_zmg-496" value="1" style="text;html=1;align=center;verticalAlign=middle;whiteSpace=wrap;rounded=0;" vertex="1" parent="4uhgzGvUtN5T5S1G_zmg-624">
          <mxGeometry x="5" y="5" width="20" height="20" as="geometry" />
        </mxCell>
        <mxCell id="4uhgzGvUtN5T5S1G_zmg-625" value="" style="group" vertex="1" connectable="0" parent="4uhgzGvUtN5T5S1G_zmg-412">
          <mxGeometry x="740" y="179" width="125" height="65" as="geometry" />
        </mxCell>
        <mxCell id="4uhgzGvUtN5T5S1G_zmg-626" value="" style="rounded=0;whiteSpace=wrap;html=1;fillColor=#000000;" vertex="1" parent="4uhgzGvUtN5T5S1G_zmg-625">
          <mxGeometry width="120" height="60" as="geometry" />
        </mxCell>
        <mxCell id="4uhgzGvUtN5T5S1G_zmg-627" value="Секретарь" style="rounded=0;whiteSpace=wrap;html=1;" vertex="1" parent="4uhgzGvUtN5T5S1G_zmg-625">
          <mxGeometry x="5" y="5" width="120" height="60" as="geometry" />
        </mxCell>
        <mxCell id="4uhgzGvUtN5T5S1G_zmg-628" value="2" style="text;html=1;align=center;verticalAlign=middle;whiteSpace=wrap;rounded=0;" vertex="1" parent="4uhgzGvUtN5T5S1G_zmg-625">
          <mxGeometry x="5" y="5" width="20" height="20" as="geometry" />
        </mxCell>
        <mxCell id="4uhgzGvUtN5T5S1G_zmg-629" style="edgeStyle=orthogonalEdgeStyle;rounded=0;orthogonalLoop=1;jettySize=auto;html=1;exitX=0.5;exitY=1;exitDx=0;exitDy=0;entryX=0.825;entryY=0;entryDx=0;entryDy=0;entryPerimeter=0;" edge="1" parent="4uhgzGvUtN5T5S1G_zmg-412" source="4uhgzGvUtN5T5S1G_zmg-627" target="4uhgzGvUtN5T5S1G_zmg-429">
          <mxGeometry relative="1" as="geometry" />
        </mxCell>
        <mxCell id="4uhgzGvUtN5T5S1G_zmg-631" value="Регистрационный номер" style="edgeLabel;html=1;align=center;verticalAlign=middle;resizable=0;points=[];" vertex="1" connectable="0" parent="4uhgzGvUtN5T5S1G_zmg-629">
          <mxGeometry x="0.1667" y="3" relative="1" as="geometry">
            <mxPoint x="19" y="-5" as="offset" />
          </mxGeometry>
        </mxCell>
        <mxCell id="4uhgzGvUtN5T5S1G_zmg-477" value="" style="group" vertex="1" connectable="0" parent="4uhgzGvUtN5T5S1G_zmg-411">
          <mxGeometry x="926" y="23" width="58" height="27" as="geometry" />
        </mxCell>
        <mxCell id="4uhgzGvUtN5T5S1G_zmg-611" value="" style="group" vertex="1" connectable="0" parent="4uhgzGvUtN5T5S1G_zmg-477">
          <mxGeometry width="58" height="27" as="geometry" />
        </mxCell>
        <mxCell id="4uhgzGvUtN5T5S1G_zmg-478" value="" style="rounded=0;whiteSpace=wrap;html=1;" vertex="1" parent="4uhgzGvUtN5T5S1G_zmg-611">
          <mxGeometry width="16" height="6" as="geometry" />
        </mxCell>
        <mxCell id="4uhgzGvUtN5T5S1G_zmg-479" value="" style="rounded=0;whiteSpace=wrap;html=1;" vertex="1" parent="4uhgzGvUtN5T5S1G_zmg-611">
          <mxGeometry x="21" y="11" width="16" height="6" as="geometry" />
        </mxCell>
        <mxCell id="4uhgzGvUtN5T5S1G_zmg-480" value="" style="rounded=0;whiteSpace=wrap;html=1;" vertex="1" parent="4uhgzGvUtN5T5S1G_zmg-611">
          <mxGeometry x="42" y="21" width="16" height="6" as="geometry" />
        </mxCell>
        <mxCell id="4uhgzGvUtN5T5S1G_zmg-568" value="" style="group" vertex="1" connectable="0" parent="1">
          <mxGeometry x="-190" y="4136" width="1000" height="540" as="geometry" />
        </mxCell>
        <mxCell id="4uhgzGvUtN5T5S1G_zmg-569" value="" style="shape=process;whiteSpace=wrap;html=1;backgroundOutline=1;rotation=90;" vertex="1" parent="4uhgzGvUtN5T5S1G_zmg-568">
          <mxGeometry x="230" y="-229.99999999999994" width="540" height="1000" as="geometry" />
        </mxCell>
        <mxCell id="4uhgzGvUtN5T5S1G_zmg-570" value="" style="rounded=0;whiteSpace=wrap;html=1;" vertex="1" parent="4uhgzGvUtN5T5S1G_zmg-568">
          <mxGeometry y="5.684341886080802e-14" width="120" height="54" as="geometry" />
        </mxCell>
        <mxCell id="4uhgzGvUtN5T5S1G_zmg-571" value="ЛАА003" style="rounded=0;whiteSpace=wrap;html=1;" vertex="1" parent="4uhgzGvUtN5T5S1G_zmg-568">
          <mxGeometry x="880" y="486.00000000000006" width="120" height="54" as="geometry" />
        </mxCell>
        <mxCell id="4uhgzGvUtN5T5S1G_zmg-572" value="" style="rounded=0;whiteSpace=wrap;html=1;" vertex="1" parent="4uhgzGvUtN5T5S1G_zmg-568">
          <mxGeometry x="880" y="5.684341886080802e-14" width="120" height="54" as="geometry" />
        </mxCell>
        <mxCell id="4uhgzGvUtN5T5S1G_zmg-573" value="A2" style="rounded=0;whiteSpace=wrap;html=1;" vertex="1" parent="4uhgzGvUtN5T5S1G_zmg-568">
          <mxGeometry y="486.00000000000006" width="120" height="54" as="geometry" />
        </mxCell>
        <mxCell id="4uhgzGvUtN5T5S1G_zmg-574" value="Согласование" style="text;html=1;align=center;verticalAlign=middle;whiteSpace=wrap;rounded=0;" vertex="1" parent="4uhgzGvUtN5T5S1G_zmg-568">
          <mxGeometry x="120" y="486" width="760" height="54" as="geometry" />
        </mxCell>
        <mxCell id="4uhgzGvUtN5T5S1G_zmg-575" value="" style="rounded=0;whiteSpace=wrap;html=1;" vertex="1" parent="4uhgzGvUtN5T5S1G_zmg-568">
          <mxGeometry x="884" y="4" width="16" height="6" as="geometry" />
        </mxCell>
        <mxCell id="4uhgzGvUtN5T5S1G_zmg-576" value="" style="rounded=0;whiteSpace=wrap;html=1;fillColor=#000000;" vertex="1" parent="4uhgzGvUtN5T5S1G_zmg-568">
          <mxGeometry x="905" y="13" width="16" height="6" as="geometry" />
        </mxCell>
        <mxCell id="4uhgzGvUtN5T5S1G_zmg-638" style="edgeStyle=orthogonalEdgeStyle;rounded=0;orthogonalLoop=1;jettySize=auto;html=1;exitX=1;exitY=0.5;exitDx=0;exitDy=0;entryX=0;entryY=0.5;entryDx=0;entryDy=0;" edge="1" parent="4uhgzGvUtN5T5S1G_zmg-568" source="4uhgzGvUtN5T5S1G_zmg-579" target="4uhgzGvUtN5T5S1G_zmg-582">
          <mxGeometry relative="1" as="geometry" />
        </mxCell>
        <mxCell id="4uhgzGvUtN5T5S1G_zmg-639" value="Документ,&lt;div&gt;согласованный&amp;nbsp;&lt;/div&gt;&lt;div&gt;с руководителем&lt;/div&gt;" style="edgeLabel;html=1;align=center;verticalAlign=middle;resizable=0;points=[];" vertex="1" connectable="0" parent="4uhgzGvUtN5T5S1G_zmg-638">
          <mxGeometry x="-0.5347" relative="1" as="geometry">
            <mxPoint x="32" as="offset" />
          </mxGeometry>
        </mxCell>
        <mxCell id="4uhgzGvUtN5T5S1G_zmg-579" value="Согласование с руководителем" style="rounded=1;whiteSpace=wrap;html=1;" vertex="1" parent="4uhgzGvUtN5T5S1G_zmg-568">
          <mxGeometry x="130" y="240" width="120" height="60" as="geometry" />
        </mxCell>
        <mxCell id="4uhgzGvUtN5T5S1G_zmg-640" style="edgeStyle=orthogonalEdgeStyle;rounded=0;orthogonalLoop=1;jettySize=auto;html=1;exitX=1;exitY=0.5;exitDx=0;exitDy=0;entryX=0;entryY=0.5;entryDx=0;entryDy=0;" edge="1" parent="4uhgzGvUtN5T5S1G_zmg-568" source="4uhgzGvUtN5T5S1G_zmg-582" target="4uhgzGvUtN5T5S1G_zmg-583">
          <mxGeometry relative="1" as="geometry" />
        </mxCell>
        <mxCell id="4uhgzGvUtN5T5S1G_zmg-641" value="Документ,&lt;div&gt;согласованный&amp;nbsp;&lt;/div&gt;&lt;div&gt;с согласующими&lt;/div&gt;" style="edgeLabel;html=1;align=center;verticalAlign=middle;resizable=0;points=[];" vertex="1" connectable="0" parent="4uhgzGvUtN5T5S1G_zmg-640">
          <mxGeometry x="-0.4154" y="-3" relative="1" as="geometry">
            <mxPoint x="31" y="-3" as="offset" />
          </mxGeometry>
        </mxCell>
        <mxCell id="4uhgzGvUtN5T5S1G_zmg-582" value="Согласование с согласующими" style="rounded=1;whiteSpace=wrap;html=1;" vertex="1" parent="4uhgzGvUtN5T5S1G_zmg-568">
          <mxGeometry x="400" y="240" width="120" height="60" as="geometry" />
        </mxCell>
        <mxCell id="4uhgzGvUtN5T5S1G_zmg-583" value="Согласование со службой безопасности" style="rounded=1;whiteSpace=wrap;html=1;" vertex="1" parent="4uhgzGvUtN5T5S1G_zmg-568">
          <mxGeometry x="700" y="240" width="120" height="60" as="geometry" />
        </mxCell>
        <mxCell id="4uhgzGvUtN5T5S1G_zmg-608" value="2.1" style="text;html=1;align=center;verticalAlign=middle;whiteSpace=wrap;rounded=0;" vertex="1" parent="4uhgzGvUtN5T5S1G_zmg-568">
          <mxGeometry x="228" y="286" width="20" height="10" as="geometry" />
        </mxCell>
        <mxCell id="4uhgzGvUtN5T5S1G_zmg-609" value="2.2" style="text;html=1;align=center;verticalAlign=middle;whiteSpace=wrap;rounded=0;" vertex="1" parent="4uhgzGvUtN5T5S1G_zmg-568">
          <mxGeometry x="498" y="285" width="20" height="10" as="geometry" />
        </mxCell>
        <mxCell id="4uhgzGvUtN5T5S1G_zmg-610" value="2.3" style="text;html=1;align=center;verticalAlign=middle;whiteSpace=wrap;rounded=0;" vertex="1" parent="4uhgzGvUtN5T5S1G_zmg-568">
          <mxGeometry x="798" y="286" width="20" height="10" as="geometry" />
        </mxCell>
        <mxCell id="4uhgzGvUtN5T5S1G_zmg-616" value="" style="group" vertex="1" connectable="0" parent="4uhgzGvUtN5T5S1G_zmg-568">
          <mxGeometry x="930" y="19" width="58" height="27" as="geometry" />
        </mxCell>
        <mxCell id="4uhgzGvUtN5T5S1G_zmg-617" value="" style="rounded=0;whiteSpace=wrap;html=1;" vertex="1" parent="4uhgzGvUtN5T5S1G_zmg-616">
          <mxGeometry width="16" height="6" as="geometry" />
        </mxCell>
        <mxCell id="4uhgzGvUtN5T5S1G_zmg-618" value="" style="rounded=0;whiteSpace=wrap;html=1;" vertex="1" parent="4uhgzGvUtN5T5S1G_zmg-616">
          <mxGeometry x="21" y="11" width="16" height="6" as="geometry" />
        </mxCell>
        <mxCell id="4uhgzGvUtN5T5S1G_zmg-619" value="" style="rounded=0;whiteSpace=wrap;html=1;" vertex="1" parent="4uhgzGvUtN5T5S1G_zmg-616">
          <mxGeometry x="42" y="21" width="16" height="6" as="geometry" />
        </mxCell>
        <mxCell id="4uhgzGvUtN5T5S1G_zmg-633" value="" style="endArrow=classic;html=1;rounded=0;" edge="1" parent="4uhgzGvUtN5T5S1G_zmg-568">
          <mxGeometry width="50" height="50" relative="1" as="geometry">
            <mxPoint y="274" as="sourcePoint" />
            <mxPoint x="130" y="276" as="targetPoint" />
          </mxGeometry>
        </mxCell>
        <mxCell id="4uhgzGvUtN5T5S1G_zmg-634" value="Черновой вариант" style="edgeLabel;html=1;align=center;verticalAlign=middle;resizable=0;points=[];" vertex="1" connectable="0" parent="4uhgzGvUtN5T5S1G_zmg-633">
          <mxGeometry x="-0.5294" relative="1" as="geometry">
            <mxPoint x="27" as="offset" />
          </mxGeometry>
        </mxCell>
        <mxCell id="4uhgzGvUtN5T5S1G_zmg-636" style="edgeStyle=orthogonalEdgeStyle;rounded=0;orthogonalLoop=1;jettySize=auto;html=1;exitX=0.5;exitY=0;exitDx=0;exitDy=0;entryX=0.5;entryY=1;entryDx=0;entryDy=0;" edge="1" parent="4uhgzGvUtN5T5S1G_zmg-568" source="4uhgzGvUtN5T5S1G_zmg-635" target="4uhgzGvUtN5T5S1G_zmg-579">
          <mxGeometry relative="1" as="geometry" />
        </mxCell>
        <mxCell id="4uhgzGvUtN5T5S1G_zmg-637" value="Лист согласующих" style="edgeLabel;html=1;align=center;verticalAlign=middle;resizable=0;points=[];rotation=-90;" vertex="1" connectable="0" parent="4uhgzGvUtN5T5S1G_zmg-636">
          <mxGeometry x="-0.0667" relative="1" as="geometry">
            <mxPoint as="offset" />
          </mxGeometry>
        </mxCell>
        <mxCell id="4uhgzGvUtN5T5S1G_zmg-635" value="&amp;nbsp; 1&amp;nbsp; &amp;nbsp; &amp;nbsp; &amp;nbsp;Лист согласования" style="html=1;dashed=0;whiteSpace=wrap;shape=mxgraph.dfd.dataStoreID;align=left;spacingLeft=3;points=[[0,0],[0.5,0],[1,0],[0,0.5],[1,0.5],[0,1],[0.5,1],[1,1]];" vertex="1" parent="4uhgzGvUtN5T5S1G_zmg-568">
          <mxGeometry x="115" y="444" width="150" height="30" as="geometry" />
        </mxCell>
        <mxCell id="4uhgzGvUtN5T5S1G_zmg-642" style="edgeStyle=orthogonalEdgeStyle;rounded=0;orthogonalLoop=1;jettySize=auto;html=1;exitX=1;exitY=0.5;exitDx=0;exitDy=0;entryX=0.5;entryY=0;entryDx=0;entryDy=0;" edge="1" parent="4uhgzGvUtN5T5S1G_zmg-568" source="4uhgzGvUtN5T5S1G_zmg-583" target="4uhgzGvUtN5T5S1G_zmg-569">
          <mxGeometry relative="1" as="geometry">
            <Array as="points">
              <mxPoint x="820" y="270" />
            </Array>
          </mxGeometry>
        </mxCell>
        <mxCell id="4uhgzGvUtN5T5S1G_zmg-643" value="Согласованный документ" style="edgeLabel;html=1;align=center;verticalAlign=middle;resizable=0;points=[];" vertex="1" connectable="0" parent="4uhgzGvUtN5T5S1G_zmg-642">
          <mxGeometry x="-0.5959" y="-2" relative="1" as="geometry">
            <mxPoint x="55" y="-1" as="offset" />
          </mxGeometry>
        </mxCell>
        <mxCell id="4uhgzGvUtN5T5S1G_zmg-644" value="" style="group" vertex="1" connectable="0" parent="1">
          <mxGeometry x="-190" y="4740" width="1000" height="540" as="geometry" />
        </mxCell>
        <mxCell id="4uhgzGvUtN5T5S1G_zmg-645" value="" style="shape=process;whiteSpace=wrap;html=1;backgroundOutline=1;rotation=90;" vertex="1" parent="4uhgzGvUtN5T5S1G_zmg-644">
          <mxGeometry x="230" y="-229.99999999999994" width="540" height="1000" as="geometry" />
        </mxCell>
        <mxCell id="4uhgzGvUtN5T5S1G_zmg-646" value="" style="rounded=0;whiteSpace=wrap;html=1;" vertex="1" parent="4uhgzGvUtN5T5S1G_zmg-644">
          <mxGeometry y="5.684341886080802e-14" width="120" height="54" as="geometry" />
        </mxCell>
        <mxCell id="4uhgzGvUtN5T5S1G_zmg-647" value="ЛАА004" style="rounded=0;whiteSpace=wrap;html=1;" vertex="1" parent="4uhgzGvUtN5T5S1G_zmg-644">
          <mxGeometry x="880" y="486.00000000000006" width="120" height="54" as="geometry" />
        </mxCell>
        <mxCell id="4uhgzGvUtN5T5S1G_zmg-648" value="" style="rounded=0;whiteSpace=wrap;html=1;" vertex="1" parent="4uhgzGvUtN5T5S1G_zmg-644">
          <mxGeometry x="880" y="5.684341886080802e-14" width="120" height="54" as="geometry" />
        </mxCell>
        <mxCell id="4uhgzGvUtN5T5S1G_zmg-649" value="A1" style="rounded=0;whiteSpace=wrap;html=1;" vertex="1" parent="4uhgzGvUtN5T5S1G_zmg-644">
          <mxGeometry y="486.00000000000006" width="120" height="54" as="geometry" />
        </mxCell>
        <mxCell id="4uhgzGvUtN5T5S1G_zmg-650" value="Инициация создания документа" style="text;html=1;align=center;verticalAlign=middle;whiteSpace=wrap;rounded=0;" vertex="1" parent="4uhgzGvUtN5T5S1G_zmg-644">
          <mxGeometry x="120" y="486" width="760" height="54" as="geometry" />
        </mxCell>
        <mxCell id="4uhgzGvUtN5T5S1G_zmg-651" value="" style="rounded=0;whiteSpace=wrap;html=1;fillColor=#000000;" vertex="1" parent="4uhgzGvUtN5T5S1G_zmg-644">
          <mxGeometry x="884" y="4" width="16" height="6" as="geometry" />
        </mxCell>
        <mxCell id="4uhgzGvUtN5T5S1G_zmg-652" value="" style="rounded=0;whiteSpace=wrap;html=1;fillColor=#FFFFFF;" vertex="1" parent="4uhgzGvUtN5T5S1G_zmg-644">
          <mxGeometry x="905" y="13" width="16" height="6" as="geometry" />
        </mxCell>
        <mxCell id="4uhgzGvUtN5T5S1G_zmg-653" style="edgeStyle=orthogonalEdgeStyle;rounded=0;orthogonalLoop=1;jettySize=auto;html=1;exitX=1;exitY=0.5;exitDx=0;exitDy=0;entryX=0;entryY=0.5;entryDx=0;entryDy=0;" edge="1" parent="4uhgzGvUtN5T5S1G_zmg-644" source="4uhgzGvUtN5T5S1G_zmg-655" target="4uhgzGvUtN5T5S1G_zmg-658">
          <mxGeometry relative="1" as="geometry" />
        </mxCell>
        <mxCell id="4uhgzGvUtN5T5S1G_zmg-698" value="Шаблон&amp;nbsp;&lt;div&gt;документа&lt;/div&gt;" style="edgeLabel;html=1;align=center;verticalAlign=middle;resizable=0;points=[];" vertex="1" connectable="0" parent="4uhgzGvUtN5T5S1G_zmg-653">
          <mxGeometry x="-0.3304" y="-1" relative="1" as="geometry">
            <mxPoint as="offset" />
          </mxGeometry>
        </mxCell>
        <mxCell id="4uhgzGvUtN5T5S1G_zmg-655" value="Выбор шаблона нужного документа" style="rounded=1;whiteSpace=wrap;html=1;" vertex="1" parent="4uhgzGvUtN5T5S1G_zmg-644">
          <mxGeometry x="120" y="240" width="120" height="60" as="geometry" />
        </mxCell>
        <mxCell id="4uhgzGvUtN5T5S1G_zmg-656" style="edgeStyle=orthogonalEdgeStyle;rounded=0;orthogonalLoop=1;jettySize=auto;html=1;exitX=1;exitY=0.5;exitDx=0;exitDy=0;entryX=0;entryY=0.5;entryDx=0;entryDy=0;" edge="1" parent="4uhgzGvUtN5T5S1G_zmg-644" source="4uhgzGvUtN5T5S1G_zmg-658" target="4uhgzGvUtN5T5S1G_zmg-659">
          <mxGeometry relative="1" as="geometry" />
        </mxCell>
        <mxCell id="4uhgzGvUtN5T5S1G_zmg-699" value="Черновой&lt;div&gt;вариант&lt;/div&gt;" style="edgeLabel;html=1;align=center;verticalAlign=middle;resizable=0;points=[];" vertex="1" connectable="0" parent="4uhgzGvUtN5T5S1G_zmg-656">
          <mxGeometry x="-0.3154" y="-2" relative="1" as="geometry">
            <mxPoint as="offset" />
          </mxGeometry>
        </mxCell>
        <mxCell id="4uhgzGvUtN5T5S1G_zmg-658" value="Создание чернового варианта" style="rounded=1;whiteSpace=wrap;html=1;" vertex="1" parent="4uhgzGvUtN5T5S1G_zmg-644">
          <mxGeometry x="400" y="240" width="120" height="60" as="geometry" />
        </mxCell>
        <mxCell id="4uhgzGvUtN5T5S1G_zmg-664" value="" style="endArrow=classic;html=1;rounded=0;entryX=-0.017;entryY=0.113;entryDx=0;entryDy=0;entryPerimeter=0;exitX=0.329;exitY=1.003;exitDx=0;exitDy=0;exitPerimeter=0;" edge="1" parent="4uhgzGvUtN5T5S1G_zmg-644">
          <mxGeometry width="50" height="50" relative="1" as="geometry">
            <mxPoint x="-7.993605777301127e-15" y="270.3800000000005" as="sourcePoint" />
            <mxPoint x="120.9599999999998" y="269.5000000000004" as="targetPoint" />
          </mxGeometry>
        </mxCell>
        <mxCell id="4uhgzGvUtN5T5S1G_zmg-696" value="Входные&lt;div&gt;данные&lt;/div&gt;" style="edgeLabel;html=1;align=center;verticalAlign=middle;resizable=0;points=[];" vertex="1" connectable="0" parent="4uhgzGvUtN5T5S1G_zmg-664">
          <mxGeometry x="-0.0747" relative="1" as="geometry">
            <mxPoint x="-1" as="offset" />
          </mxGeometry>
        </mxCell>
        <mxCell id="4uhgzGvUtN5T5S1G_zmg-682" value="1.1" style="text;html=1;align=center;verticalAlign=middle;whiteSpace=wrap;rounded=0;" vertex="1" parent="4uhgzGvUtN5T5S1G_zmg-644">
          <mxGeometry x="219" y="287" width="20" height="10" as="geometry" />
        </mxCell>
        <mxCell id="4uhgzGvUtN5T5S1G_zmg-683" value="1.2" style="text;html=1;align=center;verticalAlign=middle;whiteSpace=wrap;rounded=0;" vertex="1" parent="4uhgzGvUtN5T5S1G_zmg-644">
          <mxGeometry x="497" y="288" width="20" height="10" as="geometry" />
        </mxCell>
        <mxCell id="4uhgzGvUtN5T5S1G_zmg-690" value="" style="group" vertex="1" connectable="0" parent="4uhgzGvUtN5T5S1G_zmg-644">
          <mxGeometry x="65" y="370" width="125" height="65" as="geometry" />
        </mxCell>
        <mxCell id="4uhgzGvUtN5T5S1G_zmg-691" value="" style="rounded=0;whiteSpace=wrap;html=1;fillColor=#000000;" vertex="1" parent="4uhgzGvUtN5T5S1G_zmg-690">
          <mxGeometry width="120" height="60" as="geometry" />
        </mxCell>
        <mxCell id="4uhgzGvUtN5T5S1G_zmg-692" value="Инициатор" style="rounded=0;whiteSpace=wrap;html=1;" vertex="1" parent="4uhgzGvUtN5T5S1G_zmg-690">
          <mxGeometry x="5" y="5" width="120" height="60" as="geometry" />
        </mxCell>
        <mxCell id="4uhgzGvUtN5T5S1G_zmg-693" value="1" style="text;html=1;align=center;verticalAlign=middle;whiteSpace=wrap;rounded=0;" vertex="1" parent="4uhgzGvUtN5T5S1G_zmg-690">
          <mxGeometry x="5" y="5" width="20" height="20" as="geometry" />
        </mxCell>
        <mxCell id="4uhgzGvUtN5T5S1G_zmg-694" style="edgeStyle=orthogonalEdgeStyle;rounded=0;orthogonalLoop=1;jettySize=auto;html=1;exitX=0.5;exitY=0;exitDx=0;exitDy=0;entryX=0.5;entryY=1;entryDx=0;entryDy=0;" edge="1" parent="4uhgzGvUtN5T5S1G_zmg-644" source="4uhgzGvUtN5T5S1G_zmg-692" target="4uhgzGvUtN5T5S1G_zmg-655">
          <mxGeometry relative="1" as="geometry" />
        </mxCell>
        <mxCell id="4uhgzGvUtN5T5S1G_zmg-695" value="Необходимость&lt;div&gt;в создании&lt;/div&gt;&lt;div&gt;документа&lt;/div&gt;" style="edgeLabel;html=1;align=center;verticalAlign=middle;resizable=0;points=[];" vertex="1" connectable="0" parent="4uhgzGvUtN5T5S1G_zmg-694">
          <mxGeometry x="0.0889" y="1" relative="1" as="geometry">
            <mxPoint y="1" as="offset" />
          </mxGeometry>
        </mxCell>
        <mxCell id="4uhgzGvUtN5T5S1G_zmg-702" style="edgeStyle=orthogonalEdgeStyle;rounded=0;orthogonalLoop=1;jettySize=auto;html=1;exitX=1;exitY=0.5;exitDx=0;exitDy=0;entryX=0.5;entryY=0;entryDx=0;entryDy=0;" edge="1" parent="4uhgzGvUtN5T5S1G_zmg-644" source="4uhgzGvUtN5T5S1G_zmg-659" target="4uhgzGvUtN5T5S1G_zmg-645">
          <mxGeometry relative="1" as="geometry">
            <Array as="points">
              <mxPoint x="900" y="270" />
              <mxPoint x="900" y="270" />
            </Array>
          </mxGeometry>
        </mxCell>
        <mxCell id="4uhgzGvUtN5T5S1G_zmg-703" value="Черновой вариант&lt;div&gt;на согласование&lt;/div&gt;" style="edgeLabel;html=1;align=center;verticalAlign=middle;resizable=0;points=[];" vertex="1" connectable="0" parent="4uhgzGvUtN5T5S1G_zmg-702">
          <mxGeometry x="-0.1684" y="-1" relative="1" as="geometry">
            <mxPoint as="offset" />
          </mxGeometry>
        </mxCell>
        <mxCell id="4uhgzGvUtN5T5S1G_zmg-659" value="Отправка на согласование" style="rounded=1;whiteSpace=wrap;html=1;" vertex="1" parent="4uhgzGvUtN5T5S1G_zmg-644">
          <mxGeometry x="690" y="240" width="120" height="60" as="geometry" />
        </mxCell>
        <mxCell id="4uhgzGvUtN5T5S1G_zmg-684" value="1.3" style="text;html=1;align=center;verticalAlign=middle;whiteSpace=wrap;rounded=0;" vertex="1" parent="4uhgzGvUtN5T5S1G_zmg-644">
          <mxGeometry x="790" y="287" width="20" height="10" as="geometry" />
        </mxCell>
        <mxCell id="4uhgzGvUtN5T5S1G_zmg-689" value="" style="group" vertex="1" connectable="0" parent="1">
          <mxGeometry x="737" y="4764" width="58" height="27" as="geometry" />
        </mxCell>
        <mxCell id="4uhgzGvUtN5T5S1G_zmg-686" value="" style="rounded=0;whiteSpace=wrap;html=1;" vertex="1" parent="4uhgzGvUtN5T5S1G_zmg-689">
          <mxGeometry width="16" height="6" as="geometry" />
        </mxCell>
        <mxCell id="4uhgzGvUtN5T5S1G_zmg-687" value="" style="rounded=0;whiteSpace=wrap;html=1;" vertex="1" parent="4uhgzGvUtN5T5S1G_zmg-689">
          <mxGeometry x="21" y="11" width="16" height="6" as="geometry" />
        </mxCell>
        <mxCell id="4uhgzGvUtN5T5S1G_zmg-688" value="" style="rounded=0;whiteSpace=wrap;html=1;" vertex="1" parent="4uhgzGvUtN5T5S1G_zmg-689">
          <mxGeometry x="42" y="21" width="16" height="6" as="geometry" />
        </mxCell>
        <mxCell id="4uhgzGvUtN5T5S1G_zmg-705" value="" style="group" vertex="1" connectable="0" parent="1">
          <mxGeometry x="1100" y="459.99999999999994" width="1000" height="540" as="geometry" />
        </mxCell>
        <mxCell id="4uhgzGvUtN5T5S1G_zmg-706" value="" style="shape=process;whiteSpace=wrap;html=1;backgroundOutline=1;rotation=90;" vertex="1" parent="4uhgzGvUtN5T5S1G_zmg-705">
          <mxGeometry x="230" y="-229.99999999999994" width="540" height="1000" as="geometry" />
        </mxCell>
        <mxCell id="4uhgzGvUtN5T5S1G_zmg-707" value="" style="rounded=0;whiteSpace=wrap;html=1;" vertex="1" parent="4uhgzGvUtN5T5S1G_zmg-705">
          <mxGeometry y="5.684341886080802e-14" width="120" height="54" as="geometry" />
        </mxCell>
        <mxCell id="4uhgzGvUtN5T5S1G_zmg-708" value="ЛАА001" style="rounded=0;whiteSpace=wrap;html=1;" vertex="1" parent="4uhgzGvUtN5T5S1G_zmg-705">
          <mxGeometry x="880" y="486.00000000000006" width="120" height="54" as="geometry" />
        </mxCell>
        <mxCell id="4uhgzGvUtN5T5S1G_zmg-709" value="" style="rounded=0;whiteSpace=wrap;html=1;" vertex="1" parent="4uhgzGvUtN5T5S1G_zmg-705">
          <mxGeometry x="880" y="5.684341886080802e-14" width="120" height="54" as="geometry" />
        </mxCell>
        <mxCell id="4uhgzGvUtN5T5S1G_zmg-710" value="A-0" style="rounded=0;whiteSpace=wrap;html=1;" vertex="1" parent="4uhgzGvUtN5T5S1G_zmg-705">
          <mxGeometry y="486.00000000000006" width="120" height="54" as="geometry" />
        </mxCell>
        <mxCell id="4uhgzGvUtN5T5S1G_zmg-711" value="" style="rounded=0;whiteSpace=wrap;html=1;fillColor=#000000;" vertex="1" parent="4uhgzGvUtN5T5S1G_zmg-705">
          <mxGeometry x="910" y="12" width="60" height="30" as="geometry" />
        </mxCell>
        <mxCell id="4uhgzGvUtN5T5S1G_zmg-712" value="Управление расчётом страховых взносов" style="text;html=1;align=center;verticalAlign=middle;whiteSpace=wrap;rounded=0;" vertex="1" parent="4uhgzGvUtN5T5S1G_zmg-705">
          <mxGeometry x="120" y="486" width="760" height="54" as="geometry" />
        </mxCell>
        <mxCell id="4uhgzGvUtN5T5S1G_zmg-713" value="Управление расчётом страховых взносов" style="rounded=0;whiteSpace=wrap;html=1;" vertex="1" parent="4uhgzGvUtN5T5S1G_zmg-705">
          <mxGeometry x="370" y="195" width="260" height="150" as="geometry" />
        </mxCell>
        <mxCell id="4uhgzGvUtN5T5S1G_zmg-714" value="" style="endArrow=classic;html=1;rounded=0;exitX=0.461;exitY=0.999;exitDx=0;exitDy=0;exitPerimeter=0;entryX=0.004;entryY=0.36;entryDx=0;entryDy=0;entryPerimeter=0;" edge="1" parent="4uhgzGvUtN5T5S1G_zmg-705">
          <mxGeometry width="50" height="50" relative="1" as="geometry">
            <mxPoint y="290.00000000000006" as="sourcePoint" />
            <mxPoint x="370" y="290.00000000000006" as="targetPoint" />
          </mxGeometry>
        </mxCell>
        <mxCell id="4uhgzGvUtN5T5S1G_zmg-715" value="I3 - Документы" style="edgeLabel;html=1;align=center;verticalAlign=middle;resizable=0;points=[];" vertex="1" connectable="0" parent="4uhgzGvUtN5T5S1G_zmg-714">
          <mxGeometry x="0.0108" relative="1" as="geometry">
            <mxPoint as="offset" />
          </mxGeometry>
        </mxCell>
        <mxCell id="4uhgzGvUtN5T5S1G_zmg-716" value="" style="endArrow=classic;html=1;rounded=0;exitX=0.461;exitY=0.999;exitDx=0;exitDy=0;exitPerimeter=0;entryX=0.004;entryY=0.36;entryDx=0;entryDy=0;entryPerimeter=0;" edge="1" parent="4uhgzGvUtN5T5S1G_zmg-705">
          <mxGeometry width="50" height="50" relative="1" as="geometry">
            <mxPoint y="260.00000000000006" as="sourcePoint" />
            <mxPoint x="370" y="260.00000000000006" as="targetPoint" />
          </mxGeometry>
        </mxCell>
        <mxCell id="4uhgzGvUtN5T5S1G_zmg-717" value="I2 - Платежи" style="edgeLabel;html=1;align=center;verticalAlign=middle;resizable=0;points=[];" vertex="1" connectable="0" parent="4uhgzGvUtN5T5S1G_zmg-716">
          <mxGeometry x="-0.0216" y="3" relative="1" as="geometry">
            <mxPoint as="offset" />
          </mxGeometry>
        </mxCell>
        <mxCell id="4uhgzGvUtN5T5S1G_zmg-718" value="" style="endArrow=classic;html=1;rounded=0;entryX=0.054;entryY=0.013;entryDx=0;entryDy=0;entryPerimeter=0;" edge="1" parent="4uhgzGvUtN5T5S1G_zmg-705">
          <mxGeometry width="50" height="50" relative="1" as="geometry">
            <mxPoint x="420.96" y="54.00000000000006" as="sourcePoint" />
            <mxPoint x="419.99999999999994" y="197.9500000000001" as="targetPoint" />
          </mxGeometry>
        </mxCell>
        <mxCell id="4uhgzGvUtN5T5S1G_zmg-719" value="C1 - 212 ФЗ" style="edgeLabel;html=1;align=center;verticalAlign=middle;resizable=0;points=[];rotation=-90;" vertex="1" connectable="0" parent="4uhgzGvUtN5T5S1G_zmg-718">
          <mxGeometry x="-0.083" y="-1" relative="1" as="geometry">
            <mxPoint x="-10" y="5" as="offset" />
          </mxGeometry>
        </mxCell>
        <mxCell id="4uhgzGvUtN5T5S1G_zmg-726" value="" style="endArrow=classic;html=1;rounded=0;entryX=0.054;entryY=0.013;entryDx=0;entryDy=0;entryPerimeter=0;" edge="1" parent="4uhgzGvUtN5T5S1G_zmg-705">
          <mxGeometry width="50" height="50" relative="1" as="geometry">
            <mxPoint x="581" y="54.00000000000006" as="sourcePoint" />
            <mxPoint x="580" y="198.00000000000006" as="targetPoint" />
          </mxGeometry>
        </mxCell>
        <mxCell id="4uhgzGvUtN5T5S1G_zmg-727" value="C3 - Методические&amp;nbsp;&lt;div&gt;указания для&amp;nbsp;&lt;/div&gt;&lt;div&gt;взысканий&lt;/div&gt;" style="edgeLabel;html=1;align=center;verticalAlign=middle;resizable=0;points=[];rotation=-90;" vertex="1" connectable="0" parent="4uhgzGvUtN5T5S1G_zmg-726">
          <mxGeometry x="0.0975" y="-2" relative="1" as="geometry">
            <mxPoint x="7" y="-7" as="offset" />
          </mxGeometry>
        </mxCell>
        <mxCell id="4uhgzGvUtN5T5S1G_zmg-728" value="" style="endArrow=classic;html=1;rounded=0;entryX=0.054;entryY=0.013;entryDx=0;entryDy=0;entryPerimeter=0;" edge="1" parent="4uhgzGvUtN5T5S1G_zmg-705">
          <mxGeometry width="50" height="50" relative="1" as="geometry">
            <mxPoint x="500.5" y="54.00000000000006" as="sourcePoint" />
            <mxPoint x="499.5" y="198.00000000000006" as="targetPoint" />
          </mxGeometry>
        </mxCell>
        <mxCell id="4uhgzGvUtN5T5S1G_zmg-729" value="C2 - Методические&amp;nbsp;&lt;div&gt;указания для&lt;/div&gt;&lt;div&gt;камеральных проверок&lt;/div&gt;" style="edgeLabel;html=1;align=center;verticalAlign=middle;resizable=0;points=[];rotation=-90;" vertex="1" connectable="0" parent="4uhgzGvUtN5T5S1G_zmg-728">
          <mxGeometry x="0.139" y="-1" relative="1" as="geometry">
            <mxPoint y="-10" as="offset" />
          </mxGeometry>
        </mxCell>
        <mxCell id="4uhgzGvUtN5T5S1G_zmg-732" value="" style="endArrow=classic;html=1;rounded=0;exitX=0.347;exitY=0.019;exitDx=0;exitDy=0;exitPerimeter=0;entryX=0.054;entryY=1.02;entryDx=0;entryDy=0;entryPerimeter=0;" edge="1" parent="4uhgzGvUtN5T5S1G_zmg-705">
          <mxGeometry width="50" height="50" relative="1" as="geometry">
            <mxPoint x="400.0000000000002" y="484.0260000000001" as="sourcePoint" />
            <mxPoint x="400.31999999999994" y="345.00000000000006" as="targetPoint" />
          </mxGeometry>
        </mxCell>
        <mxCell id="4uhgzGvUtN5T5S1G_zmg-733" value="M1- Почта&amp;nbsp;" style="edgeLabel;html=1;align=center;verticalAlign=middle;resizable=0;points=[];rotation=-90;" vertex="1" connectable="0" parent="4uhgzGvUtN5T5S1G_zmg-732">
          <mxGeometry x="-0.0646" y="3" relative="1" as="geometry">
            <mxPoint x="-11" y="-2" as="offset" />
          </mxGeometry>
        </mxCell>
        <mxCell id="4uhgzGvUtN5T5S1G_zmg-736" value="" style="endArrow=classic;html=1;rounded=0;exitX=0.347;exitY=0.019;exitDx=0;exitDy=0;exitPerimeter=0;entryX=0.054;entryY=1.02;entryDx=0;entryDy=0;entryPerimeter=0;" edge="1" parent="4uhgzGvUtN5T5S1G_zmg-705">
          <mxGeometry width="50" height="50" relative="1" as="geometry">
            <mxPoint x="530" y="484" as="sourcePoint" />
            <mxPoint x="530" y="345.00000000000006" as="targetPoint" />
          </mxGeometry>
        </mxCell>
        <mxCell id="4uhgzGvUtN5T5S1G_zmg-737" value="M3 - БД Пенсионного&lt;div&gt;фонда&lt;/div&gt;" style="edgeLabel;html=1;align=center;verticalAlign=middle;resizable=0;points=[];rotation=-90;" vertex="1" connectable="0" parent="4uhgzGvUtN5T5S1G_zmg-736">
          <mxGeometry x="-0.0408" y="2" relative="1" as="geometry">
            <mxPoint x="2" as="offset" />
          </mxGeometry>
        </mxCell>
        <mxCell id="4uhgzGvUtN5T5S1G_zmg-744" value="" style="endArrow=classic;html=1;rounded=0;exitX=0.347;exitY=0.019;exitDx=0;exitDy=0;exitPerimeter=0;entryX=0.054;entryY=1.02;entryDx=0;entryDy=0;entryPerimeter=0;" edge="1" parent="4uhgzGvUtN5T5S1G_zmg-705">
          <mxGeometry width="50" height="50" relative="1" as="geometry">
            <mxPoint x="469.55" y="484.00000000000006" as="sourcePoint" />
            <mxPoint x="469.55" y="345.00000000000006" as="targetPoint" />
          </mxGeometry>
        </mxCell>
        <mxCell id="4uhgzGvUtN5T5S1G_zmg-745" value="&amp;nbsp;M2 - Сотрудники&amp;nbsp;&lt;div&gt;Пенсионного фонда&lt;/div&gt;" style="edgeLabel;html=1;align=center;verticalAlign=middle;resizable=0;points=[];rotation=-90;" vertex="1" connectable="0" parent="4uhgzGvUtN5T5S1G_zmg-744">
          <mxGeometry x="-0.0504" relative="1" as="geometry">
            <mxPoint x="-12" y="4" as="offset" />
          </mxGeometry>
        </mxCell>
        <mxCell id="4uhgzGvUtN5T5S1G_zmg-746" value="" style="endArrow=classic;html=1;rounded=0;exitX=0.461;exitY=0.999;exitDx=0;exitDy=0;exitPerimeter=0;entryX=0.004;entryY=0.36;entryDx=0;entryDy=0;entryPerimeter=0;" edge="1" parent="4uhgzGvUtN5T5S1G_zmg-705">
          <mxGeometry width="50" height="50" relative="1" as="geometry">
            <mxPoint y="230.00000000000006" as="sourcePoint" />
            <mxPoint x="370" y="230.00000000000006" as="targetPoint" />
          </mxGeometry>
        </mxCell>
        <mxCell id="4uhgzGvUtN5T5S1G_zmg-747" value="I1 - Ведомость расчёта страховых взносов" style="edgeLabel;html=1;align=center;verticalAlign=middle;resizable=0;points=[];" vertex="1" connectable="0" parent="4uhgzGvUtN5T5S1G_zmg-746">
          <mxGeometry x="0.0108" relative="1" as="geometry">
            <mxPoint as="offset" />
          </mxGeometry>
        </mxCell>
        <mxCell id="4uhgzGvUtN5T5S1G_zmg-749" value="" style="endArrow=classic;html=1;rounded=0;" edge="1" parent="4uhgzGvUtN5T5S1G_zmg-705">
          <mxGeometry width="50" height="50" relative="1" as="geometry">
            <mxPoint x="630" y="230" as="sourcePoint" />
            <mxPoint x="1000" y="230" as="targetPoint" />
          </mxGeometry>
        </mxCell>
        <mxCell id="4uhgzGvUtN5T5S1G_zmg-750" value="O1 - Штрафы" style="edgeLabel;html=1;align=center;verticalAlign=middle;resizable=0;points=[];" vertex="1" connectable="0" parent="4uhgzGvUtN5T5S1G_zmg-749">
          <mxGeometry x="0.0054" y="-2" relative="1" as="geometry">
            <mxPoint as="offset" />
          </mxGeometry>
        </mxCell>
        <mxCell id="4uhgzGvUtN5T5S1G_zmg-751" value="" style="endArrow=classic;html=1;rounded=0;" edge="1" parent="4uhgzGvUtN5T5S1G_zmg-705">
          <mxGeometry width="50" height="50" relative="1" as="geometry">
            <mxPoint x="630" y="269.55000000000007" as="sourcePoint" />
            <mxPoint x="1000" y="269.55000000000007" as="targetPoint" />
          </mxGeometry>
        </mxCell>
        <mxCell id="4uhgzGvUtN5T5S1G_zmg-752" value="O2 - Требование о добровольной уплате" style="edgeLabel;html=1;align=center;verticalAlign=middle;resizable=0;points=[];" vertex="1" connectable="0" parent="4uhgzGvUtN5T5S1G_zmg-751">
          <mxGeometry x="0.0054" y="-2" relative="1" as="geometry">
            <mxPoint as="offset" />
          </mxGeometry>
        </mxCell>
        <mxCell id="4uhgzGvUtN5T5S1G_zmg-754" value="" style="endArrow=classic;html=1;rounded=0;" edge="1" parent="4uhgzGvUtN5T5S1G_zmg-705">
          <mxGeometry width="50" height="50" relative="1" as="geometry">
            <mxPoint x="630" y="310.00000000000006" as="sourcePoint" />
            <mxPoint x="1000" y="310.00000000000006" as="targetPoint" />
          </mxGeometry>
        </mxCell>
        <mxCell id="4uhgzGvUtN5T5S1G_zmg-755" value="O3 - Принудительное взыскание" style="edgeLabel;html=1;align=center;verticalAlign=middle;resizable=0;points=[];" vertex="1" connectable="0" parent="4uhgzGvUtN5T5S1G_zmg-754">
          <mxGeometry x="0.0054" y="-2" relative="1" as="geometry">
            <mxPoint as="offset" />
          </mxGeometry>
        </mxCell>
        <mxCell id="4uhgzGvUtN5T5S1G_zmg-840" value="" style="endArrow=classic;html=1;rounded=0;exitX=0.347;exitY=0.019;exitDx=0;exitDy=0;exitPerimeter=0;entryX=0.054;entryY=1.02;entryDx=0;entryDy=0;entryPerimeter=0;" edge="1" parent="4uhgzGvUtN5T5S1G_zmg-705">
          <mxGeometry width="50" height="50" relative="1" as="geometry">
            <mxPoint x="600" y="486.00000000000006" as="sourcePoint" />
            <mxPoint x="600" y="347.00000000000006" as="targetPoint" />
          </mxGeometry>
        </mxCell>
        <mxCell id="4uhgzGvUtN5T5S1G_zmg-841" value="M4 - Бумажный или&amp;nbsp;&lt;div&gt;электронный носитель&lt;/div&gt;" style="edgeLabel;html=1;align=center;verticalAlign=middle;resizable=0;points=[];rotation=-90;" vertex="1" connectable="0" parent="4uhgzGvUtN5T5S1G_zmg-840">
          <mxGeometry x="-0.0408" y="2" relative="1" as="geometry">
            <mxPoint x="2" as="offset" />
          </mxGeometry>
        </mxCell>
        <mxCell id="4uhgzGvUtN5T5S1G_zmg-850" value="" style="endArrow=classic;html=1;rounded=0;exitX=0.461;exitY=0.999;exitDx=0;exitDy=0;exitPerimeter=0;entryX=0.004;entryY=0.36;entryDx=0;entryDy=0;entryPerimeter=0;" edge="1" parent="4uhgzGvUtN5T5S1G_zmg-705">
          <mxGeometry width="50" height="50" relative="1" as="geometry">
            <mxPoint y="320.00000000000006" as="sourcePoint" />
            <mxPoint x="370" y="320.00000000000006" as="targetPoint" />
          </mxGeometry>
        </mxCell>
        <mxCell id="4uhgzGvUtN5T5S1G_zmg-851" value="I4 - Уточнённый расчёт" style="edgeLabel;html=1;align=center;verticalAlign=middle;resizable=0;points=[];" vertex="1" connectable="0" parent="4uhgzGvUtN5T5S1G_zmg-850">
          <mxGeometry x="0.0108" relative="1" as="geometry">
            <mxPoint as="offset" />
          </mxGeometry>
        </mxCell>
        <mxCell id="4uhgzGvUtN5T5S1G_zmg-761" value="" style="group" vertex="1" connectable="0" parent="1">
          <mxGeometry x="1100" y="1050" width="1000" height="540" as="geometry" />
        </mxCell>
        <mxCell id="4uhgzGvUtN5T5S1G_zmg-762" value="" style="group" vertex="1" connectable="0" parent="4uhgzGvUtN5T5S1G_zmg-761">
          <mxGeometry width="1000" height="540" as="geometry" />
        </mxCell>
        <mxCell id="4uhgzGvUtN5T5S1G_zmg-763" value="" style="shape=process;whiteSpace=wrap;html=1;backgroundOutline=1;rotation=90;" vertex="1" parent="4uhgzGvUtN5T5S1G_zmg-762">
          <mxGeometry x="230" y="-229.99999999999994" width="540" height="1000" as="geometry" />
        </mxCell>
        <mxCell id="4uhgzGvUtN5T5S1G_zmg-764" value="" style="rounded=0;whiteSpace=wrap;html=1;" vertex="1" parent="4uhgzGvUtN5T5S1G_zmg-762">
          <mxGeometry y="5.684341886080802e-14" width="120" height="54" as="geometry" />
        </mxCell>
        <mxCell id="4uhgzGvUtN5T5S1G_zmg-765" value="ЛАА002" style="rounded=0;whiteSpace=wrap;html=1;" vertex="1" parent="4uhgzGvUtN5T5S1G_zmg-762">
          <mxGeometry x="880" y="486.00000000000006" width="120" height="54" as="geometry" />
        </mxCell>
        <mxCell id="4uhgzGvUtN5T5S1G_zmg-766" value="" style="rounded=0;whiteSpace=wrap;html=1;" vertex="1" parent="4uhgzGvUtN5T5S1G_zmg-762">
          <mxGeometry x="880" y="5.684341886080802e-14" width="120" height="54" as="geometry" />
        </mxCell>
        <mxCell id="4uhgzGvUtN5T5S1G_zmg-767" value="A0" style="rounded=0;whiteSpace=wrap;html=1;" vertex="1" parent="4uhgzGvUtN5T5S1G_zmg-762">
          <mxGeometry y="486.00000000000006" width="120" height="54" as="geometry" />
        </mxCell>
        <mxCell id="4uhgzGvUtN5T5S1G_zmg-768" value="Управление расчётом страховых взносов" style="text;html=1;align=center;verticalAlign=middle;whiteSpace=wrap;rounded=0;" vertex="1" parent="4uhgzGvUtN5T5S1G_zmg-762">
          <mxGeometry x="120" y="486" width="760" height="54" as="geometry" />
        </mxCell>
        <mxCell id="4uhgzGvUtN5T5S1G_zmg-769" style="edgeStyle=orthogonalEdgeStyle;rounded=0;orthogonalLoop=1;jettySize=auto;html=1;exitX=1;exitY=0.5;exitDx=0;exitDy=0;" edge="1" parent="4uhgzGvUtN5T5S1G_zmg-762" source="4uhgzGvUtN5T5S1G_zmg-771" target="4uhgzGvUtN5T5S1G_zmg-787">
          <mxGeometry relative="1" as="geometry" />
        </mxCell>
        <mxCell id="4uhgzGvUtN5T5S1G_zmg-770" value="I5" style="edgeLabel;html=1;align=center;verticalAlign=middle;resizable=0;points=[];" vertex="1" connectable="0" parent="4uhgzGvUtN5T5S1G_zmg-769">
          <mxGeometry x="-0.8067" y="-1" relative="1" as="geometry">
            <mxPoint as="offset" />
          </mxGeometry>
        </mxCell>
        <mxCell id="4uhgzGvUtN5T5S1G_zmg-771" value="Приём ведомости расчёта страховых взносов" style="rounded=0;whiteSpace=wrap;html=1;" vertex="1" parent="4uhgzGvUtN5T5S1G_zmg-762">
          <mxGeometry x="90" y="119" width="120" height="60" as="geometry" />
        </mxCell>
        <mxCell id="4uhgzGvUtN5T5S1G_zmg-773" value="" style="rounded=0;whiteSpace=wrap;html=1;" vertex="1" parent="4uhgzGvUtN5T5S1G_zmg-762">
          <mxGeometry x="905" y="13" width="16" height="6" as="geometry" />
        </mxCell>
        <mxCell id="4uhgzGvUtN5T5S1G_zmg-779" value="Осуществление взысканий" style="rounded=0;whiteSpace=wrap;html=1;" vertex="1" parent="4uhgzGvUtN5T5S1G_zmg-762">
          <mxGeometry x="570" y="300" width="120" height="60" as="geometry" />
        </mxCell>
        <mxCell id="4uhgzGvUtN5T5S1G_zmg-780" style="edgeStyle=orthogonalEdgeStyle;rounded=0;orthogonalLoop=1;jettySize=auto;html=1;exitX=1;exitY=0.5;exitDx=0;exitDy=0;" edge="1" parent="4uhgzGvUtN5T5S1G_zmg-762">
          <mxGeometry relative="1" as="geometry">
            <mxPoint x="530" y="290" as="sourcePoint" />
            <mxPoint x="571" y="350" as="targetPoint" />
            <Array as="points">
              <mxPoint x="540" y="291" />
              <mxPoint x="540" y="350" />
            </Array>
          </mxGeometry>
        </mxCell>
        <mxCell id="4uhgzGvUtN5T5S1G_zmg-781" value="I8" style="edgeLabel;html=1;align=center;verticalAlign=middle;resizable=0;points=[];" vertex="1" connectable="0" parent="4uhgzGvUtN5T5S1G_zmg-780">
          <mxGeometry x="-0.7067" y="2" relative="1" as="geometry">
            <mxPoint as="offset" />
          </mxGeometry>
        </mxCell>
        <mxCell id="4uhgzGvUtN5T5S1G_zmg-857" style="edgeStyle=orthogonalEdgeStyle;rounded=0;orthogonalLoop=1;jettySize=auto;html=1;exitX=1;exitY=0.25;exitDx=0;exitDy=0;entryX=0;entryY=0.25;entryDx=0;entryDy=0;" edge="1" parent="4uhgzGvUtN5T5S1G_zmg-762" source="4uhgzGvUtN5T5S1G_zmg-782" target="4uhgzGvUtN5T5S1G_zmg-779">
          <mxGeometry relative="1" as="geometry">
            <Array as="points">
              <mxPoint x="550" y="255" />
              <mxPoint x="550" y="315" />
            </Array>
          </mxGeometry>
        </mxCell>
        <mxCell id="4uhgzGvUtN5T5S1G_zmg-858" value="I7" style="edgeLabel;html=1;align=center;verticalAlign=middle;resizable=0;points=[];" vertex="1" connectable="0" parent="4uhgzGvUtN5T5S1G_zmg-857">
          <mxGeometry x="-0.5891" relative="1" as="geometry">
            <mxPoint as="offset" />
          </mxGeometry>
        </mxCell>
        <mxCell id="4uhgzGvUtN5T5S1G_zmg-782" value="Осуществление камеральной проверки" style="rounded=0;whiteSpace=wrap;html=1;" vertex="1" parent="4uhgzGvUtN5T5S1G_zmg-762">
          <mxGeometry x="410" y="240" width="120" height="60" as="geometry" />
        </mxCell>
        <mxCell id="4uhgzGvUtN5T5S1G_zmg-783" style="edgeStyle=orthogonalEdgeStyle;rounded=0;orthogonalLoop=1;jettySize=auto;html=1;exitX=1;exitY=0.5;exitDx=0;exitDy=0;entryX=0;entryY=0.5;entryDx=0;entryDy=0;" edge="1" parent="4uhgzGvUtN5T5S1G_zmg-762" source="4uhgzGvUtN5T5S1G_zmg-787" target="4uhgzGvUtN5T5S1G_zmg-782">
          <mxGeometry relative="1" as="geometry" />
        </mxCell>
        <mxCell id="4uhgzGvUtN5T5S1G_zmg-784" value="I6" style="edgeLabel;html=1;align=center;verticalAlign=middle;resizable=0;points=[];" vertex="1" connectable="0" parent="4uhgzGvUtN5T5S1G_zmg-783">
          <mxGeometry x="-0.7426" relative="1" as="geometry">
            <mxPoint as="offset" />
          </mxGeometry>
        </mxCell>
        <mxCell id="4uhgzGvUtN5T5S1G_zmg-787" value="Предварительная проверка" style="rounded=0;whiteSpace=wrap;html=1;" vertex="1" parent="4uhgzGvUtN5T5S1G_zmg-762">
          <mxGeometry x="250" y="179" width="120" height="60" as="geometry" />
        </mxCell>
        <mxCell id="4uhgzGvUtN5T5S1G_zmg-788" value="" style="endArrow=classic;html=1;rounded=0;exitX=0.25;exitY=1;exitDx=0;exitDy=0;" edge="1" parent="4uhgzGvUtN5T5S1G_zmg-762" source="4uhgzGvUtN5T5S1G_zmg-763">
          <mxGeometry width="50" height="50" relative="1" as="geometry">
            <mxPoint x="480" y="260" as="sourcePoint" />
            <mxPoint x="91" y="135" as="targetPoint" />
          </mxGeometry>
        </mxCell>
        <mxCell id="4uhgzGvUtN5T5S1G_zmg-789" value="I1" style="edgeLabel;html=1;align=center;verticalAlign=middle;resizable=0;points=[];" vertex="1" connectable="0" parent="4uhgzGvUtN5T5S1G_zmg-788">
          <mxGeometry x="0.0183" relative="1" as="geometry">
            <mxPoint as="offset" />
          </mxGeometry>
        </mxCell>
        <mxCell id="4uhgzGvUtN5T5S1G_zmg-790" value="" style="endArrow=classic;html=1;rounded=0;exitX=0.25;exitY=1;exitDx=0;exitDy=0;" edge="1" parent="4uhgzGvUtN5T5S1G_zmg-762">
          <mxGeometry width="50" height="50" relative="1" as="geometry">
            <mxPoint y="166" as="sourcePoint" />
            <mxPoint x="91" y="166" as="targetPoint" />
          </mxGeometry>
        </mxCell>
        <mxCell id="4uhgzGvUtN5T5S1G_zmg-791" value="I2" style="edgeLabel;html=1;align=center;verticalAlign=middle;resizable=0;points=[];" vertex="1" connectable="0" parent="4uhgzGvUtN5T5S1G_zmg-790">
          <mxGeometry x="0.1648" y="-3" relative="1" as="geometry">
            <mxPoint x="-6" as="offset" />
          </mxGeometry>
        </mxCell>
        <mxCell id="4uhgzGvUtN5T5S1G_zmg-792" value="" style="endArrow=classic;html=1;rounded=0;entryX=0;entryY=1;entryDx=0;entryDy=0;" edge="1" parent="4uhgzGvUtN5T5S1G_zmg-762">
          <mxGeometry width="50" height="50" relative="1" as="geometry">
            <mxPoint x="100" y="486" as="sourcePoint" />
            <mxPoint x="100.00000000000023" y="179" as="targetPoint" />
          </mxGeometry>
        </mxCell>
        <mxCell id="4uhgzGvUtN5T5S1G_zmg-844" value="M1" style="edgeLabel;html=1;align=center;verticalAlign=middle;resizable=0;points=[];" vertex="1" connectable="0" parent="4uhgzGvUtN5T5S1G_zmg-792">
          <mxGeometry x="-0.9141" y="1" relative="1" as="geometry">
            <mxPoint as="offset" />
          </mxGeometry>
        </mxCell>
        <mxCell id="4uhgzGvUtN5T5S1G_zmg-807" value="" style="endArrow=classic;html=1;rounded=0;" edge="1" parent="4uhgzGvUtN5T5S1G_zmg-762">
          <mxGeometry width="50" height="50" relative="1" as="geometry">
            <mxPoint x="125" y="54" as="sourcePoint" />
            <mxPoint x="125" y="120" as="targetPoint" />
          </mxGeometry>
        </mxCell>
        <mxCell id="4uhgzGvUtN5T5S1G_zmg-813" value="" style="endArrow=classic;html=1;rounded=0;entryX=0.414;entryY=-0.011;entryDx=0;entryDy=0;entryPerimeter=0;" edge="1" parent="4uhgzGvUtN5T5S1G_zmg-762" target="4uhgzGvUtN5T5S1G_zmg-782">
          <mxGeometry width="50" height="50" relative="1" as="geometry">
            <mxPoint x="460" y="54" as="sourcePoint" />
            <mxPoint x="460" y="179" as="targetPoint" />
          </mxGeometry>
        </mxCell>
        <mxCell id="4uhgzGvUtN5T5S1G_zmg-835" value="C2" style="edgeLabel;html=1;align=center;verticalAlign=middle;resizable=0;points=[];" vertex="1" connectable="0" parent="4uhgzGvUtN5T5S1G_zmg-813">
          <mxGeometry x="-0.9048" y="-1" relative="1" as="geometry">
            <mxPoint as="offset" />
          </mxGeometry>
        </mxCell>
        <mxCell id="4uhgzGvUtN5T5S1G_zmg-815" value="" style="endArrow=classic;html=1;rounded=0;entryX=0.5;entryY=0;entryDx=0;entryDy=0;" edge="1" parent="4uhgzGvUtN5T5S1G_zmg-762" target="4uhgzGvUtN5T5S1G_zmg-779">
          <mxGeometry width="50" height="50" relative="1" as="geometry">
            <mxPoint x="629.58" y="56.5" as="sourcePoint" />
            <mxPoint x="629.58" y="241.5" as="targetPoint" />
          </mxGeometry>
        </mxCell>
        <mxCell id="4uhgzGvUtN5T5S1G_zmg-836" value="C3" style="edgeLabel;html=1;align=center;verticalAlign=middle;resizable=0;points=[];" vertex="1" connectable="0" parent="4uhgzGvUtN5T5S1G_zmg-815">
          <mxGeometry x="-0.9631" y="-2" relative="1" as="geometry">
            <mxPoint x="2" y="3" as="offset" />
          </mxGeometry>
        </mxCell>
        <mxCell id="4uhgzGvUtN5T5S1G_zmg-821" value="I5 - принятый расчёт&lt;div&gt;I6 - протокол ошибок&lt;/div&gt;&lt;div&gt;I7 - а&lt;span style=&quot;background-color: rgb(255, 255, 255); font-size: 11px; text-align: center; text-wrap: nowrap;&quot;&gt;кт камеральной проверки&lt;/span&gt;&lt;/div&gt;&lt;div&gt;I8 - протокол&lt;span style=&quot;text-wrap: nowrap; background-color: rgb(255, 255, 255); font-size: 11px; text-align: center;&quot;&gt;&amp;nbsp;камеральной проверки&lt;/span&gt;&lt;/div&gt;&lt;div&gt;&lt;br&gt;&lt;/div&gt;" style="text;html=1;align=right;verticalAlign=middle;whiteSpace=wrap;rounded=0;" vertex="1" parent="4uhgzGvUtN5T5S1G_zmg-762">
          <mxGeometry x="800" y="28" width="200" height="131" as="geometry" />
        </mxCell>
        <mxCell id="4uhgzGvUtN5T5S1G_zmg-822" value="1" style="text;html=1;align=center;verticalAlign=middle;whiteSpace=wrap;rounded=0;" vertex="1" parent="4uhgzGvUtN5T5S1G_zmg-762">
          <mxGeometry x="190" y="159" width="20" height="20" as="geometry" />
        </mxCell>
        <mxCell id="4uhgzGvUtN5T5S1G_zmg-823" value="2" style="text;html=1;align=center;verticalAlign=middle;whiteSpace=wrap;rounded=0;" vertex="1" parent="4uhgzGvUtN5T5S1G_zmg-762">
          <mxGeometry x="350" y="219" width="20" height="20" as="geometry" />
        </mxCell>
        <mxCell id="4uhgzGvUtN5T5S1G_zmg-824" value="3" style="text;html=1;align=center;verticalAlign=middle;whiteSpace=wrap;rounded=0;" vertex="1" parent="4uhgzGvUtN5T5S1G_zmg-762">
          <mxGeometry x="510" y="280" width="20" height="20" as="geometry" />
        </mxCell>
        <mxCell id="4uhgzGvUtN5T5S1G_zmg-825" value="4" style="text;html=1;align=center;verticalAlign=middle;whiteSpace=wrap;rounded=0;" vertex="1" parent="4uhgzGvUtN5T5S1G_zmg-762">
          <mxGeometry x="670" y="340" width="20" height="20" as="geometry" />
        </mxCell>
        <mxCell id="4uhgzGvUtN5T5S1G_zmg-834" value="" style="endArrow=classic;html=1;rounded=0;entryX=0.25;entryY=0;entryDx=0;entryDy=0;" edge="1" parent="4uhgzGvUtN5T5S1G_zmg-762" target="4uhgzGvUtN5T5S1G_zmg-782">
          <mxGeometry width="50" height="50" relative="1" as="geometry">
            <mxPoint x="125" y="54" as="sourcePoint" />
            <mxPoint x="175" y="4" as="targetPoint" />
            <Array as="points">
              <mxPoint x="125" y="100" />
              <mxPoint x="440" y="100" />
            </Array>
          </mxGeometry>
        </mxCell>
        <mxCell id="4uhgzGvUtN5T5S1G_zmg-837" value="" style="endArrow=classic;html=1;rounded=0;entryX=0.25;entryY=0;entryDx=0;entryDy=0;" edge="1" parent="4uhgzGvUtN5T5S1G_zmg-762" target="4uhgzGvUtN5T5S1G_zmg-779">
          <mxGeometry width="50" height="50" relative="1" as="geometry">
            <mxPoint x="125" y="54" as="sourcePoint" />
            <mxPoint x="175" y="4" as="targetPoint" />
            <Array as="points">
              <mxPoint x="125" y="100" />
              <mxPoint x="600" y="100" />
            </Array>
          </mxGeometry>
        </mxCell>
        <mxCell id="4uhgzGvUtN5T5S1G_zmg-847" value="" style="group" vertex="1" connectable="0" parent="4uhgzGvUtN5T5S1G_zmg-762">
          <mxGeometry x="160" y="179" width="470" height="307" as="geometry" />
        </mxCell>
        <mxCell id="4uhgzGvUtN5T5S1G_zmg-795" value="" style="endArrow=classic;html=1;rounded=0;entryX=0;entryY=1;entryDx=0;entryDy=0;" edge="1" parent="4uhgzGvUtN5T5S1G_zmg-847">
          <mxGeometry width="50" height="50" relative="1" as="geometry">
            <mxPoint x="0.1700000000000017" y="307" as="sourcePoint" />
            <mxPoint x="0.17000000000022908" as="targetPoint" />
          </mxGeometry>
        </mxCell>
        <mxCell id="4uhgzGvUtN5T5S1G_zmg-798" value="" style="endArrow=classic;html=1;rounded=0;" edge="1" parent="4uhgzGvUtN5T5S1G_zmg-847">
          <mxGeometry width="50" height="50" relative="1" as="geometry">
            <mxPoint y="301" as="sourcePoint" />
            <mxPoint x="150" y="60" as="targetPoint" />
            <Array as="points">
              <mxPoint y="271" />
              <mxPoint x="150" y="271" />
            </Array>
          </mxGeometry>
        </mxCell>
        <mxCell id="4uhgzGvUtN5T5S1G_zmg-843" value="M2" style="edgeLabel;html=1;align=center;verticalAlign=middle;resizable=0;points=[];" vertex="1" connectable="0" parent="4uhgzGvUtN5T5S1G_zmg-798">
          <mxGeometry x="-0.9726" y="1" relative="1" as="geometry">
            <mxPoint as="offset" />
          </mxGeometry>
        </mxCell>
        <mxCell id="4uhgzGvUtN5T5S1G_zmg-799" value="" style="endArrow=classic;html=1;rounded=0;entryX=0.157;entryY=1.017;entryDx=0;entryDy=0;entryPerimeter=0;" edge="1" parent="4uhgzGvUtN5T5S1G_zmg-847">
          <mxGeometry width="50" height="50" relative="1" as="geometry">
            <mxPoint y="291" as="sourcePoint" />
            <mxPoint x="308.84000000000015" y="122.01999999999998" as="targetPoint" />
            <Array as="points">
              <mxPoint y="271" />
              <mxPoint x="309" y="271" />
            </Array>
          </mxGeometry>
        </mxCell>
        <mxCell id="4uhgzGvUtN5T5S1G_zmg-800" value="" style="endArrow=classic;html=1;rounded=0;entryX=0.164;entryY=1.031;entryDx=0;entryDy=0;entryPerimeter=0;" edge="1" parent="4uhgzGvUtN5T5S1G_zmg-847">
          <mxGeometry width="50" height="50" relative="1" as="geometry">
            <mxPoint y="291" as="sourcePoint" />
            <mxPoint x="469.6800000000003" y="182.85999999999967" as="targetPoint" />
            <Array as="points">
              <mxPoint y="271" />
              <mxPoint x="470" y="271" />
            </Array>
          </mxGeometry>
        </mxCell>
        <mxCell id="4uhgzGvUtN5T5S1G_zmg-848" value="" style="endArrow=classic;html=1;rounded=0;entryX=0.177;entryY=1.003;entryDx=0;entryDy=0;entryPerimeter=0;" edge="1" parent="4uhgzGvUtN5T5S1G_zmg-847" target="4uhgzGvUtN5T5S1G_zmg-787">
          <mxGeometry width="50" height="50" relative="1" as="geometry">
            <mxPoint x="110" y="307" as="sourcePoint" />
            <mxPoint x="160" y="257" as="targetPoint" />
          </mxGeometry>
        </mxCell>
        <mxCell id="4uhgzGvUtN5T5S1G_zmg-849" value="M3" style="edgeLabel;html=1;align=center;verticalAlign=middle;resizable=0;points=[];" vertex="1" connectable="0" parent="4uhgzGvUtN5T5S1G_zmg-848">
          <mxGeometry x="-0.9005" relative="1" as="geometry">
            <mxPoint as="offset" />
          </mxGeometry>
        </mxCell>
        <mxCell id="4uhgzGvUtN5T5S1G_zmg-859" value="" style="endArrow=classic;html=1;rounded=0;entryX=0.463;entryY=0;entryDx=0;entryDy=0;entryPerimeter=0;" edge="1" parent="4uhgzGvUtN5T5S1G_zmg-847" target="4uhgzGvUtN5T5S1G_zmg-763">
          <mxGeometry width="50" height="50" relative="1" as="geometry">
            <mxPoint x="370" y="71" as="sourcePoint" />
            <mxPoint x="420" y="21" as="targetPoint" />
          </mxGeometry>
        </mxCell>
        <mxCell id="4uhgzGvUtN5T5S1G_zmg-860" value="O1" style="edgeLabel;html=1;align=center;verticalAlign=middle;resizable=0;points=[];" vertex="1" connectable="0" parent="4uhgzGvUtN5T5S1G_zmg-859">
          <mxGeometry x="-0.8054" y="-2" relative="1" as="geometry">
            <mxPoint as="offset" />
          </mxGeometry>
        </mxCell>
        <mxCell id="4uhgzGvUtN5T5S1G_zmg-845" value="" style="endArrow=classic;html=1;rounded=0;entryX=0;entryY=1;entryDx=0;entryDy=0;" edge="1" parent="4uhgzGvUtN5T5S1G_zmg-762">
          <mxGeometry width="50" height="50" relative="1" as="geometry">
            <mxPoint x="130" y="483.5" as="sourcePoint" />
            <mxPoint x="130.00000000000023" y="176.5" as="targetPoint" />
          </mxGeometry>
        </mxCell>
        <mxCell id="4uhgzGvUtN5T5S1G_zmg-846" value="M4" style="edgeLabel;html=1;align=center;verticalAlign=middle;resizable=0;points=[];" vertex="1" connectable="0" parent="4uhgzGvUtN5T5S1G_zmg-845">
          <mxGeometry x="-0.9141" y="1" relative="1" as="geometry">
            <mxPoint x="-1" y="4" as="offset" />
          </mxGeometry>
        </mxCell>
        <mxCell id="4uhgzGvUtN5T5S1G_zmg-852" value="" style="endArrow=classic;html=1;rounded=0;entryX=0;entryY=0.5;entryDx=0;entryDy=0;" edge="1" parent="4uhgzGvUtN5T5S1G_zmg-762">
          <mxGeometry width="50" height="50" relative="1" as="geometry">
            <mxPoint y="279" as="sourcePoint" />
            <mxPoint x="410" y="280" as="targetPoint" />
          </mxGeometry>
        </mxCell>
        <mxCell id="4uhgzGvUtN5T5S1G_zmg-854" value="I3" style="edgeLabel;html=1;align=center;verticalAlign=middle;resizable=0;points=[];" vertex="1" connectable="0" parent="4uhgzGvUtN5T5S1G_zmg-852">
          <mxGeometry x="-0.7548" y="1" relative="1" as="geometry">
            <mxPoint as="offset" />
          </mxGeometry>
        </mxCell>
        <mxCell id="4uhgzGvUtN5T5S1G_zmg-853" value="" style="endArrow=classic;html=1;rounded=0;entryX=0;entryY=0.5;entryDx=0;entryDy=0;" edge="1" parent="4uhgzGvUtN5T5S1G_zmg-762">
          <mxGeometry width="50" height="50" relative="1" as="geometry">
            <mxPoint y="289.5" as="sourcePoint" />
            <mxPoint x="410" y="290.5" as="targetPoint" />
          </mxGeometry>
        </mxCell>
        <mxCell id="4uhgzGvUtN5T5S1G_zmg-855" value="I4" style="edgeLabel;html=1;align=center;verticalAlign=middle;resizable=0;points=[];" vertex="1" connectable="0" parent="4uhgzGvUtN5T5S1G_zmg-853">
          <mxGeometry x="-0.7503" relative="1" as="geometry">
            <mxPoint as="offset" />
          </mxGeometry>
        </mxCell>
        <mxCell id="4uhgzGvUtN5T5S1G_zmg-861" style="edgeStyle=orthogonalEdgeStyle;rounded=0;orthogonalLoop=1;jettySize=auto;html=1;exitX=1;exitY=0.25;exitDx=0;exitDy=0;entryX=0.584;entryY=-0.001;entryDx=0;entryDy=0;entryPerimeter=0;" edge="1" parent="4uhgzGvUtN5T5S1G_zmg-762" source="4uhgzGvUtN5T5S1G_zmg-779" target="4uhgzGvUtN5T5S1G_zmg-763">
          <mxGeometry relative="1" as="geometry">
            <Array as="points">
              <mxPoint x="800" y="315" />
              <mxPoint x="800" y="315" />
            </Array>
          </mxGeometry>
        </mxCell>
        <mxCell id="4uhgzGvUtN5T5S1G_zmg-863" value="O2" style="edgeLabel;html=1;align=center;verticalAlign=middle;resizable=0;points=[];" vertex="1" connectable="0" parent="4uhgzGvUtN5T5S1G_zmg-861">
          <mxGeometry x="-0.9106" relative="1" as="geometry">
            <mxPoint as="offset" />
          </mxGeometry>
        </mxCell>
        <mxCell id="4uhgzGvUtN5T5S1G_zmg-862" style="edgeStyle=orthogonalEdgeStyle;rounded=0;orthogonalLoop=1;jettySize=auto;html=1;exitX=1;exitY=0.25;exitDx=0;exitDy=0;entryX=0.584;entryY=-0.001;entryDx=0;entryDy=0;entryPerimeter=0;" edge="1" parent="4uhgzGvUtN5T5S1G_zmg-762">
          <mxGeometry relative="1" as="geometry">
            <mxPoint x="689" y="340" as="sourcePoint" />
            <mxPoint x="1000" y="340" as="targetPoint" />
            <Array as="points">
              <mxPoint x="799" y="340" />
              <mxPoint x="799" y="340" />
            </Array>
          </mxGeometry>
        </mxCell>
        <mxCell id="4uhgzGvUtN5T5S1G_zmg-864" value="O3" style="edgeLabel;html=1;align=center;verticalAlign=middle;resizable=0;points=[];" vertex="1" connectable="0" parent="4uhgzGvUtN5T5S1G_zmg-862">
          <mxGeometry x="-0.91" relative="1" as="geometry">
            <mxPoint as="offset" />
          </mxGeometry>
        </mxCell>
        <mxCell id="4uhgzGvUtN5T5S1G_zmg-827" value="" style="group" vertex="1" connectable="0" parent="4uhgzGvUtN5T5S1G_zmg-761">
          <mxGeometry x="926" y="23" width="58" height="27" as="geometry" />
        </mxCell>
        <mxCell id="4uhgzGvUtN5T5S1G_zmg-828" value="" style="rounded=0;whiteSpace=wrap;html=1;" vertex="1" parent="4uhgzGvUtN5T5S1G_zmg-827">
          <mxGeometry width="16" height="6" as="geometry" />
        </mxCell>
        <mxCell id="4uhgzGvUtN5T5S1G_zmg-829" value="" style="rounded=0;whiteSpace=wrap;html=1;" vertex="1" parent="4uhgzGvUtN5T5S1G_zmg-827">
          <mxGeometry x="21" y="11" width="16" height="6" as="geometry" />
        </mxCell>
        <mxCell id="4uhgzGvUtN5T5S1G_zmg-830" value="" style="rounded=0;whiteSpace=wrap;html=1;" vertex="1" parent="4uhgzGvUtN5T5S1G_zmg-827">
          <mxGeometry x="42" y="21" width="16" height="6" as="geometry" />
        </mxCell>
        <mxCell id="4uhgzGvUtN5T5S1G_zmg-833" value="" style="endArrow=classic;html=1;rounded=0;entryX=0.5;entryY=0;entryDx=0;entryDy=0;" edge="1" parent="1" target="4uhgzGvUtN5T5S1G_zmg-787">
          <mxGeometry width="50" height="50" relative="1" as="geometry">
            <mxPoint x="1225" y="1105" as="sourcePoint" />
            <mxPoint x="1275" y="1055" as="targetPoint" />
            <Array as="points">
              <mxPoint x="1225" y="1150" />
              <mxPoint x="1410" y="1150" />
            </Array>
          </mxGeometry>
        </mxCell>
        <mxCell id="4uhgzGvUtN5T5S1G_zmg-838" value="C1" style="edgeLabel;html=1;align=center;verticalAlign=middle;resizable=0;points=[];" vertex="1" connectable="0" parent="4uhgzGvUtN5T5S1G_zmg-833">
          <mxGeometry x="-0.9259" y="2" relative="1" as="geometry">
            <mxPoint as="offset" />
          </mxGeometry>
        </mxCell>
      </root>
    </mxGraphModel>
  </diagram>
</mxfile>
